<svg xmlns="http://www.w3.org/2000/svg" xmlns:xlink="http://www.w3.org/1999/xlink" width="430" zoomAndPan="magnify" viewBox="0 0 322.5 375.749989" height="501" preserveAspectRatio="xMidYMid meet" version="1.0"><defs><clipPath id="56f6923a9f"><path d="M 0 0.167969 L 322 0.167969 L 322 375 L 0 375 Z M 0 0.167969 " clip-rule="nonzero"/></clipPath></defs><g clip-path="url(#56f6923a9f)"><path fill="#000000" d="M 144.476562 18.492188 C 108.46875 57.558594 66.84375 80.683594 20.761719 87.21875 L 2.492188 89.808594 L 1.195312 108.214844 C -0.917969 138.164062 2.910156 170.007812 12.257812 200.308594 L 12.410156 200.824219 C 34.9375 273.796875 85.429688 335.207031 150.929688 369.300781 L 161.648438 374.867188 L 172.34375 369.3125 C 237.875 335.203125 288.367188 273.789062 310.890625 200.808594 L 311.085938 200.175781 L 311.105469 200.039062 C 319.929688 170.144531 323.464844 138.390625 321.332031 108.210938 L 320.03125 89.808594 L 301.765625 87.21875 C 255.832031 80.703125 215.316406 58.171875 177.902344 18.332031 L 161.105469 0.449219 Z M 144.476562 18.492188 " fill-opacity="1" fill-rule="evenodd"/></g><path fill="#ffffff" d="M 150.933594 24.441406 C 113.515625 65.039062 70.132812 89.082031 21.992188 95.914062 L 10.75 97.503906 L 9.953125 108.832031 C 7.917969 137.707031 11.613281 168.445312 20.648438 197.71875 L 20.800781 198.230469 C 42.640625 268.980469 91.550781 328.496094 154.984375 361.511719 L 161.648438 364.976562 L 168.300781 361.519531 C 231.753906 328.496094 280.664062 268.976562 302.5 198.222656 L 302.679688 197.636719 L 302.683594 197.554688 C 311.214844 168.65625 314.632812 137.972656 312.574219 108.828125 L 311.773438 97.503906 L 300.53125 95.914062 C 252.542969 89.105469 210.335938 65.695312 171.503906 24.34375 L 161.167969 13.339844 Z M 150.933594 24.441406 " fill-opacity="1" fill-rule="evenodd"/><path fill="#000000" d="M 288.707031 193.578125 L 34.066406 193.578125 L 34.21875 194.078125 C 54.964844 261.269531 101.34375 317.757812 161.46875 349.054688 L 161.648438 349.144531 L 161.828125 349.054688 C 221.960938 317.753906 268.339844 261.265625 289.078125 194.078125 L 289.230469 193.578125 Z M 288.707031 193.578125 " fill-opacity="1" fill-rule="evenodd"/><path fill="#ff1100" d="M 289.085938 194.015625 C 297.429688 165.949219 300.464844 136.746094 298.5625 109.820312 C 247.742188 102.613281 202.226562 77.578125 161.261719 33.960938 C 121.058594 77.578125 74.785156 102.613281 23.964844 109.820312 C 22.066406 136.746094 25.484375 165.949219 34.203125 194.015625 Z M 289.085938 194.015625 " fill-opacity="1" fill-rule="evenodd"/><path fill="#ffffff" d="M 61.910156 119.300781 L 91.117188 104.128906 C 90.734375 113.230469 91.871094 124.230469 96.046875 132.953125 L 124.492188 194.398438 L 124.492188 228.917969 L 82.011719 140.542969 C 77.839844 132.199219 69.113281 126.128906 61.910156 119.300781 Z M 61.910156 119.300781 " fill-opacity="1" fill-rule="evenodd"/><path fill="#ffffff" d="M 263.6875 121.953125 L 234.480469 106.785156 C 234.859375 115.886719 233.347656 126.882812 229.550781 135.609375 L 184.03125 238.394531 L 201.863281 235.738281 L 243.585938 143.195312 C 247.378906 134.851562 256.484375 128.78125 263.6875 121.953125 Z M 263.6875 121.953125 " fill-opacity="1" fill-rule="evenodd"/><path fill="#ffffff" d="M 121.839844 293.386719 L 148.007812 293.386719 L 148.007812 203.125 L 175.3125 203.125 C 181.007812 203.125 184.414062 210.324219 188.59375 214.125 L 188.972656 176.949219 C 184.414062 180.363281 181.378906 186.808594 175.695312 186.808594 L 148.386719 186.808594 L 148.007812 150.023438 L 130.558594 155.332031 L 130.558594 278.597656 C 130.558594 284.289062 124.867188 288.457031 121.839844 293.386719 Z M 121.839844 293.386719 " fill-opacity="1" fill-rule="evenodd"/><path fill="#ffffff" d="M 130.9375 127.644531 L 130.9375 102.613281 C 130.9375 96.921875 125.628906 92.75 122.214844 88.199219 L 203.386719 88.199219 L 203.386719 113.230469 C 196.9375 109.058594 191.628906 101.476562 184.414062 101.476562 L 148.386719 101.476562 L 148.386719 124.230469 Z M 130.9375 127.644531 " fill-opacity="1" fill-rule="evenodd"/><path fill="#ffffff" d="M 186.316406 293.765625 L 213.242188 293.765625 L 213.242188 268.734375 C 212.101562 269.875 211.347656 280.109375 191.628906 280.109375 Z M 186.316406 293.765625 " fill-opacity="1" fill-rule="evenodd"/><path fill="#ffffff" d="M 154.074219 270.257812 L 154.074219 294.90625 L 166.96875 320.320312 L 192.007812 263.804688 L 176.453125 264.1875 L 165.078125 293.015625 Z M 154.074219 270.257812 " fill-opacity="1" fill-rule="evenodd"/><path fill="#ffffff" d="M 124.492188 235.738281 C 103.632812 226.632812 84.289062 211.464844 70.632812 194.015625 C 74.804688 185.292969 83.148438 176.574219 90.355469 172.402344 L 82.011719 157.230469 C 71.773438 164.8125 60.769531 173.15625 55.839844 184.535156 C 53.945312 188.707031 50.53125 191.746094 47.117188 194.015625 C 50.53125 195.914062 52.804688 195.53125 56.222656 200.46875 C 72.910156 224.359375 98.320312 242.949219 124.492188 252.425781 C 124.492188 245.976562 124.492188 242.1875 124.492188 235.738281 Z M 124.492188 235.738281 " fill-opacity="1" fill-rule="evenodd"/><path fill="#ffffff" d="M 105.90625 141.679688 L 113.496094 156.46875 C 148.386719 140.917969 182.523438 140.542969 214.003906 152.296875 L 220.074219 139.023438 C 185.9375 124.230469 144.214844 125.367188 105.90625 141.679688 Z M 105.90625 141.679688 " fill-opacity="1" fill-rule="evenodd"/><path fill="#ffffff" d="M 245.480469 151.914062 L 239.796875 165.195312 L 250.417969 170.503906 C 253.449219 171.640625 254.582031 175.8125 256.484375 178.464844 L 265.964844 157.605469 C 262.546875 157.605469 258.761719 159.125 255.726562 157.605469 Z M 245.480469 151.914062 " fill-opacity="1" fill-rule="evenodd"/><path fill="#ffffff" d="M 153.699219 241.425781 L 153.699219 255.84375 C 192.007812 264.1875 228.039062 252.804688 261.414062 233.085938 L 251.546875 218.289062 C 228.039062 238.394531 187.832031 248.257812 153.699219 241.425781 Z M 153.699219 241.425781 " fill-opacity="1" fill-rule="evenodd"/></svg>