<svg xmlns="http://www.w3.org/2000/svg" xmlns:xlink="http://www.w3.org/1999/xlink" width="379" zoomAndPan="magnify" viewBox="0 0 284.25 377.249986" height="503" preserveAspectRatio="xMidYMid meet" version="1.0"><path fill="#ffffff" d="M 119.804688 133.167969 L 119.804688 122.792969 L 142.898438 103.785156 L 142.898438 73.246094 L 124.367188 58.40625 L 98.519531 79.664062 L 98.519531 73.449219 L 79.789062 58.398438 L 63.433594 71.839844 L 46.996094 58.375 L 20.191406 80.402344 L 5.542969 117.003906 L 19.429688 105.582031 L 19.429688 137.863281 L 36.195312 151.597656 L 39.195312 154.027344 L 52.21875 143.332031 L 52.21875 159.441406 L 75.238281 140.585938 L 75.238281 159.480469 L 96.738281 141.777344 L 96.738281 152.121094 L 15.933594 218.550781 L 15.933594 282.777344 L 121.539062 369.476562 L 227.167969 282.652344 L 227.167969 226.027344 L 251.476562 206.042969 L 251.476562 150.578125 L 277.234375 129.402344 L 277.234375 3.765625 Z M 119.804688 133.167969 " fill-opacity="1" fill-rule="nonzero"/><path fill="#231f20" d="M 53.371094 301.574219 L 268.074219 125.074219 L 268.074219 79.796875 L 25.832031 278.933594 Z M 53.371094 301.574219 " fill-opacity="1" fill-rule="nonzero"/><path fill="#e43031" d="M 242.316406 156.421875 L 242.316406 201.710938 L 87.097656 329.304688 L 59.558594 306.660156 Z M 242.316406 156.421875 " fill-opacity="1" fill-rule="nonzero"/><path fill="#e43031" d="M 268.074219 69.625 L 268.074219 23.152344 L 25.097656 222.871094 L 25.097656 269.375 Z M 268.074219 69.625 " fill-opacity="1" fill-rule="nonzero"/><path fill="#231f20" d="M 93.285156 334.382812 L 121.539062 357.621094 L 218.003906 278.320312 L 218.003906 231.863281 Z M 93.285156 334.382812 " fill-opacity="1" fill-rule="nonzero"/><path fill="#231f20" d="M 115.210938 76.835938 L 115.210938 106.449219 L 113.9375 107.496094 L 113.9375 75.78125 L 115.210938 76.769531 Z M 37.871094 77.34375 L 36.65625 76.328125 L 36.65625 125.417969 L 37.929688 126.464844 Z M 45.53125 82.925781 L 57.605469 73.007812 L 58.5625 73.753906 L 46.503906 83.695312 Z M 92.664062 74.621094 L 93.941406 75.652344 L 93.941406 123.390625 L 92.664062 124.445312 Z M 24.6875 95.304688 L 17.320312 101.363281 L 18.253906 99.027344 L 27.679688 91.300781 Z M 70.878906 77.351562 L 70.878906 106.042969 L 69.613281 107.097656 L 69.613281 76.289062 Z M 138.289062 75.460938 L 138.289062 101.640625 L 115.210938 120.660156 L 115.210938 137.234375 L 101.566406 148.457031 L 101.566406 146.839844 L 113.9375 136.683594 L 113.9375 120.113281 L 137.042969 101.101562 L 137.042969 74.417969 Z M 101.632812 131.84375 L 80.050781 149.554688 L 80.050781 147.984375 L 104.738281 127.699219 Z M 78.441406 115.789062 L 70.960938 121.960938 L 70.960938 138.222656 L 57.058594 149.554688 L 57.058594 147.984375 L 69.644531 137.675781 L 69.644531 121.410156 L 78.410156 114.199219 Z M 101.347656 134.59375 L 112.96875 119.113281 L 112.96875 135.703125 L 101.320312 145.253906 Z M 56.796875 134.871094 L 68.640625 120.441406 L 68.640625 136.710938 L 56.796875 146.382812 Z M 124.414062 64.292969 L 101.320312 83.261719 L 101.320312 119.164062 L 91.667969 127.128906 L 91.667969 73.8125 L 79.808594 64.292969 L 56.796875 83.261719 L 56.796875 119.484375 L 41.96875 131.609375 L 35.617188 126.414062 L 35.617188 82.960938 L 24.007812 98.617188 L 24.007812 135.703125 L 37.054688 146.382812 L 79.808594 111.226562 L 79.808594 146.382812 L 136.0625 100.121094 L 136.0625 73.605469 Z M 112.96875 73.738281 L 124.1875 82.511719 L 124.1875 100.464844 L 112.96875 109.671875 Z M 68.640625 73.8125 L 68.871094 73.8125 L 79.808594 82.878906 L 79.808594 100.523438 L 68.640625 109.703125 Z M 35.617188 73.738281 L 35.617188 82.960938 L 24.007812 92.511719 L 18.457031 97.0625 L 24.007812 83.195312 L 47.003906 64.292969 L 56.519531 72.101562 L 45.214844 81.367188 Z M 58.660156 130.496094 L 38.230469 147.339844 L 39.179688 148.132812 L 54.546875 135.492188 Z M 58.660156 130.496094 " fill-opacity="1" fill-rule="nonzero"/></svg>