<svg xmlns="http://www.w3.org/2000/svg" xmlns:xlink="http://www.w3.org/1999/xlink" width="304" zoomAndPan="magnify" viewBox="0 0 228 237" height="316" preserveAspectRatio="xMidYMid meet" version="1.0"><path fill="#ffffff" d="M 6.308594 60.699219 L 221.691406 60.699219 L 221.691406 6.191406 L 6.308594 6.191406 Z M 20.953125 29.875 L 30.191406 29.875 L 30.191406 34.988281 L 20.953125 34.988281 L 20.953125 49.570312 L 14.042969 49.570312 L 14.042969 16.945312 L 30.789062 16.945312 L 30.789062 22.054688 L 20.953125 22.054688 Z M 157.40625 29.875 L 167.246094 29.875 L 167.246094 34.988281 L 157.332031 34.988281 L 157.332031 44.234375 L 168.445312 44.234375 L 168.445312 49.648438 L 150.496094 49.648438 L 150.496094 16.945312 L 168.144531 16.945312 L 168.144531 22.054688 L 157.332031 22.054688 Z M 82.910156 16.945312 L 104.761719 16.945312 L 104.761719 22.355469 L 97.253906 22.355469 L 97.253906 49.570312 L 90.042969 49.570312 L 90.042969 22.355469 L 82.835938 22.355469 Z M 170.550781 16.945312 L 190 16.945312 L 190 22.355469 C 190 24.914062 177.984375 40.699219 177.15625 44.234375 L 190.601562 44.234375 L 190.601562 47.84375 C 191.277344 46.789062 194.582031 34.535156 195.183594 32.355469 C 192.476562 33.785156 190.074219 34.609375 187.222656 31.003906 " fill-opacity="1" fill-rule="nonzero"/><path fill="#1f5ea1" d="M 109.71875 209.253906 L 109.792969 71.449219 L 17.875 71.523438 Z M 109.71875 209.253906 " fill-opacity="1" fill-rule="nonzero"/><path fill="#e1251b" d="M 117.90625 209.253906 L 209.75 71.449219 L 117.90625 71.449219 Z M 117.90625 209.253906 " fill-opacity="1" fill-rule="nonzero"/><path fill="#1f5ea1" d="M 0 67.539062 L 113.398438 237.371094 L 114 237.371094 L 228 67.238281 L 228 -0.121094 L 0 -0.121094 Z M 6.308594 6.191406 L 221.691406 6.191406 L 221.691406 60.699219 L 6.308594 60.699219 Z M 113.625 226.394531 L 6.15625 65.285156 L 221.390625 65.210938 Z M 113.625 226.394531 " fill-opacity="1" fill-rule="nonzero"/><path fill="#ffffff" d="M 113.550781 226.394531 L 221.390625 65.210938 L 6.15625 65.285156 Z M 17.875 71.523438 L 109.792969 71.523438 L 109.71875 209.332031 Z M 117.90625 71.449219 L 209.75 71.449219 L 117.90625 209.253906 Z M 117.90625 71.449219 " fill-opacity="1" fill-rule="nonzero"/><path fill="#1f5ea1" d="M 200.136719 16.945312 C 198.785156 16.945312 197.734375 22.957031 197.359375 24.3125 C 196.609375 27.167969 195.78125 29.574219 195.105469 32.28125 C 194.582031 34.535156 191.203125 46.789062 190.601562 47.765625 L 190.601562 44.234375 L 177.082031 44.234375 C 177.910156 40.699219 189.925781 24.914062 189.925781 22.355469 L 189.925781 16.945312 L 170.550781 16.945312 L 170.550781 22.355469 L 183.089844 22.355469 C 181.738281 24.914062 169.949219 43.257812 169.949219 43.933594 L 169.949219 49.648438 L 197.210938 49.648438 L 199.011719 42.429688 L 208.25 42.429688 C 208.324219 43.707031 209.375 49.648438 210.652344 49.648438 L 216.960938 49.648438 L 208.097656 17.019531 Z M 203.519531 23.859375 L 206.972656 37.316406 L 200.214844 37.316406 Z M 203.519531 23.859375 " fill-opacity="1" fill-rule="nonzero"/><path fill="#1f5ea1" d="M 76.300781 33.707031 C 77.953125 31.453125 80.507812 32.355469 80.507812 26.191406 L 80.507812 25.363281 C 80.507812 17.621094 76.148438 17.019531 68.566406 17.019531 L 60.453125 17.019531 L 60.453125 49.570312 L 67.363281 49.570312 L 67.363281 36.113281 L 70.59375 36.113281 C 76.601562 36.113281 72.09375 49.570312 75.097656 49.570312 L 81.40625 49.570312 C 81.40625 47.617188 80.804688 46.867188 80.804688 44.761719 C 80.804688 43.257812 80.957031 41.078125 80.804688 39.648438 C 80.429688 36.265625 79.980469 33.933594 76.300781 33.632812 M 67.589844 22.355469 L 70.894531 22.355469 C 72.921875 22.355469 73.898438 23.859375 73.898438 25.964844 L 73.898438 26.265625 C 73.898438 29.648438 72.546875 31.078125 69.089844 31.078125 L 67.589844 31.078125 Z M 67.589844 22.355469 " fill-opacity="1" fill-rule="nonzero"/><path fill="#1f5ea1" d="M 34.09375 34.308594 C 34.09375 41.980469 35.671875 49.871094 43.105469 49.871094 L 47.3125 49.871094 C 53.546875 49.871094 56.023438 43.480469 56.023438 37.015625 L 56.023438 27.769531 C 56.023438 21.078125 52.117188 16.71875 45.285156 16.71875 L 44.984375 16.71875 C 36.796875 16.71875 34.246094 22.054688 34.246094 30.175781 Z M 34.09375 34.308594 " fill-opacity="1" fill-rule="nonzero"/><path fill="#1f5ea1" d="M 108.292969 49.570312 C 109.570312 49.570312 110.546875 43.78125 110.695312 42.355469 L 120.308594 42.355469 L 121.886719 49.496094 L 129.019531 49.496094 C 128.945312 46.113281 125.265625 36.792969 124.515625 32.730469 C 124.0625 30.402344 123.011719 27.019531 122.261719 24.460938 C 121.886719 22.957031 120.683594 16.792969 119.480469 16.792969 L 111.296875 16.792969 L 102.210938 49.570312 Z M 115.578125 23.785156 L 118.957031 37.316406 L 112.046875 37.316406 Z M 115.578125 23.785156 " fill-opacity="1" fill-rule="nonzero"/><path fill="#1f5ea1" d="M 157.40625 22.054688 L 168.144531 22.054688 L 168.144531 16.945312 L 150.496094 16.945312 L 150.496094 49.570312 L 168.445312 49.570312 L 168.445312 44.234375 L 157.40625 44.234375 L 157.40625 34.910156 L 167.246094 34.910156 L 167.246094 29.800781 L 157.40625 29.800781 Z M 157.40625 22.054688 " fill-opacity="1" fill-rule="nonzero"/><path fill="#1f5ea1" d="M 20.953125 22.054688 L 30.789062 22.054688 L 30.789062 16.945312 L 14.042969 16.945312 L 14.042969 49.570312 L 20.953125 49.570312 L 20.953125 34.910156 L 30.191406 34.910156 L 30.191406 29.800781 L 20.953125 29.800781 Z M 20.953125 22.054688 " fill-opacity="1" fill-rule="nonzero"/><path fill="#1f5ea1" d="M 82.910156 22.355469 L 90.042969 22.355469 L 90.042969 49.570312 L 97.253906 49.570312 L 97.253906 22.355469 L 104.6875 22.355469 L 104.6875 16.945312 L 82.910156 16.945312 Z M 82.910156 22.355469 " fill-opacity="1" fill-rule="nonzero"/><path fill="#2a6aaa" d="M 131.347656 49.570312 L 148.394531 49.570312 L 148.394531 43.632812 L 138.558594 43.632812 L 138.558594 16.945312 L 131.347656 16.945312 Z M 131.347656 49.570312 " fill-opacity="1" fill-rule="nonzero"/><path fill="#ffffff" d="M 41.003906 30.402344 L 41.003906 34.308594 C 41.003906 38.21875 41.003906 44.835938 44.609375 44.835938 L 45.511719 44.835938 C 48.289062 44.835938 49.113281 41.078125 49.113281 38.21875 L 49.113281 29.800781 C 49.113281 26.339844 48.8125 21.679688 45.511719 21.679688 L 44.910156 21.679688 C 41.378906 21.679688 41.003906 26.71875 41.003906 30.402344 " fill-opacity="1" fill-rule="nonzero"/><path fill="#ffffff" d="M 67.589844 31.003906 L 69.089844 31.003906 C 72.46875 31.003906 73.898438 29.648438 73.898438 26.191406 L 73.898438 25.890625 C 73.898438 23.859375 72.921875 22.28125 70.894531 22.28125 L 67.589844 22.28125 Z M 67.589844 31.003906 " fill-opacity="1" fill-rule="nonzero"/><path fill="#ffffff" d="M 112.046875 37.242188 L 118.957031 37.316406 L 115.578125 23.785156 Z M 112.046875 37.242188 " fill-opacity="1" fill-rule="nonzero"/><path fill="#ffffff" d="M 200.214844 37.316406 L 206.972656 37.316406 L 203.519531 23.859375 Z M 200.214844 37.316406 " fill-opacity="1" fill-rule="nonzero"/></svg>