<svg xmlns="http://www.w3.org/2000/svg" xmlns:xlink="http://www.w3.org/1999/xlink" width="500" zoomAndPan="magnify" viewBox="0 0 375 374.999991" height="500" preserveAspectRatio="xMidYMid meet" version="1.0"><path fill="#070308" d="M 187.5 375 C 232.425781 356.023438 270.824219 325.199219 297.75 284.398438 C 323.625 245.25 338.625 198.75 338.625 150.976562 L 338.625 0 L 36.375 0 L 36.375 150.976562 C 36.375 198.75 51.375 245.25 77.25 284.398438 C 104.175781 325.199219 142.574219 356.023438 187.5 375 Z M 187.5 375 " fill-opacity="1" fill-rule="nonzero"/><path fill="#c3281e" d="M 176.699219 11.101562 L 48 11.101562 L 48 125.550781 L 176.699219 125.550781 Z M 327 45.449219 L 187.5 45.449219 L 187.5 90.898438 L 327 90.898438 Z M 83.699219 272.773438 L 291.300781 272.773438 C 300.226562 258.449219 307.648438 243.226562 313.351562 227.324219 L 61.648438 227.324219 C 67.351562 243.226562 74.773438 258.449219 83.699219 272.773438 Z M 48 136.425781 L 48 150.601562 C 48 161.101562 48.75 171.601562 50.25 181.875 L 324.75 181.875 C 326.25 171.523438 327 161.101562 327 150.601562 L 327 136.425781 Z M 187.5 362.550781 C 212.398438 351.898438 235.050781 336.675781 254.476562 318.300781 L 120.523438 318.300781 C 139.949219 336.75 162.601562 351.898438 187.5 362.550781 Z M 187.5 362.550781 " fill-opacity="1" fill-rule="nonzero"/><path fill="#ffffff" d="M 113.851562 100.125 L 113.851562 92.25 C 108.824219 94.574219 102.675781 95.324219 97.199219 94.648438 C 81.898438 92.699219 72.074219 80.398438 72.074219 65.175781 C 72.074219 51.226562 81.074219 38.101562 95.25 38.101562 C 100.949219 38.101562 106.351562 40.800781 108.75 47.398438 C 111 42.449219 111.300781 31.800781 109.425781 27.148438 C 108.148438 27 106.800781 27 105.449219 27 C 99.898438 27 94.5 28.050781 90 29.625 C 79.5 33.226562 70.574219 41.25 65.25 51 C 61.648438 57.601562 60.074219 63.523438 55.949219 63.523438 C 60.675781 84.148438 75.523438 101.324219 97.574219 102.523438 C 102.976562 102.675781 108.375 101.925781 113.851562 100.125 Z M 105.449219 24.675781 C 122.925781 24.675781 134.851562 34.273438 134.851562 51.824219 C 134.851562 58.351562 132.824219 64.800781 128.324219 69.449219 L 136.574219 69.449219 C 145.800781 60.074219 144.148438 48.375 150.375 48.375 C 141.75 26.851562 129.75 16.425781 102.898438 17.101562 C 94.800781 17.175781 90.898438 17.25 84.226562 14.851562 L 89.101562 27.523438 C 93.675781 25.875 99.523438 24.675781 105.449219 24.675781 Z M 99.675781 104.699219 C 96.300781 104.699219 92.851562 104.324219 89.550781 103.5 C 89.550781 110.773438 87.898438 114.074219 84.824219 116.324219 C 88.648438 120.300781 98.550781 122.023438 106.726562 119.699219 C 101.398438 116.398438 99.675781 111.148438 99.675781 104.699219 Z M 154.648438 67.425781 C 152.851562 69.675781 150.375 71.625 144.375 71.625 L 126.226562 71.625 L 126.226562 43.875 L 131.699219 43.875 C 130.949219 40.875 129.601562 38.175781 128.023438 35.773438 L 125.625 35.773438 C 120.976562 35.773438 116.625 35.101562 112.050781 33.375 L 116.023438 43.800781 L 116.023438 71.476562 C 120.898438 73.050781 124.199219 75.898438 127.726562 79.574219 L 138.75 79.574219 C 144.976562 79.574219 147.449219 83.773438 146.925781 89.550781 C 157.949219 83.773438 156.074219 71.023438 154.648438 67.425781 Z M 126.226562 104.851562 L 126.226562 98.25 C 123.449219 93.976562 120.074219 89.101562 116.101562 85.875 L 116.101562 103.648438 C 116.101562 110.101562 114.375 114.074219 111.300781 116.175781 C 115.125 120.148438 125.023438 121.875 133.199219 119.550781 C 127.875 116.398438 126.226562 110.324219 126.226562 104.851562 Z M 165.449219 30.300781 C 163.574219 33.675781 160.125 35.773438 153.824219 35.773438 L 146.398438 35.773438 C 147.976562 38.25 149.398438 40.949219 150.824219 43.875 C 156.75 43.875 158.476562 50.175781 157.648438 53.851562 C 168.976562 48.074219 166.875 33.898438 165.449219 30.300781 Z M 142.125 101.25 C 136.800781 95.398438 131.625 85.273438 122.175781 77.476562 C 115.648438 72.074219 106.875 70.949219 99.601562 70.949219 L 99.601562 40.949219 C 96.148438 39.976562 92.851562 40.199219 89.476562 41.101562 L 89.476562 90.375 C 92.699219 91.726562 96.148438 92.550781 99.601562 92.699219 L 99.601562 79.273438 C 111.601562 79.273438 117.074219 82.425781 123.148438 90.226562 C 129.601562 98.476562 137.925781 114.601562 145.800781 120.074219 C 150.449219 119.175781 160.648438 111.898438 161.476562 102.523438 C 155.25 107.023438 147.976562 107.625 142.125 101.25 Z M 142.125 101.25 " fill-opacity="1" fill-rule="nonzero"/></svg>