<svg xmlns="http://www.w3.org/2000/svg" xmlns:xlink="http://www.w3.org/1999/xlink" width="565" zoomAndPan="magnify" viewBox="0 0 423.75 263.99999" height="352" preserveAspectRatio="xMidYMid meet" version="1.0"><defs><clipPath id="810eda4689"><path d="M 72 0.078125 L 208 0.078125 L 208 207 L 72 207 Z M 72 0.078125 " clip-rule="nonzero"/></clipPath><clipPath id="8eed068909"><path d="M 216 0.078125 L 352 0.078125 L 352 207 L 216 207 Z M 216 0.078125 " clip-rule="nonzero"/></clipPath><clipPath id="917ec5c100"><path d="M 222 79 L 423.5 79 L 423.5 214 L 222 214 Z M 222 79 " clip-rule="nonzero"/></clipPath><clipPath id="d21f811641"><path d="M 6 218 L 417 218 L 417 263.921875 L 6 263.921875 Z M 6 218 " clip-rule="nonzero"/></clipPath></defs><g clip-path="url(#810eda4689)"><path fill="#1f150a" d="M 207.253906 64.128906 L 207.253906 206.617188 L 72.257812 71.546875 L 143.464844 0.265625 Z M 207.253906 64.128906 " fill-opacity="1" fill-rule="evenodd"/></g><path fill="#f4cf16" d="M 200.804688 190.804688 L 81.476562 71.546875 L 143.464844 9.484375 L 200.804688 66.824219 Z M 200.804688 190.804688 " fill-opacity="1" fill-rule="nonzero"/><path fill="#1f150a" d="M 66.1875 79.417969 L 69.484375 82.792969 L 200.582031 213.8125 L 68.210938 213.8125 L 0 145.605469 Z M 66.1875 79.417969 " fill-opacity="1" fill-rule="evenodd"/><path fill="#f4cf16" d="M 184.914062 207.292969 L 70.984375 207.292969 L 9.21875 145.53125 L 66.1875 88.636719 Z M 184.914062 207.292969 " fill-opacity="1" fill-rule="nonzero"/><g clip-path="url(#8eed068909)"><path fill="#1f150a" d="M 216.171875 64.128906 L 216.171875 206.617188 L 351.242188 71.546875 L 279.960938 0.265625 Z M 216.171875 64.128906 " fill-opacity="1" fill-rule="evenodd"/></g><path fill="#f4cf16" d="M 222.695312 190.804688 L 222.695312 66.824219 L 279.960938 9.484375 L 342.023438 71.546875 Z M 222.695312 190.804688 " fill-opacity="1" fill-rule="nonzero"/><g clip-path="url(#917ec5c100)"><path fill="#1f150a" d="M 222.769531 213.8125 L 355.289062 213.8125 L 423.5 145.605469 L 360.613281 82.792969 L 357.3125 79.417969 L 353.941406 82.792969 Z M 222.769531 213.8125 " fill-opacity="1" fill-rule="evenodd"/></g><path fill="#f4cf16" d="M 352.515625 207.292969 L 238.585938 207.292969 L 357.3125 88.636719 L 414.28125 145.53125 Z M 352.515625 207.292969 " fill-opacity="1" fill-rule="nonzero"/><g clip-path="url(#d21f811641)"><path fill="#1f150a" d="M 58.464844 234.652344 L 63.113281 234.652344 C 65.0625 234.652344 66.410156 234.953125 67.160156 235.625 C 67.835938 236.226562 68.210938 237.050781 68.210938 238.25 C 68.210938 239.074219 67.910156 239.675781 67.535156 240.273438 C 67.085938 240.875 66.484375 241.246094 65.734375 241.398438 C 64.386719 241.699219 63.335938 241.847656 62.886719 241.847656 L 58.390625 241.847656 L 58.390625 234.652344 Z M 58.464844 263.136719 L 58.464844 248.667969 L 59.363281 248.667969 C 60.339844 248.667969 61.238281 248.96875 61.988281 249.492188 C 62.511719 249.941406 63.1875 250.84375 63.863281 252.265625 L 69.558594 263.210938 L 81.703125 263.210938 L 76.53125 252.867188 C 76.230469 252.339844 75.78125 251.59375 75.03125 250.617188 C 74.28125 249.644531 73.679688 249.042969 73.308594 248.742188 C 72.707031 248.292969 71.808594 247.84375 70.535156 247.394531 C 72.109375 247.019531 73.382812 246.570312 74.28125 245.96875 C 75.707031 245.144531 76.828125 243.945312 77.652344 242.449219 C 78.480469 241.023438 78.929688 239.375 78.929688 237.351562 C 78.929688 235.101562 78.402344 233.226562 77.355469 231.652344 C 76.230469 230.078125 74.878906 228.957031 73.082031 228.429688 C 71.359375 227.832031 68.808594 227.53125 65.511719 227.53125 L 47.671875 227.53125 L 47.671875 263.210938 L 58.464844 263.210938 Z M 87.25 263.136719 L 97.96875 263.136719 L 97.96875 227.457031 L 87.25 227.457031 Z M 128.023438 253.765625 C 126.976562 254.964844 125.402344 255.566406 123.378906 255.566406 C 121.277344 255.566406 119.628906 254.738281 118.429688 253.316406 C 117.304688 251.890625 116.707031 249.191406 116.707031 245.21875 C 116.707031 241.996094 117.15625 239.675781 118.128906 238.175781 C 119.480469 236.152344 121.277344 235.175781 123.753906 235.175781 C 124.800781 235.175781 125.777344 235.476562 126.675781 235.851562 C 127.5 236.300781 128.25 236.976562 128.847656 237.800781 C 129.222656 238.324219 129.597656 239.148438 129.898438 240.199219 L 139.34375 238.023438 C 138.070312 234.277344 136.269531 231.503906 133.722656 229.628906 C 131.246094 227.832031 127.800781 226.929688 123.453125 226.929688 C 117.832031 226.929688 113.558594 228.503906 110.484375 231.652344 C 107.488281 234.800781 105.914062 239.375 105.914062 245.296875 C 105.914062 249.71875 106.738281 253.316406 108.460938 256.164062 C 110.261719 259.011719 112.285156 260.960938 114.683594 262.085938 C 117.082031 263.285156 120.152344 263.808594 123.902344 263.808594 C 126.976562 263.808594 129.597656 263.359375 131.621094 262.460938 C 133.570312 261.5625 135.296875 260.136719 136.71875 258.414062 C 138.070312 256.539062 139.042969 254.367188 139.71875 251.667969 L 130.273438 248.667969 C 129.824219 250.84375 129.074219 252.566406 128.023438 253.765625 M 146.914062 263.136719 L 157.632812 263.136719 L 157.632812 227.457031 L 146.914062 227.457031 Z M 189.488281 249.269531 C 189.488281 251.21875 188.964844 252.792969 187.914062 253.839844 C 186.863281 254.964844 185.441406 255.488281 183.566406 255.488281 C 181.691406 255.488281 180.269531 254.890625 179.21875 253.839844 C 178.167969 252.714844 177.644531 251.21875 177.644531 249.269531 L 177.644531 227.457031 L 167 227.457031 L 167 248.742188 C 167 250.542969 167.300781 252.492188 167.976562 254.738281 C 168.351562 256.164062 169.175781 257.589844 170.300781 258.863281 C 171.425781 260.210938 172.625 261.261719 173.972656 261.9375 C 175.320312 262.683594 176.96875 263.136719 178.996094 263.359375 C 180.941406 263.585938 182.816406 263.660156 184.464844 263.660156 C 187.464844 263.660156 189.9375 263.285156 191.960938 262.460938 C 193.460938 261.859375 194.960938 260.886719 196.234375 259.460938 C 197.582031 258.113281 198.632812 256.464844 199.234375 254.589844 C 199.90625 252.714844 200.132812 250.691406 200.132812 248.59375 L 200.132812 227.304688 L 189.5625 227.304688 L 189.5625 249.269531 Z M 208.675781 263.136719 L 217.445312 263.136719 L 217.445312 235.925781 L 224.191406 263.136719 L 232.0625 263.136719 L 238.808594 235.925781 L 238.808594 263.136719 L 247.578125 263.136719 L 247.578125 227.457031 L 233.488281 227.457031 L 228.089844 249.191406 L 222.695312 227.457031 L 208.601562 227.457031 L 208.601562 263.136719 Z M 267.59375 249.492188 L 271.339844 236.675781 L 275.238281 249.492188 Z M 279.058594 263.136719 L 290.304688 263.136719 L 277.335938 227.457031 L 265.644531 227.457031 L 252.601562 263.136719 L 263.542969 263.136719 L 265.195312 257.214844 L 277.410156 257.214844 Z M 313.089844 263.136719 L 342.324219 263.136719 L 342.324219 255.039062 L 323.808594 255.039062 L 323.808594 247.992188 L 340.449219 247.992188 L 340.449219 240.722656 L 323.808594 240.722656 L 323.808594 235.027344 L 341.796875 235.027344 L 341.796875 227.382812 L 313.089844 227.382812 Z M 349.292969 263.136719 L 359.1875 263.136719 L 359.1875 253.164062 L 349.292969 253.164062 Z M 388.195312 253.765625 C 387.148438 254.964844 385.648438 255.566406 383.625 255.566406 C 381.523438 255.566406 379.875 254.738281 378.675781 253.316406 C 377.476562 251.890625 376.878906 249.191406 376.878906 245.21875 C 376.878906 241.996094 377.402344 239.675781 378.375 238.175781 C 379.652344 236.152344 381.523438 235.175781 383.921875 235.175781 C 385.046875 235.175781 385.949219 235.476562 386.921875 235.851562 C 387.746094 236.300781 388.496094 236.976562 389.09375 237.800781 C 389.394531 238.324219 389.84375 239.148438 390.144531 240.199219 L 399.589844 238.023438 C 398.390625 234.277344 396.589844 231.503906 394.042969 229.628906 C 391.570312 227.832031 388.121094 226.929688 383.699219 226.929688 C 378.152344 226.929688 373.804688 228.503906 370.804688 231.652344 C 367.808594 234.800781 366.234375 239.375 366.234375 245.296875 C 366.234375 249.71875 367.132812 253.316406 368.855469 256.164062 C 370.582031 259.011719 372.679688 260.960938 375.078125 262.085938 C 377.476562 263.285156 380.550781 263.808594 384.296875 263.808594 C 387.371094 263.808594 389.996094 263.359375 391.945312 262.460938 C 393.96875 261.5625 395.617188 260.136719 397.039062 258.414062 C 398.390625 256.539062 399.4375 254.367188 400.039062 251.667969 L 390.667969 248.667969 C 389.996094 250.84375 389.246094 252.566406 388.195312 253.765625 M 406.859375 263.136719 L 416.753906 263.136719 L 416.753906 253.164062 L 406.859375 253.164062 Z M 179.820312 225.507812 L 183.640625 225.507812 L 191.8125 218.160156 L 183.417969 218.160156 Z M 29.007812 253.765625 C 28.035156 254.964844 26.460938 255.566406 24.4375 255.566406 C 22.335938 255.566406 20.6875 254.738281 19.488281 253.316406 C 18.363281 251.890625 17.765625 249.191406 17.765625 245.21875 C 17.765625 241.996094 18.214844 239.675781 19.1875 238.175781 C 20.539062 236.152344 22.335938 235.175781 24.808594 235.175781 C 25.859375 235.175781 26.835938 235.476562 27.734375 235.851562 C 28.558594 236.300781 29.308594 236.976562 29.90625 237.800781 C 30.28125 238.324219 30.65625 239.148438 30.957031 240.199219 L 40.402344 238.023438 C 39.125 234.277344 37.328125 231.503906 34.78125 229.628906 C 32.304688 227.832031 28.859375 226.929688 24.511719 226.929688 C 18.890625 226.929688 14.617188 228.503906 11.542969 231.652344 C 8.546875 234.800781 6.972656 239.375 6.972656 245.296875 C 6.972656 249.71875 7.796875 253.316406 9.519531 256.164062 C 11.316406 259.011719 13.34375 260.960938 15.742188 262.085938 C 18.140625 263.285156 21.210938 263.808594 24.960938 263.808594 C 28.035156 263.808594 30.65625 263.359375 32.679688 262.460938 C 34.628906 261.5625 36.355469 260.136719 37.703125 258.414062 C 39.050781 256.539062 40.101562 254.367188 40.699219 251.667969 L 31.257812 248.667969 C 30.882812 250.84375 30.058594 252.566406 29.007812 253.765625 " fill-opacity="1" fill-rule="evenodd"/></g></svg>