<svg xmlns="http://www.w3.org/2000/svg" xmlns:xlink="http://www.w3.org/1999/xlink" width="296" zoomAndPan="magnify" viewBox="0 0 222 257.99999" height="344" preserveAspectRatio="xMidYMid meet" version="1.0"><defs><clipPath id="5ba4380455"><path d="M 0 0 L 222 0 L 222 257.929688 L 0 257.929688 Z M 0 0 " clip-rule="nonzero"/></clipPath></defs><path fill="#ffffff" d="M 111.046875 4.019531 C 82.96875 38.804688 46.71875 52.386719 2.558594 43.8125 C 1.542969 157.664062 54.078125 211.445312 111.074219 254.746094 C 167.460938 211.996094 220.953125 157.316406 219.476562 43.902344 C 173.605469 52.414062 139.382812 39.210938 111.046875 4.019531 " fill-opacity="1" fill-rule="nonzero"/><g clip-path="url(#5ba4380455)"><path stroke-linecap="butt" transform="matrix(0.289765, 0, 0, -0.28962, 219.040446, -28.359289)" fill="none" stroke-linejoin="miter" d="M -372.693916 -111.797569 C -469.593633 -231.903735 -594.695103 -278.799765 -747.095116 -249.194707 C -750.600114 -642.301313 -569.297347 -827.99718 -372.599551 -977.506091 C -178.004753 -829.898917 6.6008 -641.100926 1.505072 -249.50492 C -156.799515 -278.894177 -274.90447 -233.306435 -372.693916 -111.797569 Z M -372.693916 -111.797569 " stroke="#8e0927" stroke-width="6.705" stroke-opacity="1" stroke-miterlimit="2.613"/></g><path fill="#00613c" d="M 195.308594 131.714844 C 182.878906 165.773438 158.335938 201.164062 110.988281 239.65625 C 64.21875 201.367188 39.675781 165.6875 27.128906 131.714844 L 195.308594 131.714844 " fill-opacity="1" fill-rule="nonzero"/><path fill="#870a28" d="M 14.757812 57.773438 C 72.304688 58.382812 88.847656 46.769531 111.015625 22.152344 C 134.949219 46.042969 150.828125 58.496094 207.304688 57.773438 C 207.074219 80.394531 204.871094 103.042969 197.191406 126.269531 L 25.214844 126.269531 C 17.335938 102.78125 15.015625 80.046875 14.757812 57.773438 " fill-opacity="1" fill-rule="nonzero"/><path fill="#ffffff" d="M 83.980469 62.753906 C 85.894531 63.363281 89.746094 62.058594 91.832031 66.113281 C 92.875 68.140625 94.730469 70.371094 95.339844 74.660156 L 107.25 72.804688 C 105.945312 68.113281 106.871094 67.996094 105.714844 64.347656 C 113.074219 63.652344 120.230469 62.058594 126.894531 58.527344 C 130.167969 61.25 133.066406 63.566406 136.949219 65.128906 C 122.171875 73.382812 123.679688 80.074219 124.78125 84.449219 L 130.605469 91.339844 C 130.371094 76.886719 139.675781 67.679688 151.265625 64.871094 C 143.355469 60.582031 135.703125 55.746094 128.488281 50.039062 C 115.304688 54.675781 99.050781 59.917969 92.210938 54.789062 L 83.980469 62.753906 " fill-opacity="1" fill-rule="nonzero"/><path fill="#ffffff" d="M 72.101562 96.410156 C 72.070312 96.871094 82.070312 91.371094 84.53125 92.558594 L 83.605469 86.878906 C 95.3125 81.636719 107.21875 79.4375 123.417969 82.128906 C 123.535156 79.582031 123.445312 77.671875 124.605469 75.121094 C 119.214844 74.167969 113.855469 73.964844 108.351562 73.527344 C 104.527344 73.875 98.875 74.484375 94.730469 75.789062 C 90.585938 77.089844 86.097656 78.859375 82.300781 79.234375 C 78.476562 79.609375 76.648438 78.394531 73.171875 77.527344 C 70.304688 80.828125 68.625 82.277344 64.304688 86.128906 C 67.8125 85.316406 73.058594 86.5625 72.304688 94.585938 L 72.101562 96.410156 " fill-opacity="1" fill-rule="nonzero"/><path fill="#ffffff" d="M 134.980469 76.917969 C 146.367188 81.144531 146.65625 77.179688 151.554688 76.773438 L 154.453125 82.421875 C 139.414062 86.878906 132.371094 104.777344 143.410156 114.972656 C 132.660156 117.058594 126.285156 103.679688 134.863281 87.371094 C 135.355469 86.417969 134.804688 84.910156 135.386719 83.957031 L 132.199219 83.117188 C 132.777344 80.652344 133.878906 79.261719 134.980469 76.917969 " fill-opacity="1" fill-rule="nonzero"/><path fill="#ffffff" d="M 141.617188 93.339844 C 140.371094 95.28125 139.269531 97.886719 139.125 100.78125 C 144.976562 102.808594 148.308594 106.082031 150.597656 113.875 C 150.65625 114.105469 150.773438 114.335938 150.859375 114.566406 C 153.8125 122.183594 168.476562 122.386719 171.027344 119.808594 C 171.664062 116.855469 170.792969 115.03125 168.128906 114.277344 C 165.058594 114.308594 165.40625 117.378906 162.59375 116.625 C 159.144531 115.40625 157.234375 113.902344 156.421875 111.007812 C 155.175781 106.691406 157.640625 102.027344 164.246094 100.464844 L 160.941406 95.917969 C 154.394531 96.320312 147.816406 96.320312 141.617188 93.339844 " fill-opacity="1" fill-rule="nonzero"/><path fill="#ffffff" d="M 132.632812 90.734375 L 131.125 90.328125 L 130.835938 91.71875 L 130.140625 92.007812 L 128.199219 89.660156 C 121.652344 88.878906 115.128906 88.820312 108.582031 89.515625 L 108.175781 97.105469 C 115.914062 96.496094 123.417969 96.816406 130.402344 98.058594 C 130.953125 95.453125 131.445312 93.019531 132.632812 90.734375 " fill-opacity="1" fill-rule="nonzero"/><path fill="#ffffff" d="M 94.847656 84.359375 L 94.324219 122.445312 L 105.421875 121.894531 L 105.945312 115.8125 L 114.144531 115.292969 L 115.476562 116.625 C 109.652344 132.640625 113.015625 142.34375 125.535156 145.703125 L 125.792969 144.109375 C 117.507812 138.289062 116.289062 123.574219 127.128906 115.8125 L 123.679688 108.949219 C 117.246094 107.242188 111.074219 111.902344 105.945312 108.429688 L 107.800781 82.246094 C 103.773438 82.59375 99.425781 82.421875 94.847656 84.359375 " fill-opacity="1" fill-rule="nonzero"/><path fill="#ffffff" d="M 80.824219 156.273438 L 79.488281 166.324219 C 94.527344 169.566406 111.015625 170.320312 130.285156 163.6875 C 140.078125 160.328125 149.582031 156.738281 159.636719 158.386719 C 157.726562 155.492188 167.144531 137.765625 175.257812 148.078125 L 179.75 148.339844 C 177.71875 144.285156 177.808594 142.082031 183.980469 138.546875 C 177.199219 137.765625 172.242188 138.289062 167.578125 134.582031 C 147.003906 153.78125 115.449219 163.515625 80.824219 156.273438 " fill-opacity="1" fill-rule="nonzero"/><path fill="#ffffff" d="M 122.375 122.96875 C 120.664062 125.949219 119.855469 127.773438 120.257812 130.757812 C 124.578125 131.164062 128.375 133.277344 130.054688 136.433594 L 130.199219 122.417969 L 122.375 122.96875 " fill-opacity="1" fill-rule="nonzero"/><path fill="#ffffff" d="M 94.617188 131.335938 L 93.398438 157.34375 C 97.484375 157.953125 100.640625 158.097656 104.378906 158.011719 L 105.164062 131.308594 L 94.617188 131.335938 " fill-opacity="1" fill-rule="nonzero"/><path fill="#ffffff" d="M 93.136719 169.105469 C 97.773438 169.683594 101.773438 169.453125 105.308594 169.625 C 106.265625 185.4375 112.234375 191.808594 125.476562 196.007812 C 128.140625 196.847656 131.386719 197.746094 133.328125 198.964844 C 101.742188 201.917969 101.832031 181.617188 87.71875 197.109375 L 83.863281 191.695312 C 88.617188 187.234375 91.398438 178.515625 93.136719 169.105469 " fill-opacity="1" fill-rule="nonzero"/><path fill="#ffffff" d="M 93.339844 91.746094 C 74.214844 93.601562 56.773438 104.429688 41.820312 128.296875 C 40.660156 129.976562 38.3125 132.582031 37.878906 133.074219 C 39.820312 133.421875 41.269531 134.929688 42.167969 135.769531 C 49.90625 149.785156 58.394531 157.894531 67.175781 162.5 C 68.421875 159.226562 68.679688 155.953125 69.144531 152.683594 C 63.699219 150.25 51.902344 139.589844 53.035156 127.917969 C 58.683594 113.0625 76.679688 100.144531 93.339844 100.40625 L 93.339844 91.746094 " fill-opacity="1" fill-rule="nonzero"/><path fill="#ffffff" d="M 72.738281 108.371094 C 76.097656 105.445312 79.722656 103.359375 83.921875 102.984375 L 84.328125 124.761719 C 93.371094 122.589844 103.367188 122.417969 112.40625 122.996094 L 111.652344 130.0625 C 102.410156 130.265625 92.179688 130.265625 82.765625 133.394531 C 81.316406 147.554688 80.070312 161.109375 75.898438 174.664062 C 82.792969 176.953125 86.242188 179.964844 87.894531 183.324219 L 84.734375 189.230469 C 80.328125 183.179688 76.011719 179.964844 67.8125 181.382812 L 63.871094 177.851562 C 72.507812 161.253906 71.550781 129.078125 72.738281 108.371094 " fill-opacity="1" fill-rule="nonzero"/><path fill="#ffffff" d="M 88.617188 197.082031 C 89.515625 196.792969 92.152344 201.800781 96.671875 203.074219 C 96.90625 203.277344 99.832031 202.960938 98.351562 202.382812 C 96.875 201.800781 94.121094 198.066406 92.441406 193.632812 C 92.472656 193.632812 87.746094 197.371094 88.617188 197.082031 " fill-opacity="1" fill-rule="nonzero"/></svg>