<svg xmlns="http://www.w3.org/2000/svg" xmlns:xlink="http://www.w3.org/1999/xlink" width="600" zoomAndPan="magnify" viewBox="0 0 450 449.999984" height="600" preserveAspectRatio="xMidYMid meet" version="1.0"><path fill="#000000" d="M 134.476562 35.175781 C 109.574219 48 86.101562 60.074219 54.824219 60.226562 L 38.625 60.300781 L 37.574219 76.5 C 30.601562 187.800781 41.550781 346.425781 217.050781 438.449219 L 225.074219 442.648438 L 233.101562 438.449219 C 408.601562 346.425781 419.550781 187.800781 412.574219 76.5 L 411.523438 60.300781 L 395.324219 60.226562 C 364.050781 60.148438 340.574219 48 315.675781 35.25 C 289.351562 21.601562 261.976562 7.5 225.148438 7.5 C 188.324219 7.5 160.949219 21.601562 134.476562 35.175781 " fill-opacity="1" fill-rule="evenodd"/><path fill="#ffffff" d="M 225.148438 423 C 76.875 345.226562 46.050781 218.175781 54.898438 77.476562 C 124.875 77.25 159 24.824219 225.148438 24.824219 C 291.300781 24.824219 325.425781 77.25 395.398438 77.476562 C 404.25 218.175781 373.425781 345.226562 225.148438 423 " fill-opacity="1" fill-rule="evenodd"/><path fill="#000000" d="M 152.925781 71.101562 C 177.148438 58.648438 198.074219 47.925781 225.074219 47.925781 C 252.148438 47.925781 273.074219 58.648438 297.226562 71.101562 C 318.898438 82.273438 343.050781 94.5 373.199219 98.851562 C 373.425781 105.675781 373.574219 112.351562 373.574219 118.949219 C 373.574219 252.300781 326.699219 339.226562 225.074219 396.601562 C 123.449219 339.226562 76.574219 252.300781 76.574219 118.949219 C 76.574219 112.351562 76.726562 105.675781 76.949219 98.851562 C 107.101562 94.5 131.25 82.273438 152.925781 71.101562 " fill-opacity="1" fill-rule="evenodd"/><path fill="#ffffff" d="M 225.148438 91.199219 L 251.023438 170.925781 L 334.875 170.925781 L 267.074219 220.199219 L 292.949219 300 L 225.148438 250.648438 L 157.273438 300 L 183.226562 220.199219 L 115.351562 170.925781 L 199.199219 170.925781 Z M 225.148438 91.199219 " fill-opacity="1" fill-rule="evenodd"/></svg>