<svg xmlns="http://www.w3.org/2000/svg" xmlns:xlink="http://www.w3.org/1999/xlink" width="144" zoomAndPan="magnify" viewBox="0 0 108 136.499996" height="182" preserveAspectRatio="xMidYMid meet" version="1.0"><defs><clipPath id="9d67f6ca19"><path d="M 0.195312 0 L 107.660156 0 L 107.660156 136 L 0.195312 136 Z M 0.195312 0 " clip-rule="nonzero"/></clipPath><clipPath id="ff48b40c70"><path d="M 0.195312 33 L 42 33 L 42 75 L 0.195312 75 Z M 0.195312 33 " clip-rule="nonzero"/></clipPath><clipPath id="d1a4168944"><path d="M 38 92 L 77 92 L 77 136 L 38 136 Z M 38 92 " clip-rule="nonzero"/></clipPath></defs><path fill="#ffffff" d="M 1.386719 56.121094 L 1.386719 31.609375 C 38.277344 40.5 25.382812 5.902344 25.382812 5.902344 C 34.328125 1.570312 53.855469 1.121094 53.855469 1.121094 C 53.855469 1.121094 73.457031 1.496094 82.328125 5.902344 C 82.328125 5.902344 70.847656 40.875 106.328125 31.609375 L 106.328125 56.121094 C 106.402344 117.542969 53.855469 134.804688 53.855469 134.804688 C 53.855469 134.804688 1.234375 117.46875 1.386719 56.121094 Z M 1.386719 56.121094 " fill-opacity="1" fill-rule="nonzero"/><g clip-path="url(#9d67f6ca19)"><path stroke-linecap="butt" transform="matrix(0.745322, 0, 0, 0.747263, 311.438748, -457.175332)" fill="none" stroke-linejoin="miter" d="M -415.99756 686.902226 L -415.99756 654.100217 C -366.501319 665.997806 -383.801943 619.698619 -383.801943 619.698619 C -371.799995 613.90142 -345.600111 613.300267 -345.600111 613.300267 C -345.600111 613.300267 -319.300647 613.802099 -307.398279 619.698619 C -307.398279 619.698619 -322.801652 666.499638 -275.197421 654.100217 L -275.197421 686.902226 C -275.097841 769.09805 -345.600111 792.197983 -345.600111 792.197983 C -345.600111 792.197983 -416.20196 768.998729 -415.99756 686.902226 Z M -415.99756 686.902226 " stroke="#000000" stroke-width="3" stroke-opacity="1" stroke-miterlimit="2.613"/></g><path fill="#000000" d="M 6.15625 57.164062 L 6.15625 37.585938 C 39.023438 42.742188 32.019531 10.164062 32.019531 10.164062 C 40.140625 6.203125 53.929688 6.5 53.929688 6.5 C 53.929688 6.5 67.71875 6.203125 75.769531 10.164062 C 75.769531 10.164062 68.761719 42.742188 101.628906 37.585938 L 101.628906 57.164062 C 101.707031 112.984375 53.929688 128.679688 53.929688 128.679688 C 53.929688 128.679688 6.007812 112.910156 6.15625 57.164062 Z M 6.15625 57.164062 " fill-opacity="1" fill-rule="nonzero"/><path fill="#ffffff" d="M 103.046875 38.183594 C 81.285156 37.886719 78.601562 27.050781 78.601562 27.050781 L 8.988281 87.429688 L 22.253906 108.277344 Z M 103.046875 38.183594 " fill-opacity="1" fill-rule="nonzero"/><path stroke-linecap="butt" transform="matrix(0.745322, 0, 0, 0.747263, 311.438748, -457.175332)" fill="none" stroke-linejoin="miter" d="M -409.598268 688.297945 L -409.598268 662.098157 M -409.598268 661.998836 C -365.500283 668.89902 -374.897441 625.302405 -374.897441 625.302405 C -364.00135 620.001809 -345.500531 620.399093 -345.500531 620.399093 C -345.500531 620.399093 -326.999713 620.001809 -316.19796 625.302405 C -316.19796 625.302405 -325.600359 668.89902 -281.502374 661.998836 M -281.601953 661.998836 L -281.601953 688.198624 M -281.601953 688.297945 C -281.502374 762.997661 -345.600111 784.001401 -345.600111 784.001401 C -345.600111 784.001401 -409.697848 762.997661 -409.598268 688.297945 " stroke="#000000" stroke-width="1" stroke-opacity="1" stroke-miterlimit="2.613"/><path fill="#ffffff" d="M 45.359375 12.328125 L 46.179688 15.246094 L 50.652344 12.105469 C 50.652344 12.105469 52.066406 10.984375 52.066406 13.75 C 52.066406 13.75 50.574219 14.570312 50.574219 15.542969 C 50.574219 15.542969 50.425781 17.859375 50.5 18.980469 L 50.5 22.640625 C 50.5 22.640625 47.894531 24.585938 47.296875 26.003906 L 58.402344 26.003906 C 58.402344 26.003906 57.285156 23.988281 55.046875 22.640625 C 55.046875 22.640625 52.960938 19.953125 55.867188 18.90625 L 56.539062 14.199219 L 55.121094 13.675781 L 51.023438 9.863281 Z M 45.359375 12.328125 " fill-opacity="1" fill-rule="nonzero"/><path fill="#000000" d="M 51.320312 17.710938 C 51.320312 17.710938 52.066406 18.234375 52.140625 18.832031 C 52.140625 18.832031 52.738281 19.355469 52.8125 18.757812 C 52.8125 18.757812 53.183594 17.5625 52.140625 16.886719 C 52.140625 16.8125 50.949219 16.589844 51.320312 17.710938 Z M 51.320312 17.710938 " fill-opacity="1" fill-rule="nonzero"/><path fill="#000000" d="M 53.257812 21.597656 C 53.257812 21.597656 53.109375 22.867188 54.003906 24.0625 C 54.003906 24.0625 54.527344 24.585938 54.675781 23.914062 C 54.675781 23.914062 54.226562 23.015625 54.078125 22.269531 C 54.078125 22.269531 53.929688 20.699219 53.257812 21.597656 Z M 53.257812 21.597656 " fill-opacity="1" fill-rule="nonzero"/><path fill="#000000" d="M 50.726562 24.734375 C 50.726562 24.734375 51.023438 22.417969 51.546875 22.042969 C 51.546875 22.042969 52.289062 21.222656 52.214844 23.015625 C 52.214844 23.015625 51.917969 24.734375 51.394531 25.035156 C 51.320312 25.035156 50.949219 25.332031 50.726562 24.734375 Z M 50.726562 24.734375 " fill-opacity="1" fill-rule="nonzero"/><path stroke-linecap="butt" transform="matrix(0.745322, 0, 0, 0.747263, 311.438748, -457.175332)" fill-opacity="1" fill="#ffffff" fill-rule="nonzero" stroke-linejoin="miter" d="M -338.498522 673.697784 L -365.101965 673.697784 C -365.101965 664.99937 -369.698344 660.801759 -369.698344 660.801759 L -339.300399 660.801759 Z M -338.498522 673.697784 " stroke="#000000" stroke-width="1" stroke-opacity="1" stroke-miterlimit="2.613"/><path fill="#000000" d="M 40.515625 38.335938 L 47.96875 38.335938 L 47.96875 39.828125 L 40.515625 39.828125 M 52.441406 38.335938 L 59.519531 38.335938 L 59.519531 39.828125 L 52.441406 39.828125 " fill-opacity="1" fill-rule="nonzero"/><path stroke-linecap="butt" transform="matrix(0.745322, 0, 0, 0.747263, 311.438748, -457.175332)" fill-opacity="1" fill="#ffffff" fill-rule="nonzero" stroke-linejoin="miter" d="M -358.697433 712.898145 C -344.499496 712.898145 -335.699814 719.798329 -335.699814 719.798329 C -315.899222 697.200228 -328.598225 672.401386 -328.598225 672.401386 L -377.297831 672.401386 C -377.297831 672.401386 -364.598827 697.100907 -384.39942 719.798329 C -384.39942 719.798329 -372.900611 712.898145 -358.697433 712.898145 Z M -358.697433 712.898145 " stroke="#000000" stroke-width="1" stroke-opacity="1" stroke-miterlimit="2.613"/><path fill="#000000" d="M 34.550781 47.972656 L 42.003906 47.972656 L 42.003906 49.46875 L 34.550781 49.46875 M 46.476562 47.972656 L 53.929688 47.972656 L 53.929688 49.46875 L 46.476562 49.46875 M 58.402344 47.972656 L 65.855469 47.972656 L 65.855469 49.46875 L 58.402344 49.46875 " fill-opacity="1" fill-rule="nonzero"/><path stroke-linecap="butt" transform="matrix(0.745322, 0, 0, 0.747263, 311.438748, -457.175332)" fill-opacity="1" fill="#ffffff" fill-rule="nonzero" stroke-linejoin="miter" d="M -331.800492 646.201597 L -360.998243 646.201597 C -360.998243 646.201597 -356.700602 650.001926 -359.001412 658.402377 C -359.001412 658.402377 -347.198623 651.199003 -331.402174 658.402377 C -331.402174 658.501698 -329.200943 650.49853 -331.800492 646.201597 Z M -331.800492 646.201597 " stroke="#000000" stroke-width="1" stroke-opacity="1" stroke-miterlimit="2.613"/><path stroke-linecap="butt" transform="matrix(0.745322, 0, 0, 0.747263, 311.438748, -457.175332)" fill-opacity="1" fill="#ffffff" fill-rule="nonzero" stroke-linejoin="miter" d="M -316.19796 657.200072 L -355.599987 657.200072 C -355.599987 657.200072 -347.602182 670.299966 -355.998305 678.700417 C -355.998305 678.700417 -331.302594 667.900584 -319.698965 680.399326 C -319.599385 680.498647 -311.098443 669.30153 -316.19796 657.200072 Z M -316.19796 657.200072 " stroke="#000000" stroke-width="1" stroke-opacity="1" stroke-miterlimit="2.613"/><path stroke-linecap="butt" transform="matrix(0.745322, 0, 0, 0.747263, 311.438748, -457.175332)" fill-opacity="1" fill="#ffffff" fill-rule="nonzero" stroke-linejoin="miter" d="M -352.198561 721.601786 C -363.802191 721.701107 -376.401615 727.498307 -376.401615 727.498307 C -351.999402 704.701564 -370.400642 678.899059 -370.400642 678.899059 L -308.797632 678.899059 C -308.797632 678.899059 -300.600669 718.298062 -333.802563 727.498307 C -333.802563 727.597628 -340.600173 721.601786 -352.198561 721.601786 Z M -352.198561 721.601786 " stroke="#000000" stroke-width="1" stroke-opacity="1" stroke-miterlimit="2.613"/><path fill="#000000" d="M 41.257812 52.757812 L 52.4375 52.757812 L 52.4375 55 L 41.257812 55 M 59.148438 52.757812 L 70.328125 52.757812 L 70.328125 55 L 59.148438 55 M 77.035156 52.757812 L 80.238281 52.757812 L 80.238281 55 L 77.035156 55 " fill-opacity="1" fill-rule="nonzero"/><path fill="#000000" d="M 50.875 36.167969 L 58.328125 36.167969 L 58.328125 37.660156 L 50.875 37.660156 M 62.800781 36.167969 L 70.253906 36.167969 L 70.253906 37.660156 L 62.800781 37.660156 M 74.726562 36.167969 L 75.769531 36.167969 L 75.769531 37.660156 L 74.726562 37.660156 " fill-opacity="1" fill-rule="nonzero"/><path fill="#000000" d="M 46.402344 27.648438 L 50.128906 27.648438 L 50.128906 28.394531 L 46.402344 28.394531 M 52.367188 27.648438 L 56.09375 27.648438 L 56.09375 28.394531 L 52.367188 28.394531 M 58.328125 27.648438 L 62.054688 27.648438 L 62.054688 28.394531 L 58.328125 28.394531 " fill-opacity="1" fill-rule="nonzero"/><path fill="#cd3529" d="M 66.75 70.019531 C 66.75 70.019531 63.84375 67.851562 60.863281 67.851562 C 60.863281 70.839844 63.023438 73.753906 63.023438 73.753906 L 55.644531 73.753906 C 55.644531 73.753906 57.804688 70.839844 57.804688 67.851562 C 54.824219 67.851562 51.917969 70.019531 51.917969 70.019531 L 51.917969 62.695312 C 51.917969 62.695312 54.824219 64.863281 57.804688 64.863281 C 57.804688 61.875 55.644531 58.960938 55.644531 58.960938 L 63.023438 58.960938 C 63.023438 58.960938 60.863281 61.875 60.863281 64.863281 C 63.84375 64.863281 66.75 62.695312 66.75 62.695312 Z M 66.75 70.019531 " fill-opacity="1" fill-rule="nonzero"/><path stroke-linecap="butt" transform="matrix(0.745322, 0, 0, 0.747263, 311.438748, -457.175332)" fill="none" stroke-linejoin="miter" d="M -396.799685 696.599075 L -396.799685 670.002004 M -396.799685 670.002004 C -396.799685 670.002004 -386.899389 669.798135 -386.899389 677.900623 C -386.899389 677.900623 -385.500035 684.398296 -396.799685 684.398296 " stroke="#ffffff" stroke-width="3" stroke-opacity="1" stroke-miterlimit="2.613"/><g clip-path="url(#ff48b40c70)"><path stroke-linecap="butt" transform="matrix(0.745322, 0, 0, 0.747263, 311.438748, -457.175332)" fill="none" stroke-linejoin="miter" d="M -382.198189 678.198585 C -384.29984 675.997845 -387.701265 674.497578 -391.501009 674.497578 C -397.99988 674.497578 -403.198977 678.700417 -403.198977 683.802371 C -403.198977 688.998418 -397.99988 693.101937 -391.501009 693.101937 C -386.998968 693.101937 -383.199225 691.099838 -381.202394 688.198624 " stroke="#000000" stroke-width="5" stroke-opacity="1" stroke-miterlimit="2.613"/></g><path stroke-linecap="butt" transform="matrix(0.745322, 0, 0, 0.747263, 311.438748, -457.175332)" fill="none" stroke-linejoin="miter" d="M -382.198189 678.198585 C -384.29984 675.997845 -387.701265 674.497578 -391.501009 674.497578 C -397.99988 674.497578 -403.198977 678.700417 -403.198977 683.802371 C -403.198977 688.998418 -397.99988 693.101937 -391.501009 693.101937 C -386.998968 693.101937 -383.099645 691.099838 -381.097574 688.099304 " stroke="#ffffff" stroke-width="3" stroke-opacity="1" stroke-miterlimit="2.613"/><path stroke-linecap="butt" transform="matrix(0.745322, 0, 0, 0.747263, 311.438748, -457.175332)" fill="none" stroke-linejoin="miter" d="M -381.899451 697.597511 C -381.899451 697.597511 -385.898353 697.597511 -385.898353 692.699426 C -385.898353 692.699426 -385.500035 689.202287 -387.900424 686.698357 " stroke="#000000" stroke-width="5" stroke-opacity="1" stroke-miterlimit="2.613"/><path stroke-linecap="butt" transform="matrix(0.745322, 0, 0, 0.747263, 311.438748, -457.175332)" fill="none" stroke-linejoin="miter" d="M -381.899451 697.597511 C -381.899451 697.597511 -385.898353 697.597511 -385.898353 692.699426 C -385.898353 692.699426 -384.797738 684.199654 -395.300752 684.199654 " stroke="#ffffff" stroke-width="3" stroke-opacity="1" stroke-miterlimit="2.613"/><path stroke-linecap="butt" transform="matrix(0.745322, 0, 0, 0.747263, 311.438748, -457.175332)" fill="none" stroke-linejoin="miter" d="M -396.799685 681.800272 L -396.799685 671.899554 " stroke="#000000" stroke-width="5" stroke-opacity="1" stroke-miterlimit="2.613"/><path stroke-linecap="butt" transform="matrix(0.745322, 0, 0, 0.747263, 311.438748, -457.175332)" fill="none" stroke-linejoin="miter" d="M -396.799685 681.800272 L -396.799685 671.899554 " stroke="#ffffff" stroke-width="3" stroke-opacity="1" stroke-miterlimit="2.613"/><path fill="#ffffff" d="M 16.738281 44.613281 L 14.578125 45.359375 C 14.578125 43.042969 13.011719 42.371094 13.011719 42.371094 L 15.769531 42.371094 Z M 16.738281 44.613281 " fill-opacity="1" fill-rule="nonzero"/><path fill="#ffffff" d="M 18.230469 65.234375 L 13.085938 65.234375 C 13.085938 65.234375 14.578125 64.488281 14.578125 62.996094 L 16.738281 62.996094 C 16.738281 64.488281 18.230469 65.234375 18.230469 65.234375 Z M 18.230469 65.234375 " fill-opacity="1" fill-rule="nonzero"/><path stroke-linecap="butt" transform="matrix(0.745322, 0, 0, 0.747263, 311.438748, -457.175332)" fill="none" stroke-linejoin="miter" d="M -336.501691 757.001819 C -338.299363 754.801079 -340.898911 753.499453 -343.697619 753.499453 C -349.200695 753.499453 -353.597915 758.502086 -353.597915 764.701797 C -353.597915 770.901507 -349.200695 775.898913 -343.697619 775.898913 C -340.600173 775.898913 -337.801465 774.299325 -335.898973 771.701301 M -336.197712 775.799592 L -343.000562 775.898913 " stroke="#ffffff" stroke-width="3" stroke-opacity="1" stroke-miterlimit="2.613"/><g clip-path="url(#d1a4168944)"><path stroke-linecap="butt" transform="matrix(0.745322, 0, 0, 0.747263, 311.438748, -457.175332)" fill="none" stroke-linejoin="miter" d="M -347.198623 768.899409 L -344.200757 775.600951 L -341.40205 769.09805 M -337.198748 761.000789 L -333.902143 754.299247 " stroke="#000000" stroke-width="5" stroke-opacity="1" stroke-miterlimit="2.613"/></g><path stroke-linecap="butt" transform="matrix(0.745322, 0, 0, 0.747263, 311.438748, -457.175332)" fill="none" stroke-linejoin="miter" d="M -355.400828 752.600338 L -344.200757 775.700271 L -332.801527 752.098507 " stroke="#ffffff" stroke-width="3" stroke-opacity="1" stroke-miterlimit="2.613"/><path stroke-linecap="butt" transform="matrix(0.745322, 0, 0, 0.747263, 311.438748, -457.175332)" fill="none" stroke-linejoin="miter" d="M -336.70085 763.902003 L -341.09807 763.902003 M -341.09807 763.902003 C -341.09807 763.902003 -340.998491 765.898874 -337.602306 765.898874 M -337.701886 765.898874 L -336.80043 763.902003 " stroke="#000000" stroke-width="2" stroke-opacity="1" stroke-miterlimit="2.613"/><path fill="#ffffff" d="M 60.488281 113.660156 L 57.210938 113.660156 C 57.210938 113.660156 57.285156 115.152344 59.816406 115.152344 Z M 60.488281 113.660156 " fill-opacity="1" fill-rule="nonzero"/><path stroke-linecap="butt" transform="matrix(0.745322, 0, 0, 0.747263, 311.438748, -457.175332)" fill="none" stroke-linejoin="miter" d="M -336.197712 763.902003 L -336.197712 775.898913 " stroke="#ffffff" stroke-width="3" stroke-opacity="1" stroke-miterlimit="2.613"/><path stroke-linecap="butt" transform="matrix(0.745322, 0, 0, 0.747263, 311.438748, -457.175332)" fill="none" stroke-linejoin="miter" d="M -343.697619 753.499453 C -349.200695 753.499453 -353.597915 758.502086 -353.597915 764.701797 " stroke="#000000" stroke-width="5" stroke-opacity="1" stroke-miterlimit="2.613"/><path stroke-linecap="butt" transform="matrix(0.745322, 0, 0, 0.747263, 311.438748, -457.175332)" fill="none" stroke-linejoin="miter" d="M -343.697619 753.499453 C -349.200695 753.499453 -353.597915 758.502086 -353.597915 764.701797 " stroke="#ffffff" stroke-width="3" stroke-opacity="1" stroke-miterlimit="2.613"/><path fill="#ffffff" d="M 63.769531 105.886719 C 65.332031 105.886719 66.003906 104.09375 66.003906 104.09375 L 60.863281 104.09375 C 60.863281 104.09375 61.382812 105.886719 62.574219 105.886719 Z M 63.769531 105.886719 " fill-opacity="1" fill-rule="nonzero"/><path fill="#ffffff" d="M 45.957031 105.886719 C 44.390625 105.886719 43.71875 104.09375 43.71875 104.09375 L 48.863281 104.09375 C 48.863281 104.09375 48.339844 105.886719 47.148438 105.886719 Z M 45.957031 105.886719 " fill-opacity="1" fill-rule="nonzero"/><path stroke-linecap="butt" transform="matrix(0.745322, 0, 0, 0.747263, 311.438748, -457.175332)" fill-opacity="1" fill="#000000" fill-rule="nonzero" stroke-linejoin="miter" d="M -368.39857 728.700611 C -368.39857 728.700611 -370.201483 737.001741 -347.298203 737.001741 C -347.298203 737.001741 -337.901045 737.597666 -333.299425 732.401619 L -324.499744 722.898184 C -324.499744 722.898184 -328.797384 713.802488 -334.001722 713.802488 C -334.001722 713.901808 -346.899885 713.399977 -368.39857 728.700611 Z M -368.39857 728.700611 " stroke="#000000" stroke-width="1" stroke-opacity="1" stroke-miterlimit="2.613"/><path stroke-linecap="butt" transform="matrix(0.745322, 0, 0, 0.747263, 311.438748, -457.175332)" fill-opacity="1" fill="#dfa055" fill-rule="nonzero" stroke-linejoin="miter" d="M -341.09807 736.599231 C -341.09807 736.599231 -338.902081 723.201374 -336.601271 719.798329 C -336.601271 719.798329 -340.301434 714.497733 -334.300461 714.001129 C -334.300461 714.001129 -331.700912 713.697939 -330.998615 716.599153 C -330.998615 716.599153 -330.799456 719.500367 -333.299425 720.598123 C -333.299425 720.598123 -335.898973 722.699543 -337.801465 735.700116 C -337.801465 735.600795 -339.599137 736.301268 -341.09807 736.599231 Z M -341.09807 736.599231 " stroke="#000000" stroke-width="1" stroke-opacity="1" stroke-miterlimit="2.613"/><path fill="#dfa055" d="M 46.402344 82.421875 C 46.402344 82.421875 52.515625 79.433594 56.316406 78.3125 C 56.316406 78.3125 58.105469 77.714844 58.625 78.3125 C 58.625 78.3125 59.742188 79.734375 57.433594 80.628906 C 57.433594 80.628906 51.769531 81.375 39.546875 88.550781 C 39.546875 88.550781 38.5 89.222656 38.054688 88.476562 C 38.054688 88.476562 37.832031 87.953125 38.875 87.128906 C 38.875 87.054688 43.570312 83.769531 46.402344 82.421875 Z M 46.402344 82.421875 " fill-opacity="1" fill-rule="nonzero"/><path fill="#dfa055" d="M 53.410156 82.722656 C 53.410156 82.722656 56.167969 81.675781 57.136719 81.601562 C 57.136719 81.601562 58.402344 81.675781 58.402344 82.648438 C 58.402344 82.648438 58.699219 83.992188 56.6875 84.589844 C 56.6875 84.589844 51.621094 85.414062 42.75 90.195312 C 42.75 90.195312 41.109375 91.390625 40.140625 90.417969 C 40.140625 90.417969 39.621094 89.671875 40.886719 88.847656 C 40.8125 88.847656 48.265625 84.515625 53.410156 82.722656 Z M 53.410156 82.722656 " fill-opacity="1" fill-rule="nonzero"/><path fill="#dfa055" d="M 51.769531 86.980469 C 51.769531 86.980469 55.347656 85.710938 56.984375 85.636719 C 56.984375 85.636719 57.878906 85.710938 57.730469 86.683594 C 57.730469 86.683594 58.03125 88.25 56.316406 88.550781 C 56.316406 88.550781 51.546875 89.148438 47.074219 91.765625 C 47.074219 91.765625 45.878906 92.511719 44.6875 92.363281 C 44.6875 92.363281 43.941406 92.210938 43.347656 91.914062 C 43.347656 91.914062 42.078125 91.6875 45.285156 90.046875 C 45.136719 90.046875 49.382812 87.652344 51.769531 86.980469 Z M 51.769531 86.980469 " fill-opacity="1" fill-rule="nonzero"/><path fill="#dfa055" d="M 51.84375 92.808594 C 51.84375 92.808594 49.011719 92.808594 47.894531 92.660156 C 47.894531 92.660156 47.148438 92.511719 48.414062 91.765625 C 48.414062 91.765625 51.769531 90.34375 54.824219 89.597656 C 54.824219 89.597656 56.761719 89.074219 56.761719 90.492188 C 56.761719 90.492188 57.058594 92.511719 54.527344 92.660156 Z M 51.84375 92.808594 " fill-opacity="1" fill-rule="nonzero"/><path fill="#dfa055" d="M 66.972656 80.40625 C 66.972656 80.40625 68.984375 82.648438 68.015625 83.695312 C 68.015625 83.695312 66.972656 85.039062 65.632812 83.542969 C 65.632812 83.542969 63.992188 82.125 64.738281 80.855469 C 64.664062 80.777344 65.558594 78.238281 66.972656 80.40625 Z M 66.972656 80.40625 " fill-opacity="1" fill-rule="nonzero"/><path fill="#dfa055" d="M 64.066406 82.945312 C 64.066406 82.945312 65.332031 84.140625 65.707031 84.964844 C 65.707031 84.964844 66.378906 86.234375 64.886719 86.757812 C 64.886719 86.757812 63.097656 86.085938 62.203125 84.441406 C 62.203125 84.441406 62.277344 82.125 64.066406 82.945312 Z M 64.066406 82.945312 " fill-opacity="1" fill-rule="nonzero"/><path fill="#dfa055" d="M 62.574219 86.234375 C 62.574219 86.234375 64.511719 87.429688 63.394531 88.625 C 63.394531 88.625 62.574219 89.523438 61.90625 88.625 C 61.90625 88.625 60.9375 88.101562 61.382812 86.757812 C 61.308594 86.832031 61.679688 85.5625 62.574219 86.234375 Z M 62.574219 86.234375 " fill-opacity="1" fill-rule="nonzero"/><path fill="#dfa055" d="M 61.011719 89.074219 C 61.011719 89.074219 62.5 89.894531 61.53125 90.644531 C 61.53125 90.644531 60.265625 92.136719 60.414062 90.644531 C 60.414062 90.644531 60.265625 89.296875 61.011719 89.074219 Z M 61.011719 89.074219 " fill-opacity="1" fill-rule="nonzero"/><path fill="#ffffff" d="M 47.96875 98.339844 C 47.96875 98.339844 53.929688 98.488281 55.046875 97.441406 C 55.046875 97.441406 50.949219 102.523438 47.96875 98.339844 Z M 47.96875 98.339844 " fill-opacity="1" fill-rule="nonzero"/><path fill="#ffffff" d="M 63.542969 93.78125 C 63.542969 93.78125 67.867188 94.753906 70.773438 94.453125 C 70.773438 94.453125 65.707031 98.039062 63.542969 93.78125 Z M 63.542969 93.78125 " fill-opacity="1" fill-rule="nonzero"/><path fill="#ffffff" d="M 76.363281 94.378906 C 76.363281 94.378906 79.046875 94.453125 80.984375 93.632812 C 80.984375 93.632812 79.195312 96.769531 76.363281 94.378906 Z M 76.363281 94.378906 " fill-opacity="1" fill-rule="nonzero"/><path fill="#ffffff" d="M 71.371094 99.238281 C 71.371094 99.238281 73.980469 98.9375 75.097656 99.085938 C 75.097656 99.085938 73.457031 96.996094 71.371094 99.238281 Z M 71.371094 99.238281 " fill-opacity="1" fill-rule="nonzero"/><path fill="#ffffff" d="M 59 94.527344 C 59 94.527344 56.984375 95.125 55.941406 94.976562 C 55.867188 94.976562 56.910156 96.769531 59 94.527344 Z M 59 94.527344 " fill-opacity="1" fill-rule="nonzero"/><path fill="#ffffff" d="M 58.328125 97.890625 C 58.328125 97.890625 60.488281 98.339844 63.320312 98.191406 C 63.320312 98.191406 61.90625 100.957031 58.328125 97.890625 Z M 58.328125 97.890625 " fill-opacity="1" fill-rule="nonzero"/><path fill="#ffffff" d="M 43.570312 95.203125 C 43.570312 95.203125 47.371094 95.351562 49.457031 94.902344 C 49.382812 94.902344 47.371094 98.191406 43.570312 95.203125 Z M 43.570312 95.203125 " fill-opacity="1" fill-rule="nonzero"/><path fill="#000000" d="M 32.390625 94.976562 C 32.390625 94.976562 35.445312 94.828125 36.863281 94.828125 C 38.277344 94.828125 39.472656 95.125 40.214844 95.722656 C 40.214844 95.722656 39.472656 94.453125 37.609375 93.855469 C 37.609375 93.855469 35.445312 93.035156 33.359375 93.484375 C 33.359375 93.484375 31.421875 93.855469 29.035156 92.285156 C 28.960938 92.285156 30.453125 94.828125 32.390625 94.976562 Z M 32.390625 94.976562 " fill-opacity="1" fill-rule="nonzero"/><path fill="#000000" d="M 33.882812 97.144531 C 33.882812 97.144531 32.242188 96.695312 30.230469 97.070312 C 28.8125 97.292969 26.054688 96.996094 25.382812 96.398438 C 25.382812 96.398438 25.535156 98.191406 27.992188 98.5625 C 27.992188 98.5625 29.707031 98.5625 32.167969 98.414062 C 32.167969 98.414062 34.476562 98.191406 36.789062 99.386719 C 36.714844 99.460938 34.699219 97.367188 33.882812 97.144531 Z M 33.882812 97.144531 " fill-opacity="1" fill-rule="nonzero"/></svg>