<svg xmlns="http://www.w3.org/2000/svg" xmlns:xlink="http://www.w3.org/1999/xlink" width="595" zoomAndPan="magnify" viewBox="0 0 446.25 446.249989" height="595" preserveAspectRatio="xMidYMid meet" version="1.0"><path fill="#016c32" d="M 222.773438 2.089844 C 178.230469 35.375 116.597656 62.304688 48.324219 86.789062 C 50.441406 169 48.652344 213.074219 66.589844 267.644531 C 92.253906 345.433594 149.699219 400.664062 222.773438 443.414062 C 295.757812 400.65625 353.246094 345.425781 378.855469 267.644531 C 396.839844 213.074219 395.007812 169 397.171875 86.789062 C 328.902344 62.304688 267.21875 35.375 222.773438 2.089844 Z M 222.773438 2.089844 " fill-opacity="1" fill-rule="evenodd"/><path fill="#ffdb01" d="M 222.726562 26.996094 C 186.332031 55.246094 135.765625 78.078125 79.867188 98.800781 L 79.867188 190.242188 L 365.625 190.242188 L 365.625 98.792969 C 309.734375 78.078125 259.167969 55.246094 222.726562 26.996094 Z M 222.726562 26.996094 " fill-opacity="1" fill-rule="evenodd"/><path fill="#ffffff" d="M 208.410156 365.863281 L 208.410156 369.253906 L 195.605469 369.253906 C 195.703125 367.9375 196.121094 366.710938 196.832031 365.582031 C 197.539062 364.40625 198.90625 362.847656 200.925781 360.964844 C 202.574219 359.40625 203.613281 358.375 203.945312 357.804688 C 204.460938 357.050781 204.699219 356.34375 204.699219 355.589844 C 204.699219 354.742188 204.511719 354.085938 204.085938 353.660156 C 203.613281 353.230469 203 353 202.253906 353 C 201.496094 353 200.890625 353.230469 200.464844 353.703125 C 199.992188 354.128906 199.761719 354.976562 199.664062 356.007812 L 196.039062 355.679688 C 196.226562 353.605469 196.9375 352.148438 198.070312 351.257812 C 199.199219 350.410156 200.65625 349.984375 202.355469 349.984375 C 204.242188 349.984375 205.703125 350.457031 206.78125 351.488281 C 207.863281 352.476562 208.425781 353.75 208.425781 355.304688 C 208.425781 356.203125 208.238281 357.003906 207.953125 357.796875 C 207.625 358.554688 207.152344 359.355469 206.496094 360.246094 C 206.023438 360.804688 205.222656 361.605469 204.09375 362.648438 C 202.917969 363.730469 202.207031 364.4375 201.878906 364.808594 C 201.546875 365.183594 201.316406 365.511719 201.121094 365.84375 L 208.410156 365.84375 Z M 208.410156 365.863281 Z M 217.078125 350 C 218.910156 350 220.371094 350.65625 221.410156 351.976562 C 222.636719 353.53125 223.296875 356.164062 223.296875 359.789062 C 223.296875 363.410156 222.636719 366.050781 221.410156 367.601562 C 220.378906 368.917969 218.917969 369.578125 217.078125 369.578125 C 215.246094 369.578125 213.734375 368.875 212.601562 367.414062 C 211.472656 366 210.910156 363.410156 210.910156 359.734375 C 210.910156 356.160156 211.523438 353.523438 212.746094 351.921875 C 213.777344 350.605469 215.238281 350 217.078125 350 Z M 217.078125 350 Z M 217.078125 353.007812 C 216.652344 353.007812 216.277344 353.148438 215.902344 353.433594 C 215.574219 353.71875 215.289062 354.234375 215.148438 354.992188 C 214.863281 355.933594 214.773438 357.535156 214.773438 359.796875 C 214.773438 362.054688 214.871094 363.558594 215.101562 364.414062 C 215.289062 365.3125 215.574219 365.871094 215.949219 366.15625 C 216.277344 366.441406 216.652344 366.582031 217.078125 366.582031 C 217.503906 366.582031 217.921875 366.441406 218.253906 366.113281 C 218.582031 365.878906 218.867188 365.355469 219.054688 364.554688 C 219.285156 363.613281 219.429688 362.0625 219.429688 359.804688 C 219.429688 357.542969 219.285156 356.039062 219.097656 355.1875 C 218.867188 354.289062 218.582031 353.726562 218.253906 353.441406 C 217.921875 353.148438 217.496094 353.007812 217.078125 353.007812 Z M 217.078125 353.007812 Z M 231.902344 350 C 233.738281 350 235.152344 350.65625 236.238281 351.976562 C 237.507812 353.53125 238.121094 356.164062 238.121094 359.789062 C 238.121094 363.410156 237.507812 366.050781 236.191406 367.601562 C 235.160156 368.917969 233.746094 369.578125 231.902344 369.578125 C 230.015625 369.578125 228.511719 368.875 227.382812 367.414062 C 226.253906 366 225.683594 363.410156 225.683594 359.734375 C 225.683594 356.160156 226.296875 353.523438 227.570312 351.921875 C 228.609375 350.605469 230.023438 350 231.902344 350 Z M 231.902344 350 Z M 231.902344 353.007812 C 231.433594 353.007812 231.058594 353.148438 230.726562 353.433594 C 230.398438 353.71875 230.113281 354.234375 229.925781 354.992188 C 229.695312 355.933594 229.554688 357.535156 229.554688 359.796875 C 229.554688 362.054688 229.652344 363.558594 229.882812 364.414062 C 230.113281 365.3125 230.398438 365.871094 230.726562 366.15625 C 231.058594 366.441406 231.433594 366.582031 231.902344 366.582031 C 232.328125 366.582031 232.703125 366.441406 233.035156 366.113281 C 233.40625 365.878906 233.648438 365.355469 233.835938 364.554688 C 234.066406 363.613281 234.207031 362.0625 234.207031 359.804688 C 234.207031 357.542969 234.109375 356.039062 233.878906 355.1875 C 233.648438 354.289062 233.363281 353.726562 233.035156 353.441406 C 232.703125 353.148438 232.328125 353.007812 231.902344 353.007812 Z M 231.902344 353.007812 Z M 249.894531 369.253906 L 246.273438 369.253906 L 246.273438 355.410156 C 244.910156 356.636719 243.355469 357.574219 241.566406 358.1875 L 241.566406 354.796875 C 242.507812 354.46875 243.539062 353.898438 244.625 353.007812 C 245.757812 352.160156 246.511719 351.121094 246.929688 349.992188 L 249.894531 349.992188 Z M 249.894531 369.253906 " fill-opacity="1" fill-rule="evenodd"/><path fill="#015a28" d="M 222.726562 190.234375 L 253.703125 190.234375 L 222.726562 45.261719 Z M 222.726562 190.234375 " fill-opacity="1" fill-rule="evenodd"/><path fill="#018c35" d="M 191.789062 190.234375 L 222.773438 190.234375 L 222.773438 45.261719 Z M 191.789062 190.234375 " fill-opacity="1" fill-rule="evenodd"/><path fill="#ffffff" d="M 156.007812 257.707031 L 179.3125 257.707031 C 183.878906 257.707031 187.554688 253.800781 187.554688 248.855469 L 187.554688 221.171875 L 177.570312 221.171875 L 177.570312 248.855469 C 177.570312 250.6875 176.207031 252.199219 174.464844 252.199219 L 160.804688 252.199219 C 159.0625 252.199219 157.699219 250.695312 157.699219 248.855469 L 157.699219 221.171875 L 147.71875 221.171875 L 147.71875 248.855469 C 147.71875 253.800781 151.4375 257.707031 156.007812 257.707031 Z M 156.007812 257.707031 Z M 130.578125 243.445312 L 140.5625 243.445312 L 140.5625 248.863281 C 140.5625 253.808594 136.886719 257.714844 132.277344 257.714844 L 109.535156 257.714844 C 104.917969 257.714844 101.25 253.808594 101.25 248.863281 L 101.25 230.023438 C 101.25 225.128906 104.925781 221.171875 109.535156 221.171875 L 132.277344 221.171875 C 136.894531 221.171875 140.5625 225.121094 140.5625 230.023438 L 140.5625 236.003906 L 130.625 236.003906 L 130.578125 233.601562 C 130.578125 231.769531 129.21875 230.210938 127.472656 230.210938 L 114.285156 230.210938 C 112.542969 230.210938 111.179688 231.769531 111.179688 233.601562 L 111.179688 245.890625 C 111.179688 247.722656 112.59375 249.183594 114.285156 249.183594 L 127.472656 249.183594 C 129.21875 249.183594 130.578125 247.722656 130.578125 245.890625 Z M 130.578125 243.445312 Z M 194.707031 257.707031 L 204.691406 257.707031 L 204.691406 221.171875 L 194.707031 221.171875 Z M 194.707031 257.707031 Z M 241.226562 257.707031 L 251.210938 257.707031 L 251.210938 230.023438 C 251.210938 225.128906 247.492188 221.171875 242.972656 221.171875 L 220.140625 221.171875 C 215.574219 221.171875 211.855469 225.121094 211.855469 230.023438 L 211.855469 257.707031 L 221.835938 257.707031 L 221.835938 242.171875 L 241.234375 242.171875 L 241.234375 257.707031 Z M 241.226562 257.707031 Z M 241.226562 236.003906 L 221.828125 236.003906 L 221.828125 231.714844 C 221.828125 229.882812 223.191406 228.371094 224.9375 228.371094 L 238.121094 228.371094 C 239.867188 228.371094 241.226562 229.875 241.226562 231.714844 Z M 241.226562 236.003906 Z M 258.367188 257.707031 L 289.492188 257.707031 C 294.058594 257.707031 297.730469 253.800781 297.730469 248.855469 L 297.730469 245.5625 C 297.730469 243.203125 296.929688 241.042969 295.515625 239.441406 C 296.929688 237.792969 297.730469 237.179688 297.730469 234.875 L 297.730469 230.023438 C 297.730469 225.128906 294.058594 221.171875 289.492188 221.171875 L 258.367188 221.171875 Z M 258.367188 257.707031 Z M 287.800781 236.003906 L 268.304688 236.003906 L 268.304688 231.714844 C 268.304688 229.882812 269.71875 228.371094 271.464844 228.371094 L 284.695312 228.371094 C 286.386719 228.371094 287.800781 229.875 287.800781 231.714844 Z M 287.800781 236.003906 Z M 287.800781 242.828125 L 268.304688 242.828125 L 268.304688 247.164062 C 268.304688 248.996094 269.71875 250.507812 271.464844 250.507812 L 284.695312 250.507812 C 286.386719 250.507812 287.800781 249.003906 287.800781 247.164062 Z M 287.800781 242.828125 Z M 334.320312 257.707031 L 344.257812 257.707031 L 344.257812 230.023438 C 344.257812 225.128906 340.585938 221.171875 336.019531 221.171875 L 313.230469 221.171875 C 308.613281 221.171875 304.945312 225.121094 304.945312 230.023438 L 304.945312 257.707031 L 314.886719 257.707031 L 314.886719 242.171875 L 334.328125 242.171875 L 334.328125 257.707031 Z M 334.320312 257.707031 Z M 334.320312 236.003906 L 314.878906 236.003906 L 314.878906 231.714844 C 314.878906 229.882812 316.292969 228.371094 317.984375 228.371094 L 331.167969 228.371094 C 332.914062 228.371094 334.328125 229.875 334.328125 231.714844 L 334.328125 236.003906 Z M 334.320312 236.003906 Z M 324.050781 218.484375 L 331.304688 206.898438 L 325.136719 206.898438 L 317.886719 218.484375 Z M 324.050781 218.484375 " fill-opacity="1" fill-rule="evenodd"/><path fill="#ffdb01" d="M 106.144531 283.136719 L 117.820312 283.136719 L 117.820312 281.019531 L 106.144531 281.019531 C 105.53125 281.019531 105.015625 280.40625 105.015625 279.703125 L 105.015625 277.113281 L 117.820312 277.113281 L 117.820312 274.949219 L 105.015625 274.949219 L 105.015625 272.359375 C 105.015625 271.65625 105.53125 271.089844 106.144531 271.089844 L 117.820312 271.089844 L 117.820312 268.972656 L 106.144531 268.972656 C 104.496094 268.972656 103.179688 270.476562 103.179688 272.359375 L 103.179688 279.703125 C 103.171875 281.625 104.496094 283.136719 106.144531 283.136719 Z M 106.144531 283.136719 Z M 123.515625 283.136719 L 135.144531 283.136719 C 136.789062 283.136719 138.160156 281.632812 138.160156 279.703125 L 138.160156 278.429688 C 138.160156 276.542969 136.796875 274.941406 135.144531 274.941406 L 126.105469 274.941406 C 125.445312 274.941406 124.972656 274.382812 124.972656 273.671875 L 124.972656 272.355469 C 124.972656 271.648438 125.445312 271.082031 126.105469 271.082031 L 137.734375 271.082031 L 137.734375 268.964844 L 126.105469 268.964844 C 124.414062 268.964844 123.085938 270.46875 123.085938 272.355469 L 123.085938 273.671875 C 123.085938 275.558594 124.40625 277.105469 126.105469 277.105469 L 135.144531 277.105469 C 135.804688 277.105469 136.273438 277.71875 136.273438 278.421875 L 136.273438 279.695312 C 136.273438 280.398438 135.800781 281.011719 135.144531 281.011719 L 123.515625 281.011719 Z M 123.515625 283.136719 Z M 143.4375 283.136719 L 145.269531 283.136719 L 145.269531 271.082031 L 155.484375 271.082031 C 156.097656 271.082031 156.617188 271.648438 156.617188 272.355469 L 156.617188 273.671875 C 156.617188 274.375 156.097656 274.941406 155.484375 274.941406 L 146.117188 274.941406 L 146.117188 277.105469 L 155.484375 277.105469 C 157.132812 277.105469 158.449219 275.550781 158.449219 273.671875 L 158.449219 272.355469 C 158.449219 270.46875 157.132812 268.964844 155.484375 268.964844 L 143.429688 268.964844 L 143.429688 283.136719 Z M 143.4375 283.136719 Z M 166.785156 283.136719 L 175.871094 283.136719 C 177.519531 283.136719 178.835938 281.632812 178.835938 279.703125 L 178.835938 272.359375 C 178.835938 270.476562 177.519531 268.972656 175.871094 268.972656 L 166.785156 268.972656 C 165.140625 268.972656 163.769531 270.476562 163.769531 272.359375 L 163.769531 279.703125 C 163.777344 281.625 165.140625 283.136719 166.785156 283.136719 Z M 166.785156 283.136719 Z M 166.785156 271.082031 L 175.871094 271.082031 C 176.484375 271.082031 177 271.648438 177 272.355469 L 177 279.695312 C 177 280.398438 176.484375 281.011719 175.871094 281.011719 L 166.785156 281.011719 C 166.171875 281.011719 165.65625 280.398438 165.65625 279.695312 L 165.65625 272.355469 C 165.65625 271.648438 166.179688 271.082031 166.785156 271.082031 Z M 166.785156 271.082031 Z M 197.34375 283.136719 L 199.175781 283.136719 L 199.175781 278.429688 C 199.175781 277.53125 198.890625 276.6875 198.375 276.074219 C 198.890625 275.371094 199.175781 274.570312 199.175781 273.671875 L 199.175781 272.355469 C 199.175781 270.46875 197.859375 268.964844 196.210938 268.964844 L 184.109375 268.964844 L 184.109375 283.136719 L 185.996094 283.136719 L 185.996094 271.082031 L 196.210938 271.082031 C 196.828125 271.082031 197.34375 271.648438 197.34375 272.355469 L 197.34375 273.671875 C 197.34375 274.375 196.828125 274.941406 196.210938 274.941406 L 186.796875 274.941406 L 186.796875 277.105469 L 196.210938 277.105469 C 196.828125 277.105469 197.34375 277.71875 197.34375 278.421875 Z M 197.34375 283.136719 Z M 211.046875 283.136719 L 212.933594 283.136719 L 212.933594 271.082031 L 219.523438 271.082031 L 219.523438 268.964844 L 204.460938 268.964844 L 204.460938 271.082031 L 211.046875 271.082031 Z M 211.046875 283.136719 Z M 227.808594 283.136719 L 239.441406 283.136719 L 239.441406 281.019531 L 227.808594 281.019531 C 227.152344 281.019531 226.679688 280.40625 226.679688 279.703125 L 226.679688 277.113281 L 239.441406 277.113281 L 239.441406 274.949219 L 226.679688 274.949219 L 226.679688 272.359375 C 226.679688 271.65625 227.152344 271.089844 227.808594 271.089844 L 239.441406 271.089844 L 239.441406 268.972656 L 227.808594 268.972656 C 226.117188 268.972656 224.792969 270.476562 224.792969 272.359375 L 224.792969 279.703125 C 224.792969 281.625 226.117188 283.136719 227.808594 283.136719 Z M 227.808594 283.136719 Z M 252.34375 283.136719 L 263.972656 283.136719 L 263.972656 281.019531 L 252.34375 281.019531 C 251.683594 281.019531 251.210938 280.40625 251.210938 279.703125 L 251.210938 272.359375 C 251.210938 271.65625 251.683594 271.089844 252.34375 271.089844 L 263.972656 271.089844 L 263.972656 268.972656 L 252.34375 268.972656 C 250.652344 268.972656 249.324219 270.476562 249.324219 272.359375 L 249.324219 279.703125 C 249.324219 281.625 250.652344 283.136719 252.34375 283.136719 Z M 252.34375 283.136719 Z M 272.257812 283.136719 L 283.085938 283.136719 L 283.085938 281.019531 L 272.257812 281.019531 C 271.644531 281.019531 271.125 280.40625 271.125 279.703125 L 271.125 268.972656 L 269.242188 268.972656 L 269.242188 279.703125 C 269.246094 281.625 270.609375 283.136719 272.257812 283.136719 Z M 272.257812 283.136719 Z M 291.9375 283.136719 L 301.023438 283.136719 C 302.671875 283.136719 303.988281 281.632812 303.988281 279.703125 L 303.988281 268.972656 L 302.15625 268.972656 L 302.15625 279.703125 C 302.15625 280.40625 301.636719 281.019531 301.023438 281.019531 L 291.9375 281.019531 C 291.324219 281.019531 290.808594 280.40625 290.808594 279.703125 L 290.808594 268.972656 L 288.921875 268.972656 L 288.921875 279.703125 C 288.929688 281.625 290.292969 283.136719 291.9375 283.136719 Z M 291.9375 283.136719 Z M 309.265625 283.136719 L 321.367188 283.136719 C 323.011719 283.136719 324.328125 281.632812 324.328125 279.703125 L 324.328125 278.429688 C 324.328125 277.53125 324.046875 276.6875 323.527344 276.074219 C 324.046875 275.371094 324.328125 275.128906 324.328125 274.238281 L 324.328125 272.355469 C 324.328125 270.46875 323.011719 268.964844 321.367188 268.964844 L 309.265625 268.964844 Z M 309.265625 283.136719 Z M 321.367188 281.019531 L 311.148438 281.019531 L 311.148438 271.082031 L 321.367188 271.082031 C 321.980469 271.082031 322.496094 271.648438 322.496094 272.355469 L 322.496094 274.238281 C 322.496094 274.941406 321.980469 274.941406 321.367188 274.941406 L 311.949219 274.941406 L 311.949219 277.105469 L 321.367188 277.105469 C 321.980469 277.105469 322.496094 277.71875 322.496094 278.421875 L 322.496094 279.695312 C 322.496094 280.40625 321.980469 281.019531 321.367188 281.019531 Z M 321.367188 281.019531 Z M 332.621094 283.136719 L 344.25 283.136719 L 344.25 281.019531 L 332.621094 281.019531 C 332.007812 281.019531 331.492188 280.40625 331.492188 279.703125 L 331.492188 277.113281 L 344.25 277.113281 L 344.25 274.949219 L 331.492188 274.949219 L 331.492188 272.359375 C 331.492188 271.65625 332.007812 271.089844 332.621094 271.089844 L 344.25 271.089844 L 344.25 268.972656 L 332.621094 268.972656 C 330.929688 268.972656 329.605469 270.476562 329.605469 272.359375 L 329.605469 279.703125 C 329.605469 281.625 330.929688 283.136719 332.621094 283.136719 Z M 332.621094 283.136719 " fill-opacity="1" fill-rule="evenodd"/><path fill="#ffdb01" d="M 106.144531 282.570312 L 117.210938 282.570312 L 117.210938 281.625 L 106.144531 281.625 C 105.628906 281.625 105.199219 281.394531 104.871094 281.011719 C 104.585938 280.683594 104.398438 280.210938 104.398438 279.742188 L 104.398438 276.539062 L 117.210938 276.539062 L 117.210938 275.550781 L 104.398438 275.550781 L 104.398438 272.390625 C 104.398438 271.875 104.585938 271.402344 104.871094 271.074219 C 105.199219 270.699219 105.628906 270.503906 106.144531 270.503906 L 117.210938 270.503906 L 117.210938 269.5625 L 106.144531 269.5625 C 105.484375 269.5625 104.871094 269.847656 104.453125 270.316406 C 103.980469 270.835938 103.695312 271.589844 103.695312 272.390625 L 103.695312 279.734375 C 103.695312 280.535156 103.980469 281.238281 104.453125 281.761719 C 104.871094 282.285156 105.484375 282.570312 106.144531 282.570312 Z M 106.144531 282.570312 Z M 117.773438 283.746094 L 106.144531 283.746094 C 105.109375 283.746094 104.214844 283.273438 103.554688 282.515625 C 102.941406 281.8125 102.566406 280.824219 102.566406 279.742188 L 102.566406 272.398438 C 102.566406 271.3125 102.941406 270.28125 103.554688 269.578125 C 104.214844 268.820312 105.109375 268.402344 106.144531 268.402344 L 118.386719 268.402344 L 118.386719 271.695312 L 106.144531 271.695312 C 106 271.695312 105.859375 271.738281 105.769531 271.835938 C 105.671875 271.980469 105.582031 272.167969 105.582031 272.40625 L 105.582031 274.382812 L 118.394531 274.382812 L 118.394531 277.71875 L 105.582031 277.71875 L 105.582031 279.746094 C 105.582031 279.933594 105.679688 280.121094 105.769531 280.265625 C 105.867188 280.363281 106 280.453125 106.144531 280.453125 L 118.386719 280.453125 L 118.386719 283.75 L 117.773438 283.75 Z M 117.773438 283.746094 Z M 124.082031 282.570312 L 135.152344 282.570312 C 135.808594 282.570312 136.378906 282.285156 136.796875 281.769531 C 137.269531 281.253906 137.554688 280.542969 137.554688 279.742188 L 137.554688 278.421875 C 137.554688 277.621094 137.269531 276.917969 136.796875 276.394531 C 136.371094 275.878906 135.808594 275.550781 135.152344 275.550781 L 126.066406 275.550781 C 125.59375 275.550781 125.125 275.316406 124.839844 274.980469 C 124.507812 274.652344 124.367188 274.179688 124.367188 273.664062 L 124.367188 272.390625 C 124.367188 271.875 124.507812 271.402344 124.839844 271.074219 C 125.125 270.699219 125.59375 270.503906 126.066406 270.503906 L 137.136719 270.503906 L 137.136719 269.5625 L 126.066406 269.5625 C 125.40625 269.5625 124.792969 269.847656 124.375 270.316406 C 123.949219 270.835938 123.671875 271.589844 123.671875 272.390625 L 123.671875 273.664062 C 123.671875 274.464844 123.957031 275.167969 124.375 275.691406 C 124.847656 276.261719 125.40625 276.539062 126.066406 276.539062 L 135.152344 276.539062 C 135.625 276.539062 136.09375 276.769531 136.378906 277.152344 C 136.664062 277.480469 136.851562 277.953125 136.851562 278.421875 L 136.851562 279.742188 C 136.851562 280.210938 136.664062 280.683594 136.378906 281.011719 C 136.09375 281.386719 135.625 281.625 135.152344 281.625 L 124.082031 281.625 Z M 124.082031 282.570312 Z M 135.144531 283.746094 L 122.90625 283.746094 L 122.90625 280.445312 L 135.144531 280.445312 C 135.285156 280.445312 135.375 280.347656 135.472656 280.257812 C 135.617188 280.113281 135.660156 279.925781 135.660156 279.742188 L 135.660156 278.421875 C 135.660156 278.234375 135.617188 278.050781 135.472656 277.90625 C 135.375 277.808594 135.285156 277.71875 135.144531 277.71875 L 126.058594 277.71875 C 125.070312 277.71875 124.128906 277.292969 123.515625 276.542969 C 122.855469 275.742188 122.480469 274.757812 122.480469 273.671875 L 122.480469 272.398438 C 122.480469 271.3125 122.855469 270.28125 123.515625 269.578125 C 124.128906 268.820312 125.070312 268.402344 126.058594 268.402344 L 138.292969 268.402344 L 138.292969 271.695312 L 126.058594 271.695312 C 125.917969 271.695312 125.828125 271.738281 125.730469 271.835938 C 125.585938 271.980469 125.542969 272.167969 125.542969 272.40625 L 125.542969 273.679688 C 125.542969 273.910156 125.585938 274.105469 125.683594 274.195312 C 125.78125 274.335938 125.917969 274.382812 126.058594 274.382812 L 135.144531 274.382812 C 136.132812 274.382812 137.03125 274.851562 137.6875 275.609375 C 138.300781 276.363281 138.722656 277.351562 138.722656 278.429688 L 138.722656 279.746094 C 138.722656 280.832031 138.292969 281.820312 137.6875 282.523438 C 137.03125 283.28125 136.140625 283.746094 135.144531 283.746094 Z M 135.144531 283.746094 Z M 143.996094 282.570312 L 144.65625 282.570312 L 144.65625 270.511719 L 155.484375 270.511719 C 155.957031 270.511719 156.382812 270.699219 156.710938 271.082031 C 156.996094 271.410156 157.183594 271.882812 157.183594 272.398438 L 157.183594 273.671875 C 157.183594 274.1875 156.996094 274.660156 156.710938 274.988281 C 156.382812 275.316406 155.957031 275.558594 155.484375 275.558594 L 146.683594 275.558594 L 146.683594 276.542969 L 155.492188 276.542969 C 156.105469 276.542969 156.71875 276.261719 157.140625 275.699219 C 157.609375 275.183594 157.84375 274.472656 157.84375 273.671875 L 157.84375 272.398438 C 157.84375 271.597656 157.609375 270.84375 157.140625 270.324219 C 156.710938 269.855469 156.105469 269.570312 155.492188 269.570312 L 144.003906 269.570312 L 144.003906 282.570312 Z M 143.996094 282.570312 Z M 145.269531 283.746094 L 142.816406 283.746094 L 142.816406 268.394531 L 155.484375 268.394531 C 156.472656 268.394531 157.371094 268.820312 158.03125 269.570312 C 158.644531 270.273438 159.019531 271.3125 159.019531 272.390625 L 159.019531 273.664062 C 159.019531 274.75 158.644531 275.738281 158.03125 276.539062 C 157.371094 277.292969 156.472656 277.710938 155.484375 277.710938 L 145.839844 277.710938 L 145.839844 283.746094 Z M 145.269531 283.746094 Z M 145.839844 271.695312 L 145.839844 274.382812 L 155.484375 274.382812 C 155.628906 274.382812 155.71875 274.335938 155.816406 274.195312 C 155.957031 274.097656 156 273.910156 156 273.679688 L 156 272.40625 C 156 272.175781 155.957031 271.980469 155.816406 271.835938 C 155.71875 271.738281 155.582031 271.695312 155.484375 271.695312 Z M 145.839844 271.695312 Z M 166.785156 282.570312 L 175.828125 282.570312 C 176.484375 282.570312 177.097656 282.285156 177.519531 281.769531 C 177.945312 281.253906 178.222656 280.542969 178.222656 279.742188 L 178.222656 272.398438 C 178.222656 271.597656 177.9375 270.84375 177.519531 270.324219 C 177.089844 269.855469 176.484375 269.570312 175.828125 269.570312 L 166.785156 269.570312 C 166.128906 269.570312 165.515625 269.855469 165.09375 270.324219 C 164.625 270.84375 164.339844 271.597656 164.339844 272.398438 L 164.339844 279.742188 C 164.339844 280.542969 164.625 281.246094 165.09375 281.769531 C 165.515625 282.285156 166.128906 282.570312 166.785156 282.570312 Z M 166.785156 282.570312 Z M 175.828125 283.746094 L 166.785156 283.746094 C 165.753906 283.746094 164.855469 283.273438 164.195312 282.515625 C 163.582031 281.8125 163.164062 280.824219 163.164062 279.742188 L 163.164062 272.398438 C 163.164062 271.3125 163.589844 270.28125 164.195312 269.578125 C 164.855469 268.820312 165.753906 268.402344 166.785156 268.402344 L 175.828125 268.402344 C 176.859375 268.402344 177.757812 268.828125 178.417969 269.578125 C 179.03125 270.28125 179.402344 271.320312 179.402344 272.398438 L 179.402344 279.742188 C 179.402344 280.824219 179.03125 281.8125 178.417969 282.515625 C 177.757812 283.28125 176.867188 283.746094 175.828125 283.746094 Z M 175.828125 283.746094 Z M 166.785156 270.519531 L 175.828125 270.519531 C 176.34375 270.519531 176.769531 270.707031 177.097656 271.089844 C 177.382812 271.417969 177.570312 271.890625 177.570312 272.40625 L 177.570312 279.746094 C 177.570312 280.21875 177.382812 280.691406 177.097656 281.019531 C 176.769531 281.394531 176.34375 281.632812 175.828125 281.632812 L 166.785156 281.632812 C 166.269531 281.632812 165.84375 281.402344 165.515625 281.019531 C 165.230469 280.691406 165.042969 280.21875 165.042969 279.746094 L 165.042969 272.40625 C 165.042969 271.890625 165.230469 271.417969 165.515625 271.089844 C 165.84375 270.707031 166.269531 270.519531 166.785156 270.519531 Z M 166.785156 270.519531 Z M 175.828125 271.695312 L 166.785156 271.695312 C 166.644531 271.695312 166.5 271.738281 166.410156 271.835938 C 166.316406 271.980469 166.226562 272.167969 166.226562 272.40625 L 166.226562 279.746094 C 166.226562 279.933594 166.320312 280.121094 166.410156 280.265625 C 166.507812 280.363281 166.644531 280.453125 166.785156 280.453125 L 175.828125 280.453125 C 175.96875 280.453125 176.109375 280.355469 176.199219 280.265625 C 176.296875 280.121094 176.386719 279.933594 176.386719 279.746094 L 176.386719 272.40625 C 176.386719 272.175781 176.289062 271.980469 176.199219 271.835938 C 176.109375 271.738281 175.96875 271.695312 175.828125 271.695312 Z M 175.828125 271.695312 Z M 197.910156 282.570312 L 198.570312 282.570312 L 198.570312 278.421875 C 198.570312 278.050781 198.523438 277.667969 198.382812 277.339844 C 198.285156 277.007812 198.097656 276.722656 197.910156 276.441406 L 197.582031 276.011719 L 197.910156 275.640625 C 198.097656 275.40625 198.285156 275.078125 198.382812 274.742188 C 198.523438 274.410156 198.570312 274.039062 198.570312 273.65625 L 198.570312 272.382812 C 198.570312 271.582031 198.285156 270.828125 197.867188 270.3125 C 197.441406 269.839844 196.832031 269.554688 196.175781 269.554688 L 184.6875 269.554688 L 184.6875 282.546875 L 185.390625 282.546875 L 185.390625 270.492188 L 196.175781 270.492188 C 196.691406 270.492188 197.117188 270.675781 197.449219 271.058594 C 197.730469 271.386719 197.917969 271.859375 197.917969 272.375 L 197.917969 273.648438 C 197.917969 274.164062 197.730469 274.636719 197.449219 274.964844 C 197.117188 275.296875 196.691406 275.535156 196.175781 275.535156 L 187.367188 275.535156 L 187.367188 276.523438 L 196.175781 276.523438 C 196.691406 276.523438 197.117188 276.753906 197.449219 277.136719 C 197.730469 277.464844 197.917969 277.9375 197.917969 278.410156 L 197.917969 282.570312 Z M 197.910156 282.570312 Z M 199.183594 283.746094 L 196.730469 283.746094 L 196.730469 278.421875 C 196.730469 278.234375 196.632812 278.050781 196.542969 277.90625 C 196.445312 277.808594 196.308594 277.71875 196.167969 277.71875 L 186.566406 277.71875 L 186.566406 283.75 L 183.496094 283.75 L 183.496094 268.402344 L 196.167969 268.402344 C 197.199219 268.402344 198.097656 268.828125 198.757812 269.578125 C 199.371094 270.28125 199.746094 271.320312 199.746094 272.398438 L 199.746094 273.671875 C 199.746094 274.1875 199.648438 274.660156 199.511719 275.128906 C 199.414062 275.460938 199.230469 275.742188 199.085938 276.027344 C 199.230469 276.359375 199.414062 276.6875 199.511719 276.972656 C 199.65625 277.441406 199.746094 277.960938 199.746094 278.429688 L 199.746094 283.75 L 199.183594 283.75 Z M 199.183594 283.746094 Z M 186.566406 271.695312 L 186.566406 274.382812 L 196.167969 274.382812 C 196.308594 274.382812 196.453125 274.335938 196.542969 274.195312 C 196.640625 274.097656 196.730469 273.910156 196.730469 273.679688 L 196.730469 272.40625 C 196.730469 272.175781 196.632812 271.980469 196.542969 271.835938 C 196.445312 271.738281 196.308594 271.695312 196.167969 271.695312 Z M 186.566406 271.695312 Z M 211.613281 282.570312 L 212.316406 282.570312 L 212.316406 270.511719 L 218.910156 270.511719 L 218.910156 269.570312 L 205.019531 269.570312 L 205.019531 270.511719 L 211.613281 270.511719 Z M 211.613281 282.570312 Z M 212.933594 283.746094 L 210.433594 283.746094 L 210.433594 271.6875 L 203.839844 271.6875 L 203.839844 268.394531 L 220.085938 268.394531 L 220.085938 271.6875 L 213.492188 271.6875 L 213.492188 283.746094 Z M 212.933594 283.746094 Z M 227.765625 282.570312 L 238.832031 282.570312 L 238.832031 281.625 L 227.765625 281.625 C 227.292969 281.625 226.820312 281.394531 226.539062 281.011719 C 226.253906 280.683594 226.066406 280.210938 226.066406 279.742188 L 226.066406 276.539062 L 238.824219 276.539062 L 238.824219 275.550781 L 226.066406 275.550781 L 226.066406 272.390625 C 226.066406 271.875 226.253906 271.402344 226.539062 271.074219 C 226.820312 270.699219 227.292969 270.503906 227.765625 270.503906 L 238.832031 270.503906 L 238.832031 269.5625 L 227.765625 269.5625 C 227.105469 269.5625 226.539062 269.847656 226.074219 270.316406 C 225.648438 270.835938 225.371094 271.589844 225.371094 272.390625 L 225.371094 279.734375 C 225.371094 280.535156 225.65625 281.238281 226.074219 281.761719 C 226.539062 282.285156 227.105469 282.570312 227.765625 282.570312 Z M 227.765625 282.570312 Z M 239.441406 283.746094 L 227.765625 283.746094 C 226.777344 283.746094 225.832031 283.273438 225.21875 282.515625 C 224.5625 281.8125 224.1875 280.824219 224.1875 279.742188 L 224.1875 272.398438 C 224.1875 271.3125 224.5625 270.28125 225.21875 269.578125 C 225.832031 268.820312 226.777344 268.402344 227.765625 268.402344 L 240.007812 268.402344 L 240.007812 271.695312 L 227.765625 271.695312 C 227.621094 271.695312 227.53125 271.738281 227.433594 271.835938 C 227.292969 271.980469 227.25 272.167969 227.25 272.40625 L 227.25 274.382812 L 240.015625 274.382812 L 240.015625 277.71875 L 227.25 277.71875 L 227.25 279.746094 C 227.25 279.933594 227.292969 280.121094 227.433594 280.265625 C 227.53125 280.363281 227.621094 280.453125 227.765625 280.453125 L 240.007812 280.453125 L 240.007812 283.75 L 239.441406 283.75 Z M 239.441406 283.746094 Z M 252.296875 282.570312 L 263.367188 282.570312 L 263.367188 281.625 L 252.296875 281.625 C 251.824219 281.625 251.398438 281.394531 251.070312 281.011719 C 250.785156 280.683594 250.597656 280.210938 250.597656 279.742188 L 250.597656 272.398438 C 250.597656 271.882812 250.785156 271.410156 251.070312 271.082031 C 251.355469 270.707031 251.824219 270.511719 252.296875 270.511719 L 263.367188 270.511719 L 263.367188 269.570312 L 252.296875 269.570312 C 251.636719 269.570312 251.070312 269.855469 250.605469 270.324219 C 250.179688 270.84375 249.902344 271.597656 249.902344 272.398438 L 249.902344 279.742188 C 249.902344 280.542969 250.1875 281.246094 250.605469 281.769531 C 251.070312 282.285156 251.636719 282.570312 252.296875 282.570312 Z M 252.296875 282.570312 Z M 263.972656 283.746094 L 252.296875 283.746094 C 251.308594 283.746094 250.410156 283.273438 249.753906 282.515625 C 249.09375 281.8125 248.71875 280.824219 248.71875 279.742188 L 248.71875 272.398438 C 248.71875 271.3125 249.09375 270.28125 249.753906 269.578125 C 250.410156 268.820312 251.308594 268.402344 252.296875 268.402344 L 264.53125 268.402344 L 264.53125 271.695312 L 252.296875 271.695312 C 252.15625 271.695312 252.066406 271.738281 251.96875 271.835938 C 251.824219 271.980469 251.78125 272.167969 251.78125 272.40625 L 251.78125 279.746094 C 251.78125 279.933594 251.824219 280.121094 251.96875 280.265625 C 252.066406 280.363281 252.15625 280.453125 252.296875 280.453125 L 264.53125 280.453125 L 264.53125 283.75 L 263.972656 283.75 Z M 263.972656 283.746094 Z M 272.257812 282.570312 L 282.472656 282.570312 L 282.472656 281.625 L 272.257812 281.625 C 271.738281 281.625 271.3125 281.394531 270.984375 281.011719 C 270.699219 280.683594 270.511719 280.210938 270.511719 279.742188 L 270.511719 269.570312 L 269.808594 269.570312 L 269.808594 279.742188 C 269.808594 280.542969 270.09375 281.246094 270.566406 281.769531 C 270.984375 282.285156 271.597656 282.570312 272.257812 282.570312 Z M 272.257812 282.570312 Z M 283.085938 283.746094 L 272.257812 283.746094 C 271.222656 283.746094 270.324219 283.273438 269.667969 282.515625 C 269.054688 281.8125 268.632812 280.824219 268.632812 279.742188 L 268.632812 268.394531 L 271.703125 268.394531 L 271.703125 279.742188 C 271.703125 279.925781 271.800781 280.113281 271.890625 280.257812 C 271.988281 280.355469 272.121094 280.445312 272.265625 280.445312 L 283.660156 280.445312 L 283.660156 283.746094 Z M 283.085938 283.746094 Z M 291.9375 282.570312 L 300.980469 282.570312 C 301.636719 282.570312 302.253906 282.285156 302.671875 281.769531 C 303.097656 281.253906 303.375 280.542969 303.375 279.742188 L 303.375 269.570312 L 302.714844 269.570312 L 302.714844 279.742188 C 302.714844 280.210938 302.527344 280.683594 302.246094 281.011719 C 301.914062 281.386719 301.488281 281.625 300.972656 281.625 L 291.933594 281.625 C 291.414062 281.625 290.988281 281.394531 290.660156 281.011719 C 290.375 280.683594 290.1875 280.210938 290.1875 279.742188 L 290.1875 269.570312 L 289.484375 269.570312 L 289.484375 279.742188 C 289.484375 280.542969 289.769531 281.246094 290.242188 281.769531 C 290.667969 282.285156 291.28125 282.570312 291.9375 282.570312 Z M 291.9375 282.570312 Z M 300.980469 283.746094 L 291.9375 283.746094 C 290.90625 283.746094 290.007812 283.273438 289.351562 282.515625 C 288.734375 281.8125 288.316406 280.824219 288.316406 279.742188 L 288.316406 268.394531 L 291.386719 268.394531 L 291.386719 279.742188 C 291.386719 279.925781 291.484375 280.113281 291.574219 280.257812 C 291.667969 280.355469 291.804688 280.445312 291.945312 280.445312 L 300.988281 280.445312 C 301.128906 280.445312 301.273438 280.347656 301.363281 280.257812 C 301.457031 280.113281 301.546875 279.925781 301.546875 279.742188 L 301.546875 268.394531 L 304.570312 268.394531 L 304.570312 279.742188 C 304.570312 280.824219 304.199219 281.8125 303.585938 282.515625 C 302.910156 283.28125 302.019531 283.746094 300.980469 283.746094 Z M 300.980469 283.746094 Z M 309.832031 282.570312 L 321.320312 282.570312 C 321.980469 282.570312 322.59375 282.285156 323.011719 281.769531 C 323.4375 281.253906 323.714844 280.542969 323.714844 279.742188 L 323.714844 278.421875 C 323.714844 278.050781 323.671875 277.71875 323.527344 277.339844 C 323.429688 277.007812 323.246094 276.722656 323.058594 276.441406 L 322.726562 276.011719 L 323.058594 275.640625 L 323.199219 275.453125 C 323.527344 275.078125 323.714844 274.839844 323.714844 274.277344 L 323.714844 272.390625 C 323.714844 271.589844 323.429688 270.835938 323.011719 270.316406 C 322.585938 269.847656 321.980469 269.5625 321.320312 269.5625 L 309.832031 269.5625 Z M 309.832031 282.570312 Z M 321.320312 283.746094 L 308.652344 283.746094 L 308.652344 268.394531 L 321.320312 268.394531 C 322.355469 268.394531 323.25 268.820312 323.867188 269.570312 C 324.523438 270.273438 324.898438 271.3125 324.898438 272.390625 L 324.898438 274.277344 C 324.898438 275.175781 324.667969 275.550781 324.238281 276.109375 C 324.425781 276.394531 324.570312 276.679688 324.667969 276.957031 C 324.808594 277.429688 324.898438 277.945312 324.898438 278.414062 L 324.898438 279.734375 C 324.898438 280.816406 324.523438 281.804688 323.867188 282.507812 C 323.25 283.28125 322.359375 283.746094 321.320312 283.746094 Z M 321.320312 283.746094 Z M 321.320312 281.625 L 310.535156 281.625 L 310.535156 270.503906 L 321.320312 270.503906 C 321.835938 270.503906 322.265625 270.691406 322.59375 271.074219 C 322.878906 271.402344 323.066406 271.875 323.066406 272.390625 L 323.066406 274.277344 C 323.066406 275.550781 322.308594 275.550781 321.375 275.550781 L 312.519531 275.550781 L 312.519531 276.539062 L 321.328125 276.539062 C 321.84375 276.539062 322.269531 276.769531 322.601562 277.152344 C 322.886719 277.480469 323.070312 277.953125 323.070312 278.421875 L 323.070312 279.742188 C 323.070312 280.210938 322.886719 280.683594 322.601562 281.011719 C 322.265625 281.394531 321.835938 281.625 321.320312 281.625 Z M 321.320312 281.625 Z M 311.71875 280.453125 L 321.320312 280.453125 C 321.464844 280.453125 321.605469 280.355469 321.695312 280.265625 C 321.792969 280.121094 321.882812 279.933594 321.882812 279.746094 L 321.882812 278.429688 C 321.882812 278.242188 321.785156 278.054688 321.695312 277.914062 C 321.597656 277.816406 321.464844 277.726562 321.320312 277.726562 L 311.71875 277.726562 Z M 311.71875 280.453125 Z M 311.71875 271.695312 L 311.71875 274.382812 L 321.367188 274.382812 C 321.648438 274.382812 321.882812 274.382812 321.882812 274.285156 L 321.882812 272.398438 C 321.882812 272.167969 321.785156 271.972656 321.695312 271.828125 C 321.597656 271.734375 321.464844 271.6875 321.320312 271.6875 L 311.71875 271.6875 Z M 311.71875 271.695312 Z M 332.578125 282.570312 L 343.644531 282.570312 L 343.644531 281.625 L 332.578125 281.625 C 332.105469 281.625 331.679688 281.394531 331.347656 281.011719 C 331.066406 280.683594 330.878906 280.210938 330.878906 279.742188 L 330.878906 276.539062 L 343.644531 276.539062 L 343.644531 275.550781 L 330.878906 275.550781 L 330.878906 272.390625 C 330.878906 271.875 331.066406 271.402344 331.347656 271.074219 C 331.679688 270.699219 332.105469 270.503906 332.578125 270.503906 L 343.644531 270.503906 L 343.644531 269.5625 L 332.578125 269.5625 C 331.917969 269.5625 331.347656 269.847656 330.929688 270.316406 C 330.457031 270.835938 330.175781 271.589844 330.175781 272.390625 L 330.175781 279.734375 C 330.175781 280.535156 330.457031 281.238281 330.929688 281.761719 C 331.347656 282.285156 331.917969 282.570312 332.578125 282.570312 Z M 332.578125 282.570312 Z M 344.25 283.746094 L 332.578125 283.746094 C 331.589844 283.746094 330.691406 283.273438 330.03125 282.515625 C 329.375 281.8125 329 280.824219 329 279.742188 L 329 272.398438 C 329 271.3125 329.375 270.28125 330.03125 269.578125 C 330.691406 268.820312 331.589844 268.402344 332.578125 268.402344 L 344.820312 268.402344 L 344.820312 271.695312 L 332.578125 271.695312 C 332.433594 271.695312 332.34375 271.738281 332.246094 271.835938 C 332.105469 271.980469 332.058594 272.167969 332.058594 272.40625 L 332.058594 274.382812 L 344.828125 274.382812 L 344.828125 277.71875 L 332.058594 277.71875 L 332.058594 279.746094 C 332.058594 279.933594 332.105469 280.121094 332.246094 280.265625 C 332.34375 280.363281 332.433594 280.453125 332.578125 280.453125 L 344.820312 280.453125 L 344.820312 283.75 L 344.25 283.75 Z M 344.25 283.746094 " fill-opacity="1" fill-rule="evenodd"/></svg>