<svg xmlns="http://www.w3.org/2000/svg" xmlns:xlink="http://www.w3.org/1999/xlink" width="372" zoomAndPan="magnify" viewBox="0 0 279 278.999983" height="372" preserveAspectRatio="xMidYMid meet" version="1.0"><path fill="#165b8e" d="M 139.5 0 C 216.328125 0 278.996094 62.667969 278.996094 139.496094 C 278.996094 216.324219 216.328125 279 139.5 279 C 62.671875 279 0.00390625 216.324219 0.00390625 139.496094 C 0.00390625 62.667969 62.671875 0 139.5 0 " fill-opacity="1" fill-rule="nonzero"/><path fill="#ffffff" d="M 139.5 4.078125 C 214.089844 4.078125 274.917969 64.914062 274.917969 139.496094 C 274.917969 214.078125 214.089844 274.914062 139.5 274.914062 C 64.917969 274.914062 4.089844 214.085938 4.089844 139.496094 C 4.089844 64.914062 64.917969 4.078125 139.5 4.078125 " fill-opacity="1" fill-rule="nonzero"/><path fill="#165b8e" d="M 139.5 43.523438 C 192.359375 43.523438 235.472656 86.636719 235.472656 139.496094 C 235.472656 192.355469 192.359375 235.46875 139.5 235.46875 C 86.640625 235.46875 43.527344 192.347656 43.527344 139.496094 C 43.527344 86.636719 86.640625 43.523438 139.5 43.523438 " fill-opacity="1" fill-rule="nonzero"/><path fill="#165b8e" d="M 11.296875 121.089844 L 37.925781 123.421875 L 35.859375 147.167969 L 30.113281 146.664062 L 31.410156 131.839844 L 27.167969 131.472656 L 25.96875 145.179688 L 20.300781 144.675781 L 21.5 130.972656 L 16.332031 130.519531 L 14.992188 145.90625 L 9.171875 145.398438 Z M 20.765625 161.140625 L 20.699219 161.15625 L 19.957031 161.253906 C 18.949219 161.488281 18.3125 162.085938 18.007812 163.070312 C 17.707031 164.050781 17.765625 165.453125 18.1875 167.261719 C 18.507812 168.648438 18.957031 169.683594 19.542969 170.363281 C 20.136719 171.046875 20.78125 171.308594 21.484375 171.144531 C 22.542969 170.898438 23.058594 169.148438 23.03125 165.894531 L 23.023438 165.042969 L 23.015625 164.132812 C 22.941406 158.976562 23.375 155.550781 24.320312 153.839844 C 24.753906 153.042969 25.355469 152.363281 26.125 151.785156 C 26.507812 151.507812 26.914062 151.28125 27.347656 151.09375 C 27.777344 150.90625 28.269531 150.75 28.832031 150.621094 C 31.375 150.03125 33.578125 150.714844 35.46875 152.664062 C 37.34375 154.613281 38.78125 157.769531 39.785156 162.117188 C 40.785156 166.429688 40.898438 169.765625 40.109375 172.117188 C 39.328125 174.472656 37.628906 175.957031 35.019531 176.558594 L 34.71875 176.625 L 32.828125 168.484375 L 32.949219 168.453125 C 33.832031 168.25 34.417969 167.679688 34.695312 166.75 C 34.832031 166.285156 34.898438 165.746094 34.875 165.125 C 34.859375 164.507812 34.757812 163.789062 34.5625 162.964844 C 34.277344 161.710938 33.894531 160.796875 33.414062 160.207031 C 32.933594 159.613281 32.386719 159.394531 31.765625 159.539062 C 30.691406 159.785156 30.175781 161.773438 30.21875 165.507812 L 30.257812 167.191406 C 30.273438 169.914062 30.203125 171.839844 30.054688 172.957031 C 29.90625 174.082031 29.628906 175.101562 29.246094 176.03125 C 28.808594 177.050781 28.15625 177.914062 27.304688 178.605469 C 26.433594 179.300781 25.429688 179.78125 24.296875 180.042969 C 21.648438 180.652344 19.324219 179.894531 17.332031 177.757812 C 15.335938 175.621094 13.808594 172.238281 12.734375 167.628906 C 11.683594 163.0625 11.609375 159.589844 12.503906 157.234375 C 13.410156 154.875 15.367188 153.351562 18.386719 152.648438 L 18.777344 152.558594 Z M 42.605469 188.523438 L 37.753906 191.328125 L 40.296875 195.722656 C 40.902344 196.765625 41.550781 197.425781 42.238281 197.6875 C 42.9375 197.949219 43.6875 197.84375 44.519531 197.371094 C 45.304688 196.914062 45.746094 196.3125 45.867188 195.570312 C 45.980469 194.828125 45.738281 193.945312 45.148438 192.917969 Z M 19.796875 191.3125 L 42.949219 177.945312 L 51.152344 192.152344 C 52.953125 195.273438 53.710938 197.859375 53.417969 199.90625 C 53.125 201.960938 51.753906 203.683594 49.324219 205.09375 C 46.878906 206.503906 44.554688 206.863281 42.335938 206.160156 C 40.117188 205.460938 38.242188 203.78125 36.71875 201.136719 L 32.730469 194.222656 L 24.296875 199.089844 Z M 53.703125 218.367188 C 51.8125 220.324219 50.839844 222.21875 50.765625 224.046875 C 50.703125 225.886719 51.550781 227.648438 53.304688 229.34375 C 55.066406 231.042969 56.882812 231.855469 58.71875 231.757812 C 60.5625 231.667969 62.398438 230.667969 64.230469 228.773438 C 66.214844 226.710938 67.273438 224.699219 67.417969 222.730469 C 67.542969 220.757812 66.726562 218.90625 64.933594 217.1875 C 63.292969 215.597656 61.492188 214.910156 59.519531 215.105469 C 57.550781 215.304688 55.605469 216.394531 53.703125 218.367188 M 49.234375 232.941406 C 45.417969 229.257812 43.347656 225.609375 43.011719 222.007812 C 42.679688 218.394531 44.097656 214.960938 47.261719 211.683594 C 50.320312 208.511719 53.726562 207.082031 57.464844 207.386719 C 61.207031 207.703125 65.03125 209.742188 68.929688 213.515625 C 72.792969 217.242188 74.898438 220.945312 75.273438 224.625 C 75.640625 228.308594 74.238281 231.792969 71.066406 235.070312 C 67.972656 238.28125 64.574219 239.703125 60.878906 239.351562 C 57.167969 239 53.289062 236.863281 49.234375 232.941406 M 88.695312 234.792969 L 86.265625 239.554688 L 90.785156 241.855469 C 91.875 242.410156 92.773438 242.628906 93.472656 242.5 C 94.167969 242.378906 94.738281 241.910156 95.152344 241.089844 C 95.578125 240.257812 95.636719 239.53125 95.339844 238.902344 C 95.039062 238.265625 94.339844 237.664062 93.214844 237.09375 Z M 71.039062 249.722656 L 83.175781 225.902344 L 96.832031 232.859375 C 98.253906 233.585938 99.4375 234.214844 100.382812 234.75 C 101.328125 235.28125 102.042969 235.730469 102.507812 236.089844 C 103.449219 236.789062 104.148438 237.539062 104.589844 238.339844 C 105.023438 239.140625 105.234375 240.070312 105.199219 241.144531 C 105.167969 242.214844 104.890625 243.265625 104.371094 244.285156 C 103.570312 245.851562 102.394531 246.863281 100.855469 247.308594 C 99.3125 247.742188 97.566406 247.570312 95.609375 246.773438 C 96.550781 247.253906 97.324219 247.773438 97.902344 248.304688 C 98.480469 248.84375 98.90625 249.414062 99.191406 250.011719 C 99.710938 251.0625 99.664062 252.390625 99.0625 253.980469 L 97.480469 258.15625 C 97.265625 258.726562 97.054688 259.371094 96.875 260.105469 L 96.34375 262.601562 L 88.074219 258.386719 C 88.101562 258.148438 88.140625 257.894531 88.199219 257.644531 C 88.253906 257.390625 88.351562 257.046875 88.5 256.605469 C 88.640625 256.160156 88.71875 255.90625 88.738281 255.855469 C 88.867188 255.496094 89.015625 255.140625 89.199219 254.789062 L 90.644531 251.378906 C 90.914062 250.851562 91.078125 250.382812 91.132812 249.96875 C 91.183594 249.554688 91.152344 249.179688 91.027344 248.84375 C 90.808594 248.257812 90.058594 247.644531 88.792969 247 L 83.769531 244.433594 L 79.015625 253.769531 Z M 113.566406 266.238281 L 117.546875 245.753906 L 107.777344 243.859375 L 108.902344 238.09375 L 137.386719 243.632812 L 136.269531 249.398438 L 126.5 247.5 L 122.515625 267.976562 Z M 141.734375 269.867188 L 138.472656 243.324219 L 162.136719 240.425781 L 162.832031 246.144531 L 148.070312 247.960938 L 148.585938 252.1875 L 162.25 250.507812 L 162.9375 256.160156 L 149.285156 257.839844 L 149.914062 262.984375 L 165.246094 261.101562 L 165.960938 266.898438 Z M 197.023438 235.746094 C 196.234375 234.710938 195.3125 234.089844 194.257812 233.894531 C 193.191406 233.691406 192.015625 233.921875 190.710938 234.589844 C 188.648438 235.648438 187.386719 237.101562 186.9375 238.976562 C 186.488281 240.859375 186.886719 242.996094 188.109375 245.410156 C 189.292969 247.726562 190.746094 249.226562 192.488281 249.921875 C 194.21875 250.613281 196.109375 250.449219 198.140625 249.40625 C 199.617188 248.65625 200.613281 247.695312 201.148438 246.535156 C 201.679688 245.363281 201.703125 244.023438 201.214844 242.515625 L 209.640625 238.21875 C 210.925781 241.464844 210.804688 244.433594 209.25 247.105469 C 207.707031 249.78125 204.632812 252.285156 200.035156 254.625 C 195.613281 256.882812 191.632812 257.601562 188.101562 256.777344 C 184.570312 255.960938 181.855469 253.6875 179.957031 249.960938 C 177.886719 245.90625 177.566406 242.109375 178.992188 238.585938 C 180.414062 235.0625 183.488281 232.09375 188.199219 229.695312 C 192.328125 227.59375 195.824219 226.703125 198.679688 227.019531 C 200.171875 227.160156 201.484375 227.585938 202.585938 228.300781 C 203.769531 229.050781 204.707031 230.105469 205.398438 231.464844 Z M 234.160156 220.039062 L 238.214844 224.234375 L 221.609375 240.273438 L 203.035156 221.035156 L 209.605469 214.691406 L 224.128906 229.730469 Z M 221.0625 203.902344 L 225.484375 196.222656 L 238.671875 203.835938 C 240.59375 204.9375 242.273438 205.320312 243.703125 204.972656 C 245.152344 204.628906 246.402344 203.535156 247.460938 201.691406 C 248.488281 199.914062 248.789062 198.300781 248.367188 196.855469 C 247.941406 195.40625 246.785156 194.140625 244.894531 193.054688 L 231.714844 185.441406 L 236.019531 177.988281 L 249.109375 185.546875 C 252.707031 187.625 254.742188 190.203125 255.214844 193.277344 C 255.679688 196.351562 254.613281 200.152344 252.003906 204.675781 C 249.402344 209.171875 246.6875 211.953125 243.855469 213.019531 C 241.019531 214.085938 237.78125 213.566406 234.144531 211.460938 Z M 244.054688 167.6875 L 249.492188 168.941406 L 250.550781 164.351562 C 250.8125 163.234375 250.78125 162.34375 250.453125 161.691406 C 250.121094 161.03125 249.507812 160.59375 248.601562 160.386719 C 247.730469 160.183594 246.996094 160.308594 246.394531 160.761719 C 245.796875 161.210938 245.367188 161.988281 245.113281 163.097656 Z M 253.820312 169.9375 L 259.539062 171.265625 L 260.761719 165.976562 C 261.046875 164.734375 261.03125 163.730469 260.695312 162.980469 C 260.355469 162.230469 259.710938 161.742188 258.773438 161.523438 C 257.835938 161.308594 257.050781 161.464844 256.421875 161.988281 C 255.78125 162.523438 255.316406 163.40625 255.035156 164.652344 Z M 262.875 180.945312 L 236.820312 174.929688 L 240.546875 158.789062 C 240.773438 157.789062 240.984375 156.957031 241.175781 156.296875 C 241.363281 155.644531 241.550781 155.085938 241.753906 154.632812 C 241.949219 154.175781 242.144531 153.78125 242.339844 153.457031 C 242.535156 153.128906 242.773438 152.8125 243.074219 152.496094 C 243.777344 151.703125 244.632812 151.171875 245.632812 150.898438 C 246.636719 150.628906 247.746094 150.636719 248.96875 150.914062 C 250.429688 151.253906 251.523438 151.949219 252.265625 153.015625 C 253.015625 154.078125 253.457031 155.59375 253.601562 157.550781 C 254.628906 155.464844 255.804688 154.058594 257.140625 153.316406 C 258.46875 152.574219 260.0625 152.414062 261.921875 152.851562 C 264.210938 153.375 265.800781 154.46875 266.691406 156.117188 C 267.578125 157.769531 267.71875 159.933594 267.097656 162.621094 Z M 269.863281 144.511719 L 243.222656 146.84375 L 241.148438 123.097656 L 246.890625 122.597656 L 248.1875 137.417969 L 252.429688 137.042969 L 251.230469 123.339844 L 256.90625 122.84375 L 258.109375 136.550781 L 263.265625 136.101562 L 261.917969 120.714844 L 267.726562 120.203125 Z M 40.695312 72.332031 C 39.496094 71.820312 38.386719 71.753906 37.371094 72.105469 C 36.351562 72.464844 35.453125 73.253906 34.652344 74.484375 C 33.382812 76.433594 33.023438 78.320312 33.570312 80.171875 C 34.125 82.027344 35.535156 83.683594 37.808594 85.160156 C 39.988281 86.578125 42 87.148438 43.851562 86.882812 C 45.703125 86.613281 47.246094 85.519531 48.492188 83.609375 C 49.398438 82.21875 49.78125 80.886719 49.660156 79.613281 C 49.542969 78.335938 48.890625 77.160156 47.710938 76.09375 L 52.871094 68.164062 C 55.613281 70.335938 56.980469 72.960938 56.980469 76.050781 C 56.980469 79.140625 55.570312 82.851562 52.765625 87.167969 C 50.058594 91.339844 46.96875 93.945312 43.507812 95.003906 C 40.042969 96.0625 36.554688 95.453125 33.054688 93.175781 C 29.230469 90.691406 27.054688 87.566406 26.523438 83.800781 C 25.992188 80.039062 27.167969 75.9375 30.054688 71.5 C 32.574219 67.613281 35.152344 65.097656 37.792969 63.941406 C 39.15625 63.320312 40.507812 63.035156 41.8125 63.09375 C 43.222656 63.152344 44.554688 63.605469 45.832031 64.429688 Z M 56.730469 48.398438 L 60.242188 52.433594 L 64.066406 49.101562 C 64.996094 48.300781 65.527344 47.550781 65.667969 46.855469 C 65.820312 46.15625 65.59375 45.464844 64.996094 44.769531 C 64.386719 44.066406 63.726562 43.734375 63.03125 43.773438 C 62.332031 43.808594 61.507812 44.238281 60.5625 45.0625 Z M 63.953125 70.359375 L 46.421875 50.183594 L 57.992188 40.121094 C 59.199219 39.070312 60.21875 38.207031 61.074219 37.542969 C 61.929688 36.859375 62.601562 36.371094 63.121094 36.070312 C 64.125 35.457031 65.078125 35.097656 65.984375 34.984375 C 66.890625 34.878906 67.828125 35.039062 68.8125 35.464844 C 69.792969 35.890625 70.65625 36.535156 71.414062 37.40625 C 72.566406 38.734375 73.0625 40.203125 72.898438 41.792969 C 72.726562 43.390625 71.90625 44.941406 70.4375 46.457031 C 71.238281 45.757812 72.003906 45.242188 72.71875 44.902344 C 73.429688 44.566406 74.125 44.386719 74.777344 44.355469 C 75.949219 44.265625 77.164062 44.808594 78.402344 45.960938 L 81.691406 48.992188 C 82.128906 49.410156 82.660156 49.835938 83.273438 50.289062 L 85.382812 51.71875 L 78.386719 57.808594 C 78.167969 57.695312 77.949219 57.558594 77.742188 57.417969 C 77.523438 57.277344 77.238281 57.050781 76.886719 56.75 C 76.535156 56.449219 76.324219 56.285156 76.277344 56.242188 C 75.992188 55.992188 75.722656 55.714844 75.460938 55.417969 L 72.835938 52.792969 C 72.449219 52.34375 72.074219 52.019531 71.710938 51.816406 C 71.351562 51.605469 70.992188 51.503906 70.632812 51.496094 C 70.003906 51.480469 69.15625 51.929688 68.082031 52.867188 L 63.824219 56.5625 L 70.699219 64.472656 Z M 78.691406 25.484375 L 86.910156 22.164062 L 92.617188 36.28125 C 93.441406 38.328125 94.535156 39.664062 95.878906 40.277344 C 97.21875 40.894531 98.890625 40.804688 100.863281 40.007812 C 102.769531 39.242188 103.996094 38.148438 104.554688 36.753906 C 105.101562 35.351562 104.972656 33.636719 104.164062 31.617188 L 98.457031 17.5 L 106.441406 14.277344 L 112.101562 28.296875 C 113.664062 32.152344 113.675781 35.433594 112.15625 38.148438 C 110.632812 40.855469 107.445312 43.195312 102.609375 45.152344 C 97.796875 47.101562 93.9375 47.617188 91.050781 46.710938 C 88.164062 45.804688 85.9375 43.40625 84.359375 39.503906 Z M 131.761719 32.105469 L 148.023438 31.820312 L 148.128906 37.652344 L 121.492188 38.117188 L 121.355469 30.761719 L 136.179688 16.996094 L 121.933594 17.246094 L 121.828125 11.375 L 147.140625 10.933594 L 147.269531 18.03125 Z M 152.644531 38.292969 L 158.199219 12.140625 L 181.515625 17.09375 L 180.316406 22.734375 L 165.765625 19.644531 L 164.878906 23.8125 L 178.339844 26.675781 L 177.152344 32.246094 L 163.695312 29.390625 L 162.617188 34.460938 L 177.722656 37.667969 L 176.515625 43.382812 Z M 179.933594 45.953125 L 192.066406 22.125 L 200.210938 26.273438 L 188.070312 50.09375 Z M 213.195312 40.976562 L 209.902344 45.1875 L 213.902344 48.316406 C 214.867188 49.066406 215.699219 49.449219 216.414062 49.457031 C 217.125 49.46875 217.761719 49.117188 218.324219 48.390625 C 218.902344 47.65625 219.097656 46.949219 218.929688 46.277344 C 218.757812 45.59375 218.183594 44.875 217.183594 44.101562 Z M 193.011719 52.265625 L 209.476562 31.199219 L 221.5625 40.636719 C 222.816406 41.621094 223.863281 42.46875 224.683594 43.171875 C 225.515625 43.882812 226.113281 44.453125 226.511719 44.898438 C 227.304688 45.765625 227.847656 46.628906 228.125 47.507812 C 228.402344 48.375 228.429688 49.335938 228.191406 50.378906 C 227.964844 51.425781 227.492188 52.402344 226.78125 53.300781 C 225.695312 54.6875 224.351562 55.453125 222.761719 55.597656 C 221.160156 55.730469 219.480469 55.230469 217.703125 54.074219 C 218.542969 54.726562 219.195312 55.378906 219.667969 56.015625 C 220.136719 56.652344 220.4375 57.296875 220.601562 57.941406 C 220.910156 59.074219 220.609375 60.363281 219.71875 61.8125 L 217.371094 65.613281 C 217.050781 66.121094 216.726562 66.730469 216.40625 67.414062 L 215.40625 69.75 L 208.089844 64.039062 C 208.164062 63.804688 208.253906 63.574219 208.351562 63.332031 C 208.449219 63.09375 208.621094 62.769531 208.839844 62.367188 C 209.0625 61.960938 209.191406 61.730469 209.222656 61.675781 C 209.417969 61.347656 209.632812 61.03125 209.875 60.71875 L 211.957031 57.644531 C 212.320312 57.179688 212.566406 56.742188 212.699219 56.351562 C 212.828125 55.957031 212.875 55.589844 212.8125 55.230469 C 212.707031 54.613281 212.101562 53.863281 210.976562 52.988281 L 206.539062 49.515625 L 200.089844 57.769531 Z M 233.085938 72.609375 C 230.808594 74.09375 229.429688 75.71875 228.949219 77.488281 C 228.476562 79.257812 228.894531 81.171875 230.230469 83.21875 C 231.566406 85.273438 233.148438 86.464844 234.960938 86.792969 C 236.785156 87.117188 238.792969 86.5625 241.003906 85.128906 C 243.402344 83.570312 244.890625 81.847656 245.457031 79.949219 C 246.027344 78.058594 245.644531 76.074219 244.296875 73.996094 C 243.050781 72.082031 241.453125 70.996094 239.484375 70.75 C 237.519531 70.492188 235.390625 71.117188 233.085938 72.609375 M 225.453125 85.804688 C 222.558594 81.359375 221.359375 77.339844 221.847656 73.75 C 222.335938 70.15625 224.488281 67.128906 228.3125 64.644531 C 232.007812 62.246094 235.644531 61.617188 239.21875 62.757812 C 242.796875 63.902344 246.050781 66.746094 249.019531 71.304688 C 251.9375 75.800781 253.160156 79.890625 252.695312 83.554688 C 252.230469 87.230469 250.078125 90.304688 246.238281 92.792969 C 242.496094 95.222656 238.867188 95.84375 235.351562 94.667969 C 231.820312 93.496094 228.527344 90.535156 225.453125 85.804688 " fill-opacity="1" fill-rule="nonzero"/><path fill="#ffffff" d="M 146.351562 193.335938 L 149.914062 204.433594 L 161.609375 204.433594 L 152.082031 211.324219 L 155.792969 222.382812 L 146.253906 215.660156 L 136.914062 222.382812 L 140.519531 211.390625 L 130.9375 204.398438 L 142.761719 204.40625 Z M 198.164062 113.3125 L 201.722656 124.410156 L 213.421875 124.410156 L 203.890625 131.300781 L 207.59375 142.351562 L 198.066406 135.636719 L 188.730469 142.351562 L 192.328125 131.367188 L 182.746094 124.375 L 194.570312 124.386719 Z M 157.914062 138.335938 L 160.171875 145.351562 L 167.570312 145.351562 L 161.542969 149.707031 L 163.882812 156.703125 L 157.855469 152.445312 L 151.9375 156.703125 L 154.21875 149.753906 L 148.160156 145.328125 L 155.644531 145.335938 Z M 137.679688 62.628906 L 141.238281 73.726562 L 152.9375 73.726562 L 143.40625 80.617188 L 147.117188 91.667969 L 137.582031 84.949219 L 128.238281 91.667969 L 131.84375 80.683594 L 122.261719 73.6875 L 134.085938 73.695312 Z M 83.8125 116.117188 L 87.375 127.214844 L 99.070312 127.214844 L 89.535156 134.105469 L 93.246094 145.15625 L 83.714844 138.4375 L 74.375 145.15625 L 77.972656 134.171875 L 68.390625 127.175781 L 80.214844 127.183594 Z M 83.8125 116.117188 " fill-opacity="1" fill-rule="nonzero"/></svg>