<svg xmlns="http://www.w3.org/2000/svg" xmlns:xlink="http://www.w3.org/1999/xlink" width="705" zoomAndPan="magnify" viewBox="0 0 528.75 637.499986" height="850" preserveAspectRatio="xMidYMid meet" version="1.0"><defs><clipPath id="eecf880bcc"><path d="M 0.0820312 0 L 528.417969 0 L 528.417969 637 L 0.0820312 637 Z M 0.0820312 0 " clip-rule="nonzero"/></clipPath></defs><g clip-path="url(#eecf880bcc)"><path fill="#ffffff" d="M 528.417969 153.003906 L 528.417969 168.21875 C 527.660156 174.070312 527.894531 179.996094 527.449219 185.871094 C 523.5625 267.230469 500.878906 347.574219 461.914062 419.074219 C 456.390625 429.828125 449.855469 440.011719 443.742188 450.4375 C 438.324219 458.6875 432.90625 466.941406 427.359375 475.109375 C 419.859375 485.113281 412.820312 495.476562 404.773438 505.0625 C 398.65625 512.460938 392.847656 520.125 386.300781 527.148438 C 379.375 534.695312 372.816406 542.578125 365.496094 549.75 C 359.644531 555.640625 353.828125 561.574219 347.945312 567.445312 C 341.589844 573.339844 335.160156 579.15625 328.78125 585.03125 C 321.046875 592.324219 312.617188 598.8125 304.523438 605.6875 C 291.648438 616.800781 277.433594 626.226562 264.289062 636.972656 L 263.507812 636.972656 C 263.46875 636.832031 263.410156 636.539062 263.375 636.390625 C 250.152344 625.949219 236.207031 616.417969 223.40625 605.4375 C 215.164062 598.460938 206.597656 591.84375 198.757812 584.402344 C 190.367188 576.570312 181.621094 569.113281 173.683594 560.8125 C 166.558594 553.46875 159.070312 546.460938 152.339844 538.734375 C 146.898438 532.632812 141.375 526.617188 135.996094 520.46875 C 126.859375 509.152344 117.386719 498.109375 109.015625 486.199219 C 100.242188 474.757812 92.507812 462.585938 84.5625 450.558594 C 78.164062 439.707031 71.382812 429.058594 65.648438 417.816406 C 25.996094 344.644531 3.417969 262.253906 0.515625 179.0625 C 0.410156 175.859375 0.488281 172.652344 0.0820312 169.46875 L 0.0820312 152.464844 C 0.585938 148.132812 0.433594 143.757812 0.683594 139.417969 C 1.65625 120.105469 3.386719 100.746094 7.546875 81.832031 C 20.414062 85.910156 33.289062 90.121094 46.605469 92.519531 C 72.949219 97.773438 100.347656 98.160156 126.726562 92.910156 C 161.265625 86.15625 193.535156 69.742188 220.597656 47.417969 C 237.152344 33.691406 252.304688 18.019531 264.175781 0.0273438 C 272.320312 12.667969 282.363281 23.976562 293.125 34.445312 C 317.8125 58.269531 347.59375 77.179688 380.417969 87.496094 C 408.519531 96.453125 438.628906 98.769531 467.820312 94.78125 C 485.890625 92.59375 503.441406 87.542969 520.660156 81.816406 C 525.382812 102.929688 526.980469 124.59375 527.847656 146.167969 C 527.9375 148.449219 528.003906 150.746094 528.417969 153.003906 Z M 528.417969 153.003906 " fill-opacity="1" fill-rule="nonzero"/></g><path fill="#1f1a17" d="M 246.921875 28.804688 C 253.121094 22.214844 258.890625 15.222656 264.199219 7.894531 C 275.574219 23.96875 289.558594 38.097656 304.664062 50.679688 C 327.296875 69.371094 353.394531 84.050781 381.546875 92.527344 C 410.8125 101.445312 442.070312 103.300781 472.28125 98.707031 C 487.613281 96.429688 502.691406 92.5625 517.339844 87.511719 C 521.089844 106.324219 522.617188 125.507812 523.359375 144.648438 C 525.539062 211.839844 514.441406 279.339844 491.589844 342.53125 C 475.367188 387.433594 453.125 430.128906 425.964844 469.390625 C 382.371094 532.597656 326.324219 586.597656 264.101562 631.308594 C 229.335938 606.234375 196.464844 578.4375 166.648438 547.613281 C 129.226562 509.035156 96.597656 465.6875 70.871094 418.453125 C 25.390625 335.34375 1.894531 240.121094 4.871094 145.34375 C 5.566406 125.980469 7.171875 106.59375 10.867188 87.550781 C 38.167969 96.886719 67.066406 102.15625 95.976562 100.996094 C 126.574219 99.921875 156.800781 91.566406 183.839844 77.269531 C 207.40625 64.835938 228.699219 48.214844 246.921875 28.804688 Z M 264.136719 41.183594 C 249.351562 58.871094 231.125 73.460938 211.589844 85.570312 C 185.734375 101.480469 156.792969 112.347656 126.835938 117.308594 C 93.910156 122.863281 60.019531 121.152344 27.441406 114.160156 C 26.257812 121.242188 25.503906 128.402344 24.902344 135.558594 C 21.539062 179.472656 25.15625 223.792969 34.046875 266.882812 C 40.707031 298.9375 50.480469 330.335938 63.128906 360.53125 C 85.15625 413.257812 116.015625 462.152344 153.230469 505.460938 C 185.980469 543.710938 223.609375 577.621094 264.085938 607.523438 C 299.800781 581.226562 333.234375 551.726562 363.105469 518.910156 C 394.691406 484.265625 422.25 445.867188 444.265625 404.445312 C 474.917969 346.964844 494.746094 283.679688 501.769531 218.890625 C 505.359375 184.125 506.03125 148.820312 500.800781 114.191406 C 463.886719 122.074219 425.222656 123.175781 388.300781 114.746094 C 357.453125 107.84375 328.109375 94.527344 302.425781 76.121094 C 288.402344 65.988281 275.207031 54.53125 264.136719 41.183594 Z M 264.136719 41.183594 " fill-opacity="1" fill-rule="nonzero"/><path fill="#1f1a17" d="M 219.1875 95.382812 C 235.703125 84.628906 251.144531 72.042969 264.191406 57.238281 C 274.605469 69.363281 286.90625 79.757812 299.832031 89.09375 C 326.046875 107.820312 356.023438 121.347656 387.550781 128.101562 C 421.265625 135.445312 456.453125 134.800781 490.183594 127.882812 C 492.558594 144.332031 493.113281 161 492.957031 177.613281 C 492.640625 200.515625 490.527344 223.394531 486.773438 246 C 338.320312 245.945312 189.863281 245.992188 41.414062 245.976562 C 37.988281 224.855469 35.851562 203.515625 35.347656 182.117188 C 34.996094 164.011719 35.460938 145.824219 38.054688 127.875 C 69.132812 134.246094 101.433594 135.332031 132.714844 129.675781 C 163.460938 124.21875 192.988281 112.332031 219.1875 95.382812 Z M 113.917969 149.59375 C 105.644531 152.472656 98.480469 158.324219 93.960938 165.828125 C 87.417969 176.574219 86.078125 190.09375 89.464844 202.121094 C 92.183594 211.789062 98.53125 220.488281 107.261719 225.539062 C 117.589844 231.640625 130.457031 232.359375 141.832031 229.113281 C 150.324219 226.707031 158.328125 221.484375 162.660156 213.632812 C 156.785156 210.011719 150.902344 206.40625 145.019531 202.808594 C 143.03125 208.242188 137.59375 211.539062 132.105469 212.53125 C 126.5 213.652344 120.109375 212.882812 115.777344 208.863281 C 110.492188 204 108.722656 196.5 108.628906 189.566406 C 108.582031 182.566406 110.148438 174.976562 115.253906 169.851562 C 119.148438 165.878906 125.0625 164.703125 130.421875 165.40625 C 135.921875 166.035156 141.863281 168.21875 144.71875 173.296875 C 150.472656 169.828125 156.140625 166.199219 161.949219 162.804688 C 159.398438 158.617188 155.34375 155.574219 151.140625 153.167969 C 139.921875 147.023438 126.082031 145.308594 113.917969 149.59375 Z M 245.328125 148.972656 C 235.441406 175.777344 225.339844 202.511719 215.351562 229.285156 C 222.523438 229.382812 229.6875 229.308594 236.859375 229.324219 C 238.574219 224.519531 240.207031 219.679688 241.96875 214.890625 C 251.300781 214.933594 260.628906 214.898438 269.96875 214.90625 C 271.648438 219.707031 273.257812 224.535156 274.953125 229.339844 C 282.226562 229.277344 289.503906 229.414062 296.78125 229.265625 C 286.726562 202.496094 276.734375 175.695312 266.714844 148.90625 C 259.589844 148.933594 252.453125 148.816406 245.328125 148.972656 Z M 348.589844 148.90625 C 348.589844 175.710938 348.589844 202.515625 348.589844 229.324219 C 355.152344 229.332031 361.726562 229.332031 368.296875 229.324219 C 368.328125 209.179688 368.246094 189.035156 368.335938 168.890625 C 374.269531 188.953125 379.691406 209.179688 385.40625 229.316406 C 390.765625 229.300781 396.132812 229.421875 401.488281 229.242188 C 406.90625 209.195312 412.566406 189.207031 418.050781 169.175781 C 418.214844 170.488281 418.320312 171.8125 418.335938 173.15625 C 418.375 191.859375 418.492188 210.566406 418.515625 229.277344 C 425.097656 229.367188 431.675781 229.347656 438.257812 229.292969 C 438.167969 202.472656 438.382812 175.652344 438.144531 148.835938 C 427.914062 148.957031 417.683594 148.910156 407.457031 148.859375 C 402.71875 166.644531 398.246094 184.488281 393.574219 202.285156 C 388.660156 184.546875 384.199219 166.679688 379.441406 148.898438 C 369.160156 148.90625 358.871094 148.898438 348.589844 148.90625 Z M 348.589844 148.90625 " fill-opacity="1" fill-rule="nonzero"/><path fill="#1f1a17" d="M 246.773438 199.300781 C 249.921875 190.039062 252.625 180.621094 255.984375 171.433594 C 258.972656 180.746094 262.007812 190.046875 265.015625 199.363281 C 258.9375 199.332031 252.851562 199.4375 246.773438 199.300781 Z M 246.773438 199.300781 " fill-opacity="1" fill-rule="nonzero"/><path fill="#1f1a17" d="M 44.394531 262.277344 C 70.699219 262.296875 97.003906 262.277344 123.300781 262.28125 C 123.285156 324.027344 123.332031 385.769531 123.277344 447.515625 C 84.832031 391.96875 57.675781 328.546875 44.394531 262.277344 Z M 44.394531 262.277344 " fill-opacity="1" fill-rule="nonzero"/><path fill="#1f1a17" d="M 141.796875 262.289062 C 164.90625 262.304688 188.027344 262.238281 211.148438 262.320312 C 211.101562 357.503906 211.101562 452.6875 211.148438 547.867188 C 192.097656 530.765625 174.328125 512.242188 157.722656 492.757812 C 152.339844 486.222656 146.667969 479.824219 141.847656 472.890625 C 141.722656 402.691406 141.832031 332.488281 141.796875 262.289062 Z M 141.796875 262.289062 " fill-opacity="1" fill-rule="nonzero"/><path fill="#1f1a17" d="M 229.597656 262.304688 C 252.714844 262.277344 275.835938 262.277344 298.957031 262.304688 C 298.894531 362.867188 298.992188 463.433594 298.902344 563.996094 C 287.527344 573.445312 276 582.738281 264.054688 591.476562 C 252.34375 582.640625 240.71875 573.65625 229.574219 564.101562 C 229.648438 463.5 229.605469 362.898438 229.597656 262.304688 Z M 229.597656 262.304688 " fill-opacity="1" fill-rule="nonzero"/><path fill="#1f1a17" d="M 317.40625 262.320312 C 340.519531 262.238281 363.636719 262.304688 386.757812 262.28125 C 386.75 332.433594 386.773438 402.589844 386.742188 472.742188 C 365.886719 499.683594 342.59375 524.703125 317.4375 547.667969 C 317.40625 452.550781 317.464844 357.4375 317.40625 262.320312 Z M 317.40625 262.320312 " fill-opacity="1" fill-rule="nonzero"/><path fill="#1f1a17" d="M 405.246094 262.28125 C 431.445312 262.277344 457.636719 262.289062 483.828125 262.277344 C 471.859375 322.199219 448.425781 379.714844 415.742188 431.304688 C 412.328125 436.515625 409.171875 441.925781 405.320312 446.824219 C 405.148438 385.3125 405.296875 323.792969 405.246094 262.28125 Z M 405.246094 262.28125 " fill-opacity="1" fill-rule="nonzero"/></svg>