<svg xmlns="http://www.w3.org/2000/svg" xmlns:xlink="http://www.w3.org/1999/xlink" width="500" zoomAndPan="magnify" viewBox="0 0 375 374.999991" height="500" preserveAspectRatio="xMidYMid meet" version="1.0"><path fill="#118e4c" d="M 187.648438 0 C 290.773438 0 375 84.300781 375 187.5 C 375 290.773438 290.699219 375 187.648438 375 C 84.226562 375 0 290.699219 0 187.5 C 0 84.300781 84.226562 0 187.648438 0 Z M 187.648438 0 " fill-opacity="1" fill-rule="nonzero"/><path fill="#ffffff" d="M 187.648438 9.449219 C 285.523438 9.449219 365.625 89.625 365.625 187.5 C 365.625 285.523438 285.523438 365.625 187.648438 365.625 C 89.476562 365.625 9.375 285.449219 9.375 187.5 C 9.375 89.550781 89.476562 9.449219 187.648438 9.449219 Z M 187.648438 9.449219 " fill-opacity="1" fill-rule="nonzero"/><path fill="#118e4c" d="M 103.125 178.425781 C 115.5 178.425781 126.148438 188.699219 126.148438 201.75 C 126.148438 214.199219 115.425781 224.851562 103.125 224.851562 C 90.074219 224.851562 79.648438 214.125 79.648438 201.75 C 79.648438 188.699219 90.074219 178.425781 103.125 178.425781 Z M 144.675781 284.550781 L 126.449219 301.726562 L 122.023438 296.476562 L 135.375 283.726562 L 131.851562 283.425781 L 131.773438 278.175781 L 138.75 278.625 Z M 144.675781 284.550781 " fill-opacity="1" fill-rule="nonzero"/><path fill="#118e4c" d="M 68.925781 67.875 C 93.449219 43.5 125.476562 26.625 161.175781 21 C 130.5 53.101562 111.601562 106.648438 113.398438 171.898438 C 110.175781 170.773438 106.726562 170.175781 103.273438 170.175781 C 96.675781 170.175781 90.523438 172.125 85.5 175.5 C 76.125 152.398438 67.273438 101.324219 68.925781 67.875 Z M 32.101562 253.050781 C 23.476562 232.875 18.75 210.675781 18.75 187.5 C 18.75 170.925781 21.226562 154.875 25.648438 139.726562 C 43.351562 168.300781 58.726562 183.375 73.050781 191.476562 C 71.925781 194.851562 71.324219 198.300781 71.324219 201.898438 C 71.324219 203.851562 71.476562 205.800781 71.925781 207.675781 C 54.226562 223.125 40.5 237.300781 32.101562 253.050781 Z M 177.226562 355.800781 C 132.75 353.023438 92.851562 333 64.199219 302.324219 C 60.074219 275.851562 61.199219 241.648438 78.601562 221.476562 C 83.324219 227.175781 90.074219 231.300781 97.800781 232.648438 C 94.425781 289.800781 134.625 329.023438 177.226562 355.800781 Z M 291.523438 54.898438 C 326.101562 82.125 349.875 122.550781 355.125 168.449219 C 291.75 120.300781 192.675781 146.773438 133.648438 194.550781 C 132 187.800781 128.25 181.949219 123.226562 177.675781 C 142.574219 139.574219 203.175781 62.550781 291.523438 54.898438 Z M 133.351562 209.699219 C 205.050781 272.625 287.398438 276 354.148438 213.226562 C 346.875 260.550781 319.648438 301.648438 281.398438 327.449219 C 201.898438 330.824219 150.074219 298.050781 111.300781 231.898438 C 121.875 228.898438 130.425781 220.273438 133.351562 209.699219 Z M 189.148438 76.648438 C 191.398438 76.648438 193.273438 78.523438 193.273438 80.773438 C 193.273438 83.023438 191.398438 84.898438 189.148438 84.898438 C 186.976562 84.898438 185.175781 83.023438 185.175781 80.773438 C 185.175781 78.449219 186.976562 76.648438 189.148438 76.648438 Z M 245.023438 47.625 C 247.273438 47.625 249.148438 49.5 249.148438 51.75 C 249.148438 53.925781 247.273438 55.800781 245.023438 55.800781 C 242.773438 55.800781 240.898438 53.925781 240.898438 51.75 C 240.898438 49.425781 242.773438 47.625 245.023438 47.625 Z M 195.074219 49.800781 L 215.324219 38.101562 C 219.300781 35.925781 224.25 37.199219 226.574219 41.175781 L 227.25 42.226562 L 219.976562 46.425781 C 218.625 44.25 217.199219 43.949219 215.25 45.074219 L 201.300781 53.175781 C 199.050781 54.523438 198.824219 56.25 200.023438 58.5 L 203.925781 65.175781 C 205.199219 67.351562 206.851562 67.5 209.175781 66.226562 L 223.050781 58.125 C 225.226562 56.773438 225.074219 55.125 223.726562 52.648438 L 230.925781 48.523438 L 231.976562 50.324219 C 234.226562 54.300781 232.875 59.324219 228.898438 61.574219 L 208.648438 73.199219 C 204.75 75.449219 199.726562 74.175781 197.398438 70.199219 L 192.074219 61.125 C 189.75 57.148438 191.175781 52.050781 195.074219 49.800781 Z M 148.351562 92.773438 L 167.175781 74.851562 L 163.199219 70.648438 L 138.300781 94.425781 L 156.976562 114.074219 L 182.398438 89.925781 L 178.425781 85.800781 L 159.226562 104.175781 L 155.398438 100.199219 L 173.773438 82.726562 L 170.25 78.976562 L 151.875 96.449219 Z M 148.351562 92.773438 " fill-opacity="1" fill-rule="nonzero"/><path fill="#118e4c" d="M 165.375 181.351562 L 165.375 197.175781 C 165.375 202.125 165.449219 206.851562 165.375 211.425781 C 165.226562 218.550781 160.5 220.5 153.75 216.375 C 152.398438 215.550781 151.273438 214.5 150 213.601562 C 145.5 210.226562 146.023438 207.148438 146.023438 202.050781 C 148.875 202.050781 150.898438 202.050781 153.375 202.351562 L 153.375 206.925781 C 153.375 208.574219 154.5 209.851562 155.550781 210.300781 C 156.601562 210.824219 157.726562 210.75 157.726562 208.726562 C 157.726562 203.925781 157.800781 202.726562 157.800781 197.550781 L 157.800781 185.925781 C 160.351562 184.273438 162.824219 182.773438 165.375 181.351562 Z M 188.851562 169.5 C 189.148438 178.425781 189.148438 190.050781 189.148438 198.675781 L 189.148438 224.476562 C 189.148438 228.300781 187.648438 231.375 185.925781 232.125 C 182.25 233.699219 179.550781 232.125 176.398438 230.476562 C 169.425781 226.800781 169.726562 223.726562 169.726562 216.75 L 169.726562 199.875 C 169.726562 192.976562 169.726562 186.074219 169.425781 179.101562 C 171.898438 177.75 174.375 176.476562 176.925781 175.125 L 176.925781 220.648438 C 176.925781 222.226562 176.925781 223.351562 177.300781 223.726562 C 177.675781 224.476562 178.351562 224.925781 179.101562 224.925781 C 179.476562 224.925781 180.523438 224.925781 180.898438 224.476562 C 181.273438 224.476562 181.648438 222.976562 181.648438 221.773438 L 181.648438 172.875 C 183.976562 171.675781 186.375 170.550781 188.851562 169.5 Z M 198.449219 165.523438 C 198.824219 170.398438 199.199219 176.25 199.5 181.425781 C 199.875 186.449219 200.550781 191.851562 200.925781 196.875 C 200.925781 200.625 201.675781 206.550781 201.675781 211.949219 C 201.675781 217.800781 202.050781 223.273438 202.425781 227.476562 L 202.800781 227.476562 C 202.800781 222.824219 203.25 218.25 203.550781 213.601562 C 203.550781 209.023438 203.925781 203.925781 204.226562 199.351562 C 204.675781 193.050781 205.351562 187.273438 205.351562 181.351562 C 205.648438 175.726562 206.101562 168.449219 206.476562 162.449219 C 208.949219 161.550781 211.5 160.726562 214.050781 159.976562 C 213.300781 173.925781 211.800781 189.675781 211.050781 202.648438 C 210 216 209.101562 230.324219 207.976562 243.601562 C 204.148438 242.476562 200.398438 241.125 196.574219 239.699219 C 195.523438 227.476562 194.851562 215.324219 193.800781 203.476562 C 193.050781 191.625 192.074219 179.851562 191.023438 168.449219 C 193.425781 167.476562 195.898438 166.425781 198.449219 165.523438 Z M 216.375 245.851562 L 216.375 159.226562 C 221.851562 157.574219 227.324219 156.148438 232.949219 154.949219 L 232.949219 168.898438 C 230.101562 169.351562 226.875 169.800781 224.023438 170.25 L 224.023438 193.574219 C 226.875 193.125 229.726562 193.125 232.648438 193.125 L 232.648438 204.976562 L 224.023438 204.976562 L 224.023438 236.101562 C 226.875 236.101562 230.101562 236.550781 232.949219 236.550781 C 233.324219 240.375 233.324219 245.324219 233.324219 248.851562 C 227.699219 248.175781 222.074219 247.199219 216.375 245.851562 Z M 246.601562 152.324219 L 253.125 236.25 C 253.125 217.050781 252.75 197.851562 252.75 178.726562 L 252.601562 151.574219 C 254.625 151.351562 256.726562 151.125 258.75 150.898438 C 258.75 166.574219 258.824219 186.226562 258.824219 202.050781 L 258.824219 249.300781 C 255.226562 249.523438 251.625 249.675781 248.023438 249.675781 L 241.949219 169.273438 L 241.949219 249.449219 C 240.074219 249.375 238.125 249.226562 236.25 249.074219 L 236.25 202.425781 C 236.25 187.726562 236.101562 169.351562 236.101562 154.199219 C 239.625 153.523438 243.074219 152.925781 246.601562 152.324219 Z M 282.375 150.523438 C 282.375 154.949219 282.300781 161.851562 282.300781 165.75 C 280.5 165.300781 277.949219 164.851562 275.773438 164.851562 L 275.773438 246.976562 C 273.375 247.425781 270.976562 247.875 268.574219 248.25 L 268.574219 163.875 L 261.675781 163.875 C 261.675781 160.648438 261.976562 154.949219 262.125 150.601562 C 268.949219 150.300781 275.699219 150.226562 282.375 150.523438 Z M 308.550781 236.101562 L 308.550781 154.5 C 311.324219 155.175781 313.949219 155.925781 316.648438 156.75 C 317.023438 156.898438 317.324219 156.976562 317.625 157.125 C 321.226562 158.625 324.074219 161.550781 325.875 164.476562 C 327.300781 167.476562 328.351562 173.699219 328.351562 179.023438 L 328.351562 198.523438 C 328.351562 203.101562 328.199219 208.351562 328.050781 213.375 C 327.898438 224.476562 326.773438 226.5 317.25 231.675781 C 314.324219 233.25 311.476562 234.75 308.550781 236.101562 Z M 304.574219 153.523438 L 304.574219 226.351562 C 304.574219 231.148438 303.523438 235.574219 301.726562 237.898438 C 299.625 240.675781 295.875 241.351562 292.574219 242.476562 C 290.851562 243.074219 290.101562 243.226562 288.375 242.324219 C 286.574219 240.449219 285.523438 236.023438 285.523438 230.25 C 285.523438 216.675781 285.148438 204.898438 285.148438 191.851562 L 285.148438 150.75 C 287.625 150.898438 290.175781 151.199219 292.648438 151.5 L 292.648438 227.324219 C 292.648438 229.800781 292.648438 231.675781 293.023438 232.125 C 293.925781 233.324219 296.175781 232.5 296.625 231.148438 C 296.625 230.699219 297 228.675781 297 226.800781 L 297 152.101562 C 299.550781 152.550781 302.101562 153 304.574219 153.523438 Z M 304.574219 153.523438 " fill-opacity="1" fill-rule="nonzero"/><path fill="#ffffff" d="M 316.5 167.773438 C 316.5 177.601562 316.125 186.824219 316.125 196.574219 L 316.125 222.226562 C 319.949219 220.5 320.398438 219.148438 320.398438 215.851562 L 320.398438 174.601562 C 320.398438 171.675781 320.324219 168.601562 316.5 167.773438 Z M 316.5 167.773438 " fill-opacity="1" fill-rule="nonzero"/><path fill="#118e4c" d="M 332.324219 222.375 L 332.324219 162.898438 C 338.101562 165.675781 343.648438 168.824219 348.898438 172.5 L 348.898438 180 C 346.050781 178.5 342.75 177.074219 339.898438 175.574219 L 339.898438 187.125 C 342.75 187.574219 345.675781 187.5 348.523438 187.875 L 348.523438 193.875 L 339.898438 193.875 L 339.898438 207 C 342.75 205.574219 346.125 203.25 348.898438 201.898438 C 349.050781 202.726562 349.199219 206.175781 349.273438 209.324219 C 343.648438 214.125 338.023438 218.476562 332.324219 222.375 Z M 184.5 318.824219 L 169.199219 338.625 L 163.800781 334.351562 L 175.125 319.5 L 171.601562 319.726562 L 170.699219 314.550781 L 177.675781 313.875 Z M 196.273438 324.675781 L 207.601562 330.601562 C 210.523438 332.101562 211.726562 335.699219 210.226562 338.625 L 209.699219 339.675781 C 208.648438 341.851562 206.324219 342.601562 203.324219 342.449219 C 205.574219 344.175781 206.324219 346.425781 204.75 349.425781 L 204 350.851562 C 202.5 353.773438 198.824219 354.976562 195.898438 353.476562 L 184.574219 347.625 C 181.648438 346.125 180.449219 342.523438 181.949219 339.601562 L 183.226562 337.125 L 189.523438 340.351562 L 188.851562 341.550781 C 188.625 342.074219 188.550781 342.675781 188.699219 343.199219 C 188.851562 343.726562 189.300781 344.175781 189.75 344.398438 L 195.226562 347.324219 C 195.75 347.550781 196.351562 347.625 196.875 347.476562 C 197.398438 347.324219 197.851562 346.875 198.074219 346.425781 L 198.675781 345.300781 C 199.125 344.476562 198.601562 343.125 197.773438 342.601562 L 192.148438 339.675781 L 194.324219 335.398438 L 199.875 338.324219 C 200.925781 338.851562 202.050781 338.699219 202.648438 337.5 L 203.023438 336.75 C 203.550781 335.699219 203.175781 334.425781 202.050781 333.898438 L 196.574219 331.050781 C 195.523438 330.523438 194.25 330.898438 193.726562 331.949219 L 193.050781 333.226562 L 186.75 330 L 187.949219 327.523438 C 189.675781 324.375 193.351562 323.175781 196.273438 324.675781 Z M 164.773438 312.976562 L 162.226562 315.601562 L 154.648438 323.101562 C 152.398438 325.351562 148.648438 325.351562 146.398438 323.101562 L 137.175781 313.949219 C 134.925781 311.699219 134.925781 307.949219 137.175781 305.625 L 138.75 304.125 L 143.476562 308.851562 L 142.949219 309.375 C 142.199219 310.125 142.199219 311.25 142.949219 311.925781 L 148.125 317.101562 C 148.875 317.851562 150 317.851562 150.675781 317.101562 L 153.148438 314.625 L 151.5 313.050781 L 144.675781 306.300781 C 142.425781 304.050781 142.425781 300.300781 144.675781 297.976562 L 147.226562 295.425781 C 149.476562 293.175781 153.226562 293.175781 155.550781 295.425781 L 164.773438 304.574219 C 167.023438 306.976562 167.023438 310.648438 164.773438 312.976562 Z M 164.773438 312.976562 " fill-opacity="1" fill-rule="nonzero"/><path fill="#ffffff" d="M 153.523438 300.898438 L 159.226562 306.601562 C 159.824219 307.125 159.824219 308.101562 159.226562 308.699219 L 157.648438 310.351562 C 157.050781 310.875 156.148438 310.875 155.476562 310.351562 L 149.773438 304.648438 C 149.175781 304.050781 149.175781 303.148438 149.773438 302.550781 L 151.425781 300.898438 C 151.949219 300.375 152.925781 300.375 153.523438 300.898438 Z M 153.523438 300.898438 " fill-opacity="1" fill-rule="nonzero"/></svg>