<svg xmlns="http://www.w3.org/2000/svg" xmlns:xlink="http://www.w3.org/1999/xlink" width="1000" zoomAndPan="magnify" viewBox="0 0 750 749.999995" height="1000" preserveAspectRatio="xMidYMid meet" version="1.0"><defs><g/></defs><path stroke-linecap="butt" transform="matrix(0.75, 0, 0, 0.75, -82.499993, -59.999977)" fill-opacity="1" fill="#ffffff" fill-rule="nonzero" stroke-linejoin="miter" d="M 1104.187545 579.911456 C 1104.187545 851.651053 883.901076 1071.937522 612.166688 1071.937522 C 340.427091 1071.937522 120.140622 851.651053 120.140622 579.911456 C 120.140622 308.171859 340.427091 87.890599 612.166688 87.890599 C 883.901076 87.890599 1104.187545 308.171859 1104.187545 579.911456 Z M 1104.187545 579.911456 " stroke="#e5050f" stroke-width="8" stroke-opacity="1" stroke-miterlimit="4"/><path stroke-linecap="butt" transform="matrix(0.75, 0, 0, 0.75, 862.484961, -59.999977)" fill-opacity="1" fill="#ffffff" fill-rule="nonzero" stroke-linejoin="miter" d="M -252.891418 579.302081 C -252.891418 796.02605 -428.584135 971.713558 -645.308104 971.713558 C -862.032073 971.713558 -1037.719581 796.02605 -1037.719581 579.302081 C -1037.719581 362.578112 -862.032073 186.885395 -645.308104 186.885395 C -428.584135 186.885395 -252.891418 362.578112 -252.891418 579.302081 Z M -252.891418 579.302081 " stroke="#e5050f" stroke-width="8" stroke-opacity="1" stroke-miterlimit="4"/><path fill="#e5050f" d="M 660.722656 374.355469 C 660.746094 530.355469 534.300781 656.839844 378.300781 656.863281 C 222.300781 656.882812 95.816406 530.441406 95.792969 374.4375 C 95.792969 374.410156 95.792969 374.382812 95.792969 374.355469 C 95.769531 218.355469 222.214844 91.871094 378.214844 91.847656 C 534.21875 91.828125 660.703125 218.269531 660.722656 374.273438 C 660.722656 374.296875 660.722656 374.328125 660.722656 374.355469 Z M 660.722656 374.355469 " fill-opacity="1" fill-rule="nonzero"/><path fill="#ffffff" d="M 492.382812 302.539062 C 494.050781 289.539062 499.492188 277.796875 505.941406 266.394531 L 524.613281 274.828125 L 541.480469 251.933594 L 558.347656 257.054688 C 558.597656 287.164062 557.78125 318.1875 568.890625 338.984375 L 560.457031 349.527344 C 541.351562 331.472656 521.003906 314.246094 492.382812 302.539062 Z M 492.382812 302.539062 " fill-opacity="1" fill-rule="nonzero"/><path fill="#ffffff" d="M 460.988281 333.742188 C 423.675781 333.59375 450.71875 289.902344 456.171875 273.21875 C 461.070312 258.234375 453.65625 227.992188 425.046875 217.265625 L 425.046875 178.902344 C 481.382812 195.234375 487.671875 232.789062 520.089844 215.539062 L 520.089844 234.550781 C 469.535156 286.390625 491.675781 333.445312 460.988281 333.742188 Z M 460.988281 333.742188 " fill-opacity="1" fill-rule="nonzero"/><path fill="#ffffff" d="M 310.644531 250.101562 C 365.988281 236.101562 407.535156 240.5 446.472656 248.371094 C 452.070312 264.710938 447.207031 275.8125 441.980469 286.738281 C 403.898438 280.511719 363.171875 278.914062 314.101562 291.921875 C 305.808594 279.410156 305.113281 265.378906 310.644531 250.101562 Z M 310.644531 250.101562 " fill-opacity="1" fill-rule="nonzero"/><path fill="#ffffff" d="M 343.429688 217.207031 C 277.023438 228.492188 291.953125 307.109375 343.429688 328.335938 L 343.429688 396.933594 C 197.582031 354.835938 223.9375 196.203125 343.429688 180.164062 Z M 343.429688 217.207031 " fill-opacity="1" fill-rule="nonzero"/><path fill="#ffffff" d="M 415.226562 463.703125 C 395.46875 466.375 374.921875 465.894531 353.945312 463.703125 L 353.945312 292.207031 C 374.371094 290.128906 394.800781 289.429688 415.226562 292.207031 Z M 415.226562 463.703125 " fill-opacity="1" fill-rule="nonzero"/><path fill="#ffffff" d="M 139.007812 378.183594 C 174.535156 361 182.382812 323.292969 234.128906 285.347656 C 235.613281 302.941406 237.625 320.113281 245.105469 332.910156 C 223.167969 364.597656 224.652344 394.675781 257.453125 431.234375 C 249.820312 448.734375 240.535156 461.273438 230.46875 471.476562 C 184.335938 444.019531 173.691406 408.3125 139.007812 378.183594 Z M 139.007812 378.183594 " fill-opacity="1" fill-rule="nonzero"/><path fill="#ffffff" d="M 304.160156 504.84375 C 317.320312 490.308594 320.972656 479.574219 326.585938 468.058594 C 361.519531 475.410156 402.199219 478.402344 463.253906 465.964844 C 469.632812 478.75 467.199219 490.738281 465.046875 502.75 C 428.875 515.742188 361.484375 518.796875 304.160156 504.84375 Z M 304.160156 504.84375 " fill-opacity="1" fill-rule="nonzero"/><path fill="#ffffff" d="M 203.378906 499.160156 L 207.863281 518.597656 L 234.777344 520.394531 C 265.8125 542.367188 299.011719 563.015625 344.230469 576.316406 L 344.230469 538.335938 C 319.742188 534.167969 303.964844 521.832031 292.195312 505.738281 C 327.035156 468.261719 334.09375 421.222656 312.054688 411.648438 C 282.734375 398.910156 269.640625 428.898438 252.894531 455.960938 C 241.972656 473.609375 226.207031 491.195312 203.378906 499.160156 Z M 203.378906 499.160156 " fill-opacity="1" fill-rule="nonzero"/><path fill="#ffffff" d="M 415.421875 177.894531 C 415.5625 148.851562 437.828125 152.371094 448.339844 162.832031 C 446.863281 126.410156 417.3125 122.078125 403.148438 135.214844 C 398.949219 128.316406 393.519531 123.058594 384.875 118.753906 C 377.132812 122.398438 370.953125 127.804688 366.183594 134.796875 C 352.808594 122.585938 322.339844 125.601562 320.992188 162.273438 C 332.261719 152.550781 353.492188 149.113281 353.492188 178.035156 L 353.632812 233.632812 C 373.53125 232.148438 394.101562 231.996094 415.488281 233.484375 Z M 415.421875 177.894531 " fill-opacity="1" fill-rule="nonzero"/><path fill="#ffffff" d="M 415.484375 577.632812 C 415.621094 606.675781 437.890625 603.15625 448.398438 592.695312 C 446.925781 629.117188 417.375 633.453125 403.207031 620.3125 C 399.011719 627.210938 393.582031 632.46875 384.9375 636.773438 C 377.195312 633.128906 371.015625 627.722656 366.246094 620.730469 C 352.871094 632.941406 322.402344 629.925781 321.054688 593.253906 C 332.324219 602.976562 353.554688 606.414062 353.554688 577.492188 L 353.695312 521.894531 C 373.59375 523.378906 394.164062 523.53125 415.554688 522.042969 Z M 415.484375 577.632812 " fill-opacity="1" fill-rule="nonzero"/><path fill="#ffffff" d="M 424.472656 355.9375 L 424.472656 421.640625 C 499.609375 446.632812 487.714844 540.226562 425.433594 537.988281 L 425.433594 575.808594 C 505.988281 567.824219 537.171875 517.863281 537.664062 469.171875 C 538.226562 413.375 494.128906 373.875 424.472656 355.9375 Z M 424.472656 355.9375 " fill-opacity="1" fill-rule="nonzero"/><path fill="#ffffff" d="M 545.945312 466.832031 C 546.042969 458.257812 546.808594 450.636719 541.136719 433.820312 L 558.445312 422.28125 L 577.996094 438.308594 C 570.34375 449.835938 558.6875 458.695312 545.945312 466.832031 Z M 545.945312 466.832031 " fill-opacity="1" fill-rule="nonzero"/><g fill="#e5050f" fill-opacity="1"><g transform="translate(261.781864, 709.140345)"><g><path d="M 17.21875 2.203125 L 24.3125 4.828125 L 23.953125 6.234375 L 4.78125 1.25 L 5.140625 -0.15625 L 12.640625 1.015625 L 20.203125 -28.078125 L 12.328125 -27.359375 L 12.703125 -28.765625 L 24.625 -31.96875 L 26.015625 -31.609375 Z M 17.21875 2.203125 "/></g></g></g><g fill="#e5050f" fill-opacity="1"><g transform="translate(325.362642, 723.752913)"><g><path d="M 5.359375 -25.09375 C 5.867188 -28.757812 7.289062 -31.457031 9.625 -33.1875 C 11.957031 -34.914062 14.988281 -35.515625 18.71875 -34.984375 C 22.882812 -34.398438 25.71875 -32.472656 27.21875 -29.203125 C 28.726562 -25.941406 29.035156 -21.117188 28.140625 -14.734375 C 27.273438 -8.617188 25.375 -4.117188 22.4375 -1.234375 C 19.507812 1.648438 15.796875 2.773438 11.296875 2.140625 C 8.335938 1.722656 5.664062 1.03125 3.28125 0.0625 L 4.171875 -6.234375 L 5.9375 -5.984375 L 6.34375 -1.921875 C 6.882812 -1.585938 7.628906 -1.238281 8.578125 -0.875 C 9.523438 -0.519531 10.5 -0.273438 11.5 -0.140625 C 14.394531 0.265625 16.800781 -0.691406 18.71875 -3.015625 C 20.632812 -5.347656 22.023438 -8.972656 22.890625 -13.890625 C 19.921875 -12.742188 17.007812 -12.367188 14.15625 -12.765625 C 10.945312 -13.210938 8.554688 -14.519531 6.984375 -16.6875 C 5.421875 -18.863281 4.878906 -21.664062 5.359375 -25.09375 Z M 18.46875 -32.796875 C 13.9375 -33.429688 11.226562 -30.59375 10.34375 -24.28125 C 9.945312 -21.507812 10.203125 -19.382812 11.109375 -17.90625 C 12.015625 -16.4375 13.613281 -15.539062 15.90625 -15.21875 C 18.238281 -14.882812 20.660156 -15.03125 23.171875 -15.65625 C 23.953125 -21.21875 23.972656 -25.378906 23.234375 -28.140625 C 22.503906 -30.898438 20.914062 -32.453125 18.46875 -32.796875 Z M 18.46875 -32.796875 "/></g></g></g><g fill="#e5050f" fill-opacity="1"><g transform="translate(393.172102, 728.85128)"><g><path d="M 23.25 -21.875 C 24.96875 -9.25 21.832031 -2.394531 13.84375 -1.3125 C 10 -0.789062 6.878906 -2.015625 4.484375 -4.984375 C 2.085938 -7.953125 0.46875 -12.515625 -0.375 -18.671875 C -1.1875 -24.722656 -0.832031 -29.476562 0.6875 -32.9375 C 2.21875 -36.40625 4.984375 -38.410156 8.984375 -38.953125 C 12.816406 -39.472656 15.945312 -38.285156 18.375 -35.390625 C 20.800781 -32.503906 22.425781 -28 23.25 -21.875 Z M 18.234375 -21.203125 C 17.441406 -27.046875 16.316406 -31.179688 14.859375 -33.609375 C 13.410156 -36.046875 11.46875 -37.097656 9.03125 -36.765625 C 6.675781 -36.453125 5.148438 -35.003906 4.453125 -32.421875 C 3.753906 -29.847656 3.816406 -25.492188 4.640625 -19.359375 C 5.484375 -13.203125 6.597656 -8.9375 7.984375 -6.5625 C 9.367188 -4.1875 11.222656 -3.15625 13.546875 -3.46875 C 15.941406 -3.800781 17.519531 -5.359375 18.28125 -8.140625 C 19.050781 -10.929688 19.035156 -15.285156 18.234375 -21.203125 Z M 18.234375 -21.203125 "/></g></g></g><g fill="#e5050f" fill-opacity="1"><g transform="translate(456.67894, 717.172833)"><g><path d="M -2.8125 -25.5 C -3.46875 -29.144531 -2.957031 -32.148438 -1.28125 -34.515625 C 0.382812 -36.890625 3.070312 -38.414062 6.78125 -39.09375 C 10.90625 -39.84375 14.195312 -38.90625 16.65625 -36.28125 C 19.113281 -33.664062 20.921875 -29.1875 22.078125 -22.84375 C 23.179688 -16.757812 22.789062 -11.890625 20.90625 -8.234375 C 19.03125 -4.578125 15.859375 -2.34375 11.390625 -1.53125 C 8.453125 -0.988281 5.707031 -0.800781 3.15625 -0.96875 L 2.015625 -7.21875 L 3.765625 -7.546875 L 5.421875 -3.828125 C 6.046875 -3.671875 6.863281 -3.570312 7.875 -3.53125 C 8.882812 -3.488281 9.882812 -3.554688 10.875 -3.734375 C 13.757812 -4.265625 15.742188 -5.9375 16.828125 -8.75 C 17.921875 -11.5625 18.101562 -15.441406 17.375 -20.390625 C 14.90625 -18.359375 12.253906 -17.082031 9.421875 -16.5625 C 6.234375 -15.988281 3.550781 -16.484375 1.375 -18.046875 C -0.789062 -19.617188 -2.1875 -22.101562 -2.8125 -25.5 Z M 7.234375 -36.953125 C 2.722656 -36.128906 1.039062 -32.582031 2.1875 -26.3125 C 2.6875 -23.550781 3.59375 -21.609375 4.90625 -20.484375 C 6.226562 -19.367188 8.03125 -19.019531 10.3125 -19.4375 C 12.632812 -19.863281 14.882812 -20.769531 17.0625 -22.15625 C 16.0625 -27.675781 14.78125 -31.628906 13.21875 -34.015625 C 11.65625 -36.410156 9.660156 -37.390625 7.234375 -36.953125 Z M 7.234375 -36.953125 "/></g></g></g><path fill="#e5050f" d="M 701.390625 379.871094 L 700.691406 359.976562 L 730.695312 358.9375 L 730.238281 345.917969 L 691.867188 347.25 L 693.023438 380.160156 Z M 699.886719 301.609375 L 696.828125 289.433594 L 711.960938 292.34375 Z M 680.300781 286.429688 L 687.777344 287.746094 L 692.601562 306.957031 L 686.570312 311.398438 L 690.042969 325.21875 L 722.703125 297.707031 L 719.25 283.941406 L 677.179688 273.992188 Z M 647.828125 212.894531 L 653.609375 223.691406 L 676.445312 211.636719 L 661.523438 238.464844 L 669.433594 253.238281 L 703.335938 235.339844 L 697.550781 224.542969 L 674.808594 236.550781 L 689.367188 209.257812 L 681.726562 195 Z M 624.949219 151.847656 C 630.984375 146.636719 636.914062 146.710938 641.183594 151.585938 C 645.800781 156.863281 644.984375 162.546875 638.707031 167.964844 C 632.949219 172.933594 627.632812 172.75 622.980469 167.4375 C 618.398438 162.199219 619.03125 156.953125 624.949219 151.847656 M 616.71875 172 C 627.390625 184.1875 637.992188 186.117188 647.691406 177.746094 C 657.554688 169.234375 657.519531 158.460938 647.335938 146.835938 C 637.050781 135.085938 626.0625 133.347656 616.5625 141.546875 C 606.742188 150.019531 606.710938 160.570312 616.71875 172 M 571.488281 128.351562 L 581.828125 136.371094 L 605.464844 106.332031 L 595.128906 98.316406 Z M 549.523438 83.421875 L 561.371094 89.945312 C 565.175781 81.929688 561.289062 74.585938 549.671875 68.195312 C 536.242188 60.800781 525.226562 63.273438 518.894531 74.621094 C 513.152344 84.898438 516.84375 95.109375 529.484375 102.066406 C 542.261719 109.097656 550.945312 108.722656 556.722656 100.339844 L 544.832031 93.796875 C 542.050781 97.351562 538.347656 97.976562 534.152344 95.667969 C 528.414062 92.511719 527.210938 87.128906 530.859375 80.597656 C 534.660156 73.792969 540.0625 71.863281 545.847656 75.046875 C 549.488281 77.046875 550.726562 79.847656 549.523438 83.421875 M 474.867188 62.003906 L 462.660156 58.757812 L 472.5625 47.03125 Z M 452.003906 71.652344 L 456.785156 65.800781 L 476.050781 70.921875 L 477.039062 78.3125 L 490.894531 82 L 482.496094 40.296875 L 468.691406 36.625 L 439.53125 68.332031 Z M 372.210938 63.636719 L 384.527344 63.46875 L 384.59375 37.796875 L 400.992188 63.574219 L 417.84375 64.8125 L 420.042969 25.753906 L 407.726562 25.726562 L 405.746094 51.296875 L 388.570312 25.238281 L 372.308594 25.144531 Z M 313.203125 39.457031 L 320.398438 38.195312 C 323.863281 37.589844 325.5625 38.316406 326.054688 41.078125 C 326.515625 43.683594 325.144531 45.109375 321.734375 45.703125 L 314.539062 46.964844 Z M 305.863281 71.601562 L 318.519531 69.382812 L 315.910156 54.679688 L 323.890625 53.28125 C 327.515625 52.648438 328.929688 52.992188 329.796875 56.660156 L 331.089844 61.808594 C 331.527344 63.667969 332.042969 65.351562 332.910156 66.863281 L 346.039062 64.566406 C 344.699219 61.898438 343.898438 59.835938 343.5 58.507812 L 341.714844 52.421875 C 340.328125 47.664062 337.5625 46.429688 331.523438 47.164062 C 337.425781 45.648438 340.289062 41.648438 339.429688 36.800781 C 338.835938 33.464844 336.980469 30.941406 334.453125 29.824219 C 331.285156 28.441406 327.03125 29.1875 320.886719 30.265625 L 299.195312 34.058594 Z M 247.609375 91.613281 L 280.316406 79.144531 L 277.316406 71.386719 L 256.609375 79.277344 L 253.933594 72.359375 L 272.402344 65.320312 L 269.480469 57.757812 L 251.007812 64.796875 L 248.8125 59.113281 L 268.773438 51.503906 L 265.8125 43.84375 L 233.851562 56.023438 Z M 201.429688 118.207031 L 212.554688 111.304688 L 196.671875 86.070312 L 208.792969 78.550781 L 204.328125 71.457031 L 168.964844 93.398438 L 173.429688 100.492188 L 185.546875 92.972656 Z M 137.992188 175.613281 L 146.546875 166.816406 L 127.945312 148.976562 L 158.257812 154.78125 L 169.960938 142.746094 L 142.34375 116.265625 L 133.785156 125.0625 L 152.3125 142.828125 L 121.671875 137.515625 L 110.371094 149.132812 Z M 114.089844 209.574219 L 121.234375 198.648438 L 89.035156 177.890625 L 81.890625 188.8125 Z M 99.835938 235.269531 L 91.617188 231.464844 L 86.726562 241.878906 L 94.941406 245.679688 Z M 62.875 256.933594 L 67.285156 244.214844 C 58.675781 241.886719 52.0625 246.964844 47.742188 259.429688 C 42.742188 273.84375 47.105469 284.183594 59.460938 288.410156 C 70.652344 292.234375 80.144531 286.855469 84.847656 273.289062 C 89.605469 259.574219 87.722656 251.148438 78.40625 246.953125 L 73.976562 259.71875 C 77.988281 261.820312 79.25 265.332031 77.6875 269.835938 C 75.554688 275.992188 70.421875 278.101562 63.3125 275.671875 C 55.902344 273.136719 53.050781 268.1875 55.203125 261.980469 C 56.558594 258.074219 59.121094 256.375 62.875 256.933594 M 71.484375 321.785156 L 62.507812 320.53125 L 60.898438 331.910156 L 69.875 333.164062 Z M 54.511719 365.933594 L 54.070312 378.472656 L 54.660156 378.496094 C 63.773438 378.808594 67.613281 373.011719 68.074219 359.941406 C 68.558594 346.183594 64.324219 338.832031 56.648438 338.566406 C 53.242188 338.449219 50.257812 339.773438 48.304688 342.25 C 45.898438 345.347656 44.851562 349.335938 43.617188 354.058594 C 41.828125 360.9375 41.394531 364.152344 38.675781 364.058594 C 36.917969 364 35.921875 362.003906 36.050781 358.300781 C 36.214844 353.644531 37.738281 351.257812 40.351562 351.351562 L 40.511719 351.355469 L 40.929688 339.449219 L 40.503906 339.4375 C 32.722656 339.164062 28.941406 345.074219 28.503906 357.5625 C 28.050781 370.417969 31.921875 377.175781 39.433594 377.4375 C 42.472656 377.539062 45.011719 376.621094 46.894531 374.675781 C 49.996094 371.5 51.132812 366.453125 52.863281 359.730469 C 54.222656 354.480469 54.691406 351.792969 57.25 351.882812 C 59.273438 351.953125 60.523438 354.328125 60.378906 358.453125 C 60.195312 363.691406 58.71875 366.183594 55.679688 366.078125 C 55.308594 366.066406 54.9375 366 54.511719 365.933594 " fill-opacity="1" fill-rule="nonzero"/></svg>