<svg xmlns="http://www.w3.org/2000/svg" xmlns:xlink="http://www.w3.org/1999/xlink" width="361" zoomAndPan="magnify" viewBox="0 0 270.75 270.749989" height="361" preserveAspectRatio="xMidYMid meet" version="1.0"><defs><clipPath id="f692980755"><path d="M 0 0 L 270.5 0 L 270.5 270.5 L 0 270.5 Z M 0 0 " clip-rule="nonzero"/></clipPath></defs><g clip-path="url(#f692980755)"><path fill="#231f20" d="M 270.5 135.246094 C 270.5 209.945312 209.953125 270.5 135.246094 270.5 C 60.554688 270.5 0 209.953125 0 135.246094 C 0 60.554688 60.554688 0 135.246094 0 C 209.953125 0 270.5 60.554688 270.5 135.246094 " fill-opacity="1" fill-rule="nonzero"/></g><path fill="#ffffff" d="M 264.273438 135.246094 C 264.273438 206.503906 206.503906 264.273438 135.246094 264.273438 C 63.988281 264.273438 6.21875 206.511719 6.21875 135.246094 C 6.21875 63.988281 63.988281 6.21875 135.246094 6.21875 C 206.511719 6.21875 264.273438 63.988281 264.273438 135.246094 " fill-opacity="1" fill-rule="nonzero"/><path fill="#0e93d2" d="M 98.5625 251.351562 C 110.140625 255.007812 122.46875 256.988281 135.253906 256.988281 C 148.046875 256.988281 160.367188 255.007812 171.945312 251.351562 C 161.589844 243.347656 148.925781 238.617188 135.253906 238.617188 C 121.582031 238.617188 108.917969 243.347656 98.5625 251.351562 " fill-opacity="1" fill-rule="nonzero"/><path fill="#0e93d2" d="M 171.945312 19.148438 C 160.367188 15.492188 148.039062 13.503906 135.253906 13.503906 C 122.46875 13.503906 110.140625 15.492188 98.566406 19.148438 C 108.925781 27.144531 121.582031 31.875 135.253906 31.875 C 148.925781 31.875 161.582031 27.152344 171.945312 19.148438 " fill-opacity="1" fill-rule="nonzero"/><path fill="#0e93d2" d="M 181.953125 87.5 C 199.804688 80.949219 215.878906 70.777344 229.234375 57.871094 C 215.859375 41.640625 198.351562 28.957031 178.324219 21.375 C 171.59375 27.167969 163.839844 31.632812 155.398438 34.40625 C 169.039062 44.308594 179.132812 63.929688 181.953125 87.5 " fill-opacity="1" fill-rule="nonzero"/><path fill="#0e93d2" d="M 115.101562 34.40625 C 106.664062 31.632812 98.90625 27.160156 92.175781 21.375 C 72.148438 28.957031 54.636719 41.640625 41.265625 57.871094 C 54.621094 70.777344 70.703125 80.949219 88.546875 87.5 C 91.367188 63.929688 101.460938 44.300781 115.101562 34.40625 " fill-opacity="1" fill-rule="nonzero"/><path fill="#0e93d2" d="M 88.546875 183 C 70.703125 189.550781 54.621094 199.722656 41.265625 212.628906 C 54.644531 228.859375 72.15625 241.546875 92.175781 249.125 C 98.90625 243.332031 106.664062 238.875 115.101562 236.09375 C 101.460938 226.191406 91.367188 206.578125 88.546875 183 " fill-opacity="1" fill-rule="nonzero"/><path fill="#0e93d2" d="M 181.953125 183 C 179.132812 206.570312 169.039062 226.191406 155.40625 236.085938 C 163.84375 238.867188 171.601562 243.332031 178.332031 249.117188 C 198.359375 241.542969 215.863281 228.859375 229.242188 212.621094 C 215.878906 199.722656 199.804688 189.550781 181.953125 183 " fill-opacity="1" fill-rule="nonzero"/><path fill="#231f20" d="M 232.816406 208.078125 C 248.007812 187.769531 256.996094 162.554688 256.996094 135.246094 C 256.996094 107.9375 248 82.726562 232.816406 62.414062 C 207.570312 86.605469 173.152344 101.550781 135.253906 101.550781 C 97.355469 101.550781 62.9375 86.605469 37.699219 62.414062 C 22.511719 82.726562 13.519531 107.9375 13.519531 135.246094 C 13.519531 162.554688 22.511719 187.769531 37.699219 208.078125 C 62.9375 183.894531 97.355469 168.949219 135.253906 168.949219 C 173.152344 168.949219 207.570312 183.894531 232.816406 208.078125 " fill-opacity="1" fill-rule="nonzero"/><path fill="#231f20" d="M 157.226562 72.613281 C 158.5625 72.179688 159.777344 70.808594 159.777344 68.613281 C 159.777344 67.277344 159.410156 66.183594 158.5625 65.335938 C 157.714844 64.484375 156.621094 64.125 155.046875 64.125 C 151.898438 64.125 150.78125 65.921875 149.832031 67.160156 L 152.003906 68.613281 C 152.964844 67.398438 153.96875 67.039062 154.558594 67.039062 C 155.640625 67.039062 156.621094 67.9375 156.621094 69.097656 C 156.621094 69.953125 156.328125 70.515625 155.773438 71.039062 C 155.332031 71.460938 154.671875 71.769531 153.707031 71.769531 L 152.859375 71.769531 L 152.859375 74.316406 L 154.074219 74.316406 C 155.046875 74.316406 155.796875 74.539062 156.253906 75.171875 C 156.621094 75.679688 156.980469 76.285156 156.980469 77.476562 C 156.980469 79.757812 155.632812 80.148438 154.671875 80.148438 C 154.042969 80.148438 153.585938 80.078125 153.210938 79.78125 C 152.746094 79.398438 152.363281 78.804688 152.125 78.199219 L 149.335938 79.292969 C 149.695312 80.507812 150.308594 81.480469 151.277344 82.085938 C 152.125 82.695312 153.339844 83.054688 154.792969 83.054688 C 156.367188 83.054688 157.707031 82.566406 158.675781 81.601562 C 159.640625 80.507812 160.128906 79.171875 160.128906 77.351562 C 160.136719 76.007812 159.695312 73.394531 157.226562 72.613281 " fill-opacity="1" fill-rule="nonzero"/><path fill="#231f20" d="M 133.546875 72.128906 C 133.546875 75.640625 132.945312 78.4375 131.851562 80.257812 C 131.003906 81.71875 129.78125 82.679688 128.210938 83.046875 C 127.820312 83.144531 127.292969 83.167969 126.875 83.167969 C 125.878906 83.167969 125.046875 82.910156 123.96875 82.199219 L 125.054688 79.773438 C 125.636719 80.050781 126.371094 80.257812 127.003906 80.257812 C 127.746094 80.257812 128.449219 79.898438 129.0625 79.171875 C 129.679688 78.4375 130.039062 77.222656 130.277344 75.648438 C 129.601562 76.195312 129.191406 76.742188 127.609375 76.742188 C 126.277344 76.742188 125.1875 76.257812 124.328125 75.164062 C 123.480469 74.070312 123.113281 72.613281 123.113281 70.792969 C 123.113281 68.605469 123.601562 67.03125 124.453125 65.9375 C 125.300781 64.84375 126.636719 64.234375 128.214844 64.117188 L 128.328125 64.117188 C 130.15625 64.117188 131.492188 64.84375 132.339844 66.183594 C 133.191406 67.511719 133.546875 69.460938 133.546875 72.128906 M 128.210938 73.949219 C 128.980469 73.949219 129.40625 73.542969 129.671875 72.972656 C 129.933594 72.375 130.03125 71.519531 130.03125 70.425781 C 130.03125 69.332031 129.949219 68.417969 129.671875 67.878906 C 129.339844 67.25 128.816406 67.03125 128.210938 67.03125 C 127.699219 67.03125 127.128906 67.324219 126.875 67.878906 C 126.546875 68.589844 126.386719 69.558594 126.386719 70.425781 C 126.386719 72.179688 126.890625 73.949219 128.210938 73.949219 " fill-opacity="1" fill-rule="nonzero"/><path fill="#231f20" d="M 110.613281 65.9375 L 110.613281 68.363281 L 113.886719 67.398438 L 113.886719 79.773438 L 110.363281 79.773438 L 110.363281 82.566406 L 120.316406 82.566406 L 120.316406 79.773438 L 117.042969 79.773438 L 117.042969 64.484375 Z M 110.613281 65.9375 " fill-opacity="1" fill-rule="nonzero"/><path fill="#231f20" d="M 156.015625 191.328125 L 152.242188 191.328125 L 147.753906 209.539062 L 150.789062 209.539062 L 151.875 205.042969 L 156.125 205.042969 L 157.101562 209.539062 L 160.503906 209.539062 Z M 152.492188 202.136719 L 153.585938 196.792969 L 153.976562 194.730469 L 154.027344 194.730469 L 154.386719 196.671875 L 155.527344 202.136719 Z M 152.492188 202.136719 " fill-opacity="1" fill-rule="nonzero"/><path fill="#231f20" d="M 109.996094 191.574219 L 109.996094 209.539062 L 113.398438 209.539062 L 113.398438 201.773438 L 118.015625 201.773438 L 118.015625 198.859375 L 113.398438 198.859375 L 113.398438 194.492188 L 120.078125 194.492188 L 120.078125 191.574219 Z M 109.996094 191.574219 " fill-opacity="1" fill-rule="nonzero"/><path fill="#ffffff" d="M 119.867188 102.351562 C 119.867188 102.351562 126.386719 102.464844 126.671875 102.472656 C 126.800781 102.710938 132.007812 112.5 132.359375 113.160156 L 128.515625 113.160156 L 123.300781 106.460938 L 117.761719 113.25 C 117.761719 113.25 114.757812 113.183594 114.105469 113.167969 C 114.457031 112.515625 119.867188 102.351562 119.867188 102.351562 " fill-opacity="1" fill-rule="nonzero"/><path fill="#ffffff" d="M 211.71875 156.695312 C 207.757812 152.5 205.828125 146.953125 205.828125 139.742188 C 205.828125 132.554688 207.816406 126.816406 211.714844 122.671875 C 215.496094 118.535156 220.789062 116.433594 227.445312 116.433594 C 234.097656 116.433594 239.382812 118.535156 243.160156 122.671875 C 247.125 126.867188 249.042969 132.449219 249.042969 139.742188 C 249.042969 146.953125 247.117188 152.5 243.160156 156.695312 L 243.152344 156.695312 C 239.414062 160.789062 234.121094 162.929688 227.429688 163.050781 C 220.871094 163.050781 215.574219 160.90625 211.71875 156.695312 M 218.039062 128.050781 C 215.789062 130.921875 214.695312 134.746094 214.695312 139.734375 C 214.695312 144.652344 215.78125 148.4375 218.023438 151.292969 C 220.25 154.132812 223.328125 155.511719 227.445312 155.511719 C 231.558594 155.511719 234.632812 154.132812 236.855469 151.292969 C 239.097656 148.4375 240.183594 144.652344 240.183594 139.734375 C 240.183594 134.746094 239.097656 130.914062 236.855469 128.050781 L 236.851562 128.050781 C 234.601562 125.292969 231.519531 123.960938 227.4375 123.960938 C 223.488281 123.96875 220.414062 125.300781 218.039062 128.050781 " fill-opacity="1" fill-rule="nonzero"/><path fill="#ffffff" d="M 193.464844 117.648438 L 202.203125 117.648438 L 202.203125 161.710938 L 193.464844 161.710938 Z M 193.464844 117.648438 " fill-opacity="1" fill-rule="nonzero"/><path fill="#ffffff" d="M 187.746094 117.648438 L 187.746094 161.710938 L 179.613281 161.710938 L 179.613281 126.019531 L 179.140625 125.960938 C 179.140625 125.960938 170.171875 161.351562 170.089844 161.710938 L 161.117188 161.710938 C 161.019531 161.351562 151.9375 125.960938 151.9375 125.960938 L 151.464844 126.019531 L 151.464844 161.710938 L 143.324219 161.710938 L 143.324219 117.648438 L 156.492188 117.648438 C 156.589844 118.007812 165.546875 152.238281 165.546875 152.238281 C 165.546875 152.238281 174.503906 118.007812 174.601562 117.648438 Z M 187.746094 117.648438 " fill-opacity="1" fill-rule="nonzero"/><path fill="#ffffff" d="M 139.074219 117.648438 L 139.074219 124.804688 L 115.769531 124.804688 L 115.769531 134.886719 L 137.136719 134.886719 L 137.136719 142.050781 L 115.769531 142.050781 L 115.769531 153.945312 L 140.289062 153.945312 L 140.289062 161.710938 L 107.269531 161.710938 L 107.269531 117.648438 Z M 139.074219 117.648438 " fill-opacity="1" fill-rule="nonzero"/><path fill="#ffffff" d="M 88.699219 117.648438 C 93.554688 117.648438 97.136719 118.652344 99.339844 120.625 C 101.589844 122.640625 102.78125 125.894531 102.78125 130.039062 C 102.78125 132.585938 102.203125 134.894531 101.117188 136.707031 C 100.097656 138.402344 98.46875 139.628906 96.273438 140.363281 L 95.554688 140.605469 L 96.273438 140.828125 C 98.148438 141.40625 99.574219 142.464844 100.382812 143.871094 C 101.160156 145.085938 101.558594 147.074219 101.6875 150.308594 L 101.925781 155.78125 C 102.054688 158.53125 102.585938 160.054688 103.621094 160.726562 L 103.621094 161.71875 L 93.953125 161.71875 C 93.621094 161.011719 93.464844 160.464844 93.335938 159.894531 C 93.171875 159.183594 92.992188 158.269531 92.941406 156.375 L 92.820312 151.636719 C 92.691406 148.707031 92.167969 146.886719 91.171875 145.886719 C 90.285156 144.875 88.546875 144.359375 86.023438 144.359375 L 75.941406 144.359375 L 75.941406 161.71875 L 67.210938 161.71875 L 67.210938 117.65625 L 88.699219 117.65625 Z M 76.195312 124.8125 L 75.957031 124.8125 L 75.957031 137.074219 L 87.003906 137.074219 C 89.394531 137.074219 91.253906 136.550781 92.378906 135.5625 C 93.488281 134.691406 94.050781 133.125 94.050781 130.882812 C 94.050781 128.9375 93.507812 127.453125 92.398438 126.34375 C 91.253906 125.324219 89.613281 124.8125 87.492188 124.8125 Z M 76.195312 124.8125 " fill-opacity="1" fill-rule="nonzero"/><path fill="#ffffff" d="M 27.210938 156.574219 C 23.390625 152.386719 21.449219 146.683594 21.449219 139.617188 C 21.449219 132.535156 23.339844 127.03125 27.210938 122.789062 C 30.945312 118.578125 36.070312 116.433594 42.449219 116.433594 C 48.070312 116.433594 52.507812 117.730469 56.023438 120.390625 C 59.484375 123.144531 61.546875 126.71875 62.175781 131.003906 L 53.285156 131.003906 C 52.703125 128.988281 51.449219 127.105469 49.757812 125.832031 C 48.003906 124.515625 45.664062 123.847656 42.816406 123.847656 C 38.949219 123.847656 35.988281 125.226562 33.761719 128.058594 L 33.761719 128.066406 C 31.640625 130.945312 30.5625 134.789062 30.5625 139.503906 C 30.5625 144.417969 31.648438 148.195312 33.890625 151.058594 C 36.265625 153.945312 39.4375 155.398438 43.304688 155.398438 C 46.355469 155.398438 48.789062 154.507812 50.753906 152.671875 C 52.710938 151.082031 53.960938 148.660156 54.46875 145.484375 L 54.515625 145.207031 L 44.398438 145.207031 L 44.398438 138.050781 L 62.355469 138.050781 L 62.355469 161.71875 L 56.597656 161.71875 C 56.523438 161.363281 55.4375 156.15625 55.4375 156.15625 L 55.113281 156.597656 C 53.546875 158.773438 51.660156 160.421875 49.5 161.5 C 47.558594 162.535156 45.101562 163.050781 42.210938 163.050781 C 36.070312 163.050781 31.035156 160.871094 27.210938 156.574219 " fill-opacity="1" fill-rule="nonzero"/><path fill="#231f20" d="M 129.789062 199.953125 C 130.890625 200.3125 131.730469 200.800781 132.347656 201.648438 C 132.953125 202.503906 133.191406 203.46875 133.191406 204.683594 C 133.191406 206.257812 132.722656 207.492188 131.613281 208.324219 C 130.578125 209.097656 129.207031 209.539062 127.796875 209.539062 L 122.625 209.539062 L 122.625 191.574219 L 127.96875 191.574219 C 130.570312 191.574219 132.578125 193.15625 132.578125 195.9375 C 132.578125 196.910156 132.339844 197.757812 131.851562 198.484375 C 131.386719 199.195312 130.644531 199.65625 129.789062 199.953125 M 127.113281 194.242188 L 126.019531 194.242188 L 126.019531 198.851562 L 127.113281 198.851562 C 128.523438 198.851562 129.296875 197.789062 129.296875 196.425781 C 129.304688 194.683594 128.523438 194.242188 127.113281 194.242188 M 129.789062 204.324219 C 129.789062 203.175781 129.453125 202.511719 129.003906 202.097656 C 128.523438 201.664062 127.601562 201.527344 127.003906 201.527344 L 126.027344 201.527344 L 126.027344 206.871094 L 127.796875 206.871094 C 128.671875 206.863281 129.789062 206.332031 129.789062 204.324219 " fill-opacity="1" fill-rule="nonzero"/><path fill="#231f20" d="M 136.46875 191.574219 L 136.46875 209.539062 L 139.863281 209.539062 L 139.863281 202.742188 L 141.445312 202.742188 C 142.90625 202.621094 144.121094 202.136719 145.09375 201.28125 C 146.179688 200.1875 146.667969 198.859375 146.667969 197.03125 C 146.667969 195.21875 146.179688 193.875 145.207031 192.902344 C 144.359375 192.054688 143.027344 191.566406 141.445312 191.566406 L 136.46875 191.566406 Z M 143.101562 197.039062 C 143.101562 199.121094 142.148438 200.195312 140.710938 200.195312 L 139.863281 200.195312 L 139.863281 194.25 L 140.710938 194.25 C 141.960938 194.242188 143.101562 194.804688 143.101562 197.039062 " fill-opacity="1" fill-rule="nonzero"/><path fill="#231f20" d="M 137.683594 66.671875 C 136.707031 68.246094 136.21875 70.671875 136.21875 73.707031 C 136.21875 76.742188 136.707031 79.050781 137.683594 80.625 C 138.65625 82.207031 139.984375 83.046875 141.8125 83.046875 C 143.632812 83.046875 144.964844 82.199219 145.941406 80.625 C 146.914062 79.042969 147.402344 76.742188 147.402344 73.707031 C 147.402344 70.671875 146.914062 68.246094 145.941406 66.671875 C 144.964844 64.96875 143.640625 64.117188 141.8125 64.117188 C 139.984375 64.117188 138.648438 64.96875 137.683594 66.671875 M 143.984375 73.707031 C 143.984375 75.972656 143.871094 77.777344 143.496094 78.738281 C 143.144531 79.675781 142.652344 80.148438 141.796875 80.148438 C 140.949219 80.148438 140.453125 79.683594 140.101562 78.738281 C 139.734375 77.777344 139.625 75.972656 139.625 73.707031 C 139.625 71.371094 139.734375 69.488281 140.101562 68.484375 C 140.453125 67.511719 140.949219 67.03125 141.804688 67.03125 C 142.660156 67.03125 143.152344 67.511719 143.496094 68.484375 C 143.871094 69.480469 143.984375 71.363281 143.984375 73.707031 " fill-opacity="1" fill-rule="nonzero"/></svg>