<svg xmlns="http://www.w3.org/2000/svg" xmlns:xlink="http://www.w3.org/1999/xlink" width="543" zoomAndPan="magnify" viewBox="0 0 407.25 406.499996" height="542" preserveAspectRatio="xMidYMid meet" version="1.0"><defs><clipPath id="26b27b0ded"><path d="M 0 0.125 L 406.5 0.125 L 406.5 405.875 L 0 405.875 Z M 0 0.125 " clip-rule="nonzero"/></clipPath></defs><g clip-path="url(#26b27b0ded)"><path fill="#000000" d="M 0.171875 0.125 L 0.171875 157.441406 L 203.21875 405.875 L 406.328125 157.441406 L 406.328125 0.125 Z M 0.171875 0.125 " fill-opacity="1" fill-rule="nonzero"/></g><path fill="#ffffff" d="M 2.867188 2.816406 L 2.867188 156.5 L 203.21875 401.566406 L 403.636719 156.5 L 403.636719 2.816406 Z M 2.867188 2.816406 " fill-opacity="1" fill-rule="nonzero"/><path fill="#000000" d="M 235.609375 148.753906 L 235.609375 329.171875 L 383.164062 148.753906 Z M 235.609375 148.753906 " fill-opacity="1" fill-rule="nonzero"/><path fill="#ed1c24" d="M 23.339844 148.753906 L 170.960938 329.171875 L 170.960938 148.753906 Z M 23.339844 148.753906 " fill-opacity="1" fill-rule="nonzero"/><path fill="#000000" d="M 23.339844 21.40625 L 383.164062 21.40625 L 383.164062 129.558594 L 23.339844 129.558594 Z M 23.339844 21.40625 " fill-opacity="1" fill-rule="nonzero"/><path fill="#ffffff" d="M 367.269531 64.167969 L 367.269531 52.855469 C 367.269531 44.570312 360.46875 37.769531 352.183594 37.769531 L 314.066406 37.769531 C 305.785156 37.769531 298.980469 44.570312 298.980469 52.855469 L 298.980469 98.109375 C 298.980469 106.394531 305.785156 113.195312 314.066406 113.195312 L 352.183594 113.195312 C 360.46875 113.195312 367.269531 106.394531 367.269531 98.109375 L 367.269531 86.796875 L 352.183594 86.796875 L 352.183594 94.339844 C 352.183594 96.425781 350.5 98.109375 348.414062 98.109375 L 317.839844 98.109375 C 315.75 98.109375 314.066406 96.425781 314.066406 94.339844 L 314.066406 56.625 C 314.066406 54.539062 315.75 52.855469 317.839844 52.855469 L 348.414062 52.855469 C 350.5 52.855469 352.183594 54.539062 352.183594 56.625 L 352.183594 64.167969 Z M 367.269531 64.167969 " fill-opacity="1" fill-rule="nonzero"/><path fill="#ffffff" d="M 39.300781 52.855469 L 39.300781 67.941406 C 39.300781 76.222656 46.035156 83.027344 54.386719 83.027344 L 88.730469 83.027344 C 90.75 83.027344 92.503906 84.710938 92.503906 86.796875 L 92.503906 94.339844 C 92.503906 96.425781 90.75 98.109375 88.730469 98.109375 L 39.300781 98.109375 L 39.300781 113.195312 L 92.503906 113.195312 C 100.785156 113.195312 107.585938 106.394531 107.585938 98.109375 L 107.585938 83.027344 C 107.585938 74.742188 100.785156 67.941406 92.503906 67.941406 L 58.15625 67.941406 C 56.070312 67.941406 54.386719 66.257812 54.386719 64.167969 L 54.386719 56.625 C 54.386719 54.539062 56.070312 52.855469 58.15625 52.855469 L 107.585938 52.855469 L 107.585938 37.769531 L 54.386719 37.769531 C 46.035156 37.769531 39.300781 44.570312 39.300781 52.855469 " fill-opacity="1" fill-rule="nonzero"/><path fill="#ffffff" d="M 179.105469 37.769531 L 125.90625 37.769531 L 125.90625 113.195312 L 140.988281 113.195312 L 140.988281 83.027344 L 179.105469 83.027344 C 187.390625 83.027344 194.125 76.222656 194.125 67.941406 L 194.125 52.855469 C 194.125 44.570312 187.390625 37.769531 179.105469 37.769531 M 179.105469 64.167969 C 179.105469 66.257812 177.355469 67.941406 175.335938 67.941406 L 140.988281 67.941406 L 140.988281 52.855469 L 175.335938 52.855469 C 177.355469 52.855469 179.105469 54.605469 179.105469 56.625 Z M 179.105469 64.167969 " fill-opacity="1" fill-rule="nonzero"/><path fill="#ffffff" d="M 212.375 113.195312 L 227.460938 113.195312 L 227.460938 83.027344 L 265.578125 83.027344 L 265.578125 67.941406 L 227.460938 67.941406 L 227.460938 52.855469 L 280.664062 52.855469 L 280.664062 37.769531 L 212.375 37.769531 Z M 212.375 113.195312 " fill-opacity="1" fill-rule="nonzero"/></svg>