<svg xmlns="http://www.w3.org/2000/svg" xmlns:xlink="http://www.w3.org/1999/xlink" width="575" zoomAndPan="magnify" viewBox="0 0 431.25 431.249985" height="575" preserveAspectRatio="xMidYMid meet" version="1.0"><defs><clipPath id="7f91fa1f21"><path d="M 0 0 L 430.5 0 L 430.5 430.5 L 0 430.5 Z M 0 0 " clip-rule="nonzero"/></clipPath></defs><g clip-path="url(#7f91fa1f21)"><path fill="#ffffff" d="M 215.246094 0 C 334.128906 0 430.5 96.367188 430.5 215.253906 C 430.5 334.144531 334.128906 430.5 215.246094 430.5 C 96.367188 430.5 0 334.128906 0 215.253906 C 0 96.378906 96.367188 0 215.246094 0 Z M 215.246094 0 " fill-opacity="1" fill-rule="evenodd"/></g><path fill="#006437" d="M 215.246094 6.128906 C 330.746094 6.128906 424.371094 99.753906 424.371094 215.253906 C 424.371094 330.753906 330.746094 424.371094 215.246094 424.371094 C 99.746094 424.371094 6.128906 330.746094 6.128906 215.253906 C 6.128906 99.761719 99.753906 6.128906 215.246094 6.128906 Z M 215.246094 11.515625 C 327.769531 11.515625 418.976562 102.734375 418.976562 215.253906 C 418.976562 327.773438 327.753906 418.992188 215.246094 418.992188 C 102.742188 418.992188 11.515625 327.753906 11.515625 215.253906 C 11.515625 102.753906 102.734375 11.515625 215.246094 11.515625 Z M 215.246094 11.515625 " fill-opacity="1" fill-rule="evenodd"/><path fill="#006437" d="M 215.246094 17.367188 C 324.535156 17.367188 413.132812 105.964844 413.132812 215.246094 C 413.132812 324.527344 324.542969 413.125 215.246094 413.125 C 105.949219 413.125 17.367188 324.535156 17.367188 215.246094 C 17.367188 105.957031 105.957031 17.367188 215.246094 17.367188 Z M 215.246094 35.789062 C 217.019531 35.789062 218.789062 35.835938 220.558594 35.921875 C 222.328125 36.007812 224.09375 36.136719 225.855469 36.3125 C 227.621094 36.484375 229.378906 36.703125 231.128906 36.960938 C 232.882812 37.222656 234.628906 37.523438 236.367188 37.871094 C 238.101562 38.214844 239.832031 38.601562 241.550781 39.035156 C 243.269531 39.464844 244.976562 39.9375 246.671875 40.449219 C 248.367188 40.964844 250.046875 41.519531 251.714844 42.117188 C 253.382812 42.714844 255.035156 43.351562 256.671875 44.027344 C 258.308594 44.707031 259.929688 45.421875 261.53125 46.179688 C 263.132812 46.9375 264.714844 47.734375 266.277344 48.570312 C 267.839844 49.40625 269.378906 50.277344 270.898438 51.1875 C 272.417969 52.097656 273.914062 53.046875 275.386719 54.03125 C 276.863281 55.015625 278.308594 56.035156 279.734375 57.089844 C 281.15625 58.144531 282.550781 59.234375 283.921875 60.359375 C 285.289062 61.480469 286.632812 62.636719 287.945312 63.828125 C 289.257812 65.019531 290.539062 66.238281 291.792969 67.492188 C 293.046875 68.746094 294.265625 70.027344 295.457031 71.339844 C 296.648438 72.652344 297.804688 73.992188 298.925781 75.363281 C 300.050781 76.730469 301.140625 78.128906 302.195312 79.550781 C 303.253906 80.972656 304.273438 82.421875 305.257812 83.894531 C 306.242188 85.367188 307.1875 86.863281 308.097656 88.382812 C 309.011719 89.902344 309.882812 91.445312 310.71875 93.007812 C 311.554688 94.570312 312.351562 96.152344 313.105469 97.753906 C 313.863281 99.351562 314.582031 100.972656 315.261719 102.609375 C 315.9375 104.246094 316.578125 105.898438 317.171875 107.566406 C 317.769531 109.234375 318.324219 110.914062 318.839844 112.609375 C 319.355469 114.304688 319.828125 116.011719 320.257812 117.730469 C 320.6875 119.449219 321.074219 121.179688 321.421875 122.914062 C 321.765625 124.652344 322.070312 126.398438 322.332031 128.152344 C 322.589844 129.902344 322.808594 131.660156 322.980469 133.425781 C 323.15625 135.1875 323.285156 136.953125 323.371094 138.722656 C 323.460938 140.492188 323.503906 142.261719 323.503906 144.035156 C 323.503906 145.804688 323.460938 147.578125 323.371094 149.347656 C 323.285156 151.117188 323.15625 152.882812 322.980469 154.644531 C 322.808594 156.40625 322.589844 158.164062 322.332031 159.917969 C 322.070312 161.671875 321.769531 163.414062 321.421875 165.152344 C 321.078125 166.890625 320.691406 168.617188 320.261719 170.335938 C 319.828125 172.054688 319.355469 173.761719 318.84375 175.457031 C 318.328125 177.152344 317.773438 178.835938 317.175781 180.503906 C 316.578125 182.171875 315.941406 183.824219 315.265625 185.460938 C 314.585938 187.097656 313.867188 188.714844 313.113281 190.316406 C 312.355469 191.917969 311.558594 193.5 310.722656 195.0625 C 309.886719 196.625 309.015625 198.167969 308.105469 199.6875 C 307.195312 201.207031 306.246094 202.703125 305.261719 204.175781 C 304.277344 205.648438 303.257812 207.097656 302.203125 208.519531 C 301.148438 209.941406 300.058594 211.339844 298.933594 212.707031 C 297.808594 214.078125 296.652344 215.417969 295.464844 216.730469 C 294.273438 218.042969 293.054688 219.328125 291.800781 220.578125 C 290.546875 221.832031 289.265625 223.054688 287.953125 224.242188 C 286.640625 225.433594 285.296875 226.589844 283.929688 227.714844 C 282.558594 228.839844 281.164062 229.925781 279.742188 230.984375 C 278.316406 232.039062 276.871094 233.058594 275.398438 234.042969 C 273.921875 235.027344 272.425781 235.972656 270.90625 236.886719 C 269.386719 237.796875 267.847656 238.667969 266.285156 239.503906 C 264.722656 240.339844 263.140625 241.136719 261.539062 241.894531 C 259.9375 242.652344 258.320312 243.367188 256.683594 244.046875 C 255.046875 244.722656 253.394531 245.363281 251.726562 245.957031 C 250.058594 246.554688 248.375 247.109375 246.679688 247.625 C 244.984375 248.140625 243.277344 248.613281 241.558594 249.042969 C 239.839844 249.472656 238.113281 249.863281 236.375 250.207031 C 234.636719 250.550781 232.894531 250.855469 231.140625 251.117188 C 229.386719 251.375 227.628906 251.59375 225.867188 251.765625 C 224.105469 251.941406 222.339844 252.070312 220.570312 252.15625 C 218.800781 252.242188 217.027344 252.289062 215.257812 252.289062 C 213.484375 252.289062 211.714844 252.242188 209.945312 252.15625 C 208.175781 252.070312 206.410156 251.941406 204.648438 251.765625 C 202.882812 251.59375 201.125 251.375 199.375 251.117188 C 197.621094 250.855469 195.875 250.554688 194.136719 250.207031 C 192.402344 249.863281 190.671875 249.472656 188.953125 249.042969 C 187.234375 248.613281 185.527344 248.140625 183.832031 247.625 C 182.136719 247.113281 180.457031 246.558594 178.789062 245.960938 C 177.121094 245.363281 175.46875 244.726562 173.832031 244.046875 C 172.195312 243.371094 170.574219 242.652344 168.972656 241.894531 C 167.371094 241.136719 165.789062 240.339844 164.226562 239.507812 C 162.664062 238.671875 161.125 237.796875 159.605469 236.886719 C 158.085938 235.976562 156.589844 235.03125 155.117188 234.046875 C 153.644531 233.0625 152.195312 232.042969 150.773438 230.984375 C 149.347656 229.929688 147.953125 228.839844 146.582031 227.71875 C 145.214844 226.59375 143.871094 225.4375 142.558594 224.246094 C 141.246094 223.058594 139.964844 221.835938 138.710938 220.582031 C 137.460938 219.332031 136.238281 218.046875 135.046875 216.734375 C 133.859375 215.421875 132.703125 214.082031 131.578125 212.710938 C 130.453125 211.34375 129.363281 209.945312 128.308594 208.523438 C 127.253906 207.101562 126.234375 205.652344 125.25 204.179688 C 124.265625 202.707031 123.316406 201.210938 122.40625 199.691406 C 121.496094 198.171875 120.625 196.628906 119.789062 195.066406 C 118.953125 193.503906 118.15625 191.921875 117.398438 190.320312 C 116.640625 188.71875 115.925781 187.101562 115.246094 185.464844 C 114.566406 183.828125 113.929688 182.175781 113.335938 180.507812 C 112.738281 178.839844 112.183594 177.15625 111.667969 175.460938 C 111.152344 173.765625 110.679688 172.058594 110.25 170.339844 C 109.820312 168.625 109.433594 166.894531 109.085938 165.15625 C 108.742188 163.421875 108.4375 161.675781 108.179688 159.921875 C 107.917969 158.171875 107.699219 156.414062 107.527344 154.648438 C 107.355469 152.886719 107.222656 151.121094 107.136719 149.351562 C 107.050781 147.582031 107.007812 145.8125 107.007812 144.039062 C 107.007812 142.269531 107.050781 140.496094 107.136719 138.726562 C 107.222656 136.957031 107.355469 135.191406 107.527344 133.429688 C 107.699219 131.667969 107.917969 129.910156 108.175781 128.15625 C 108.4375 126.402344 108.742188 124.660156 109.085938 122.921875 C 109.429688 121.183594 109.820312 119.457031 110.25 117.738281 C 110.679688 116.019531 111.152344 114.3125 111.667969 112.617188 C 112.179688 110.921875 112.738281 109.242188 113.332031 107.574219 C 113.929688 105.90625 114.566406 104.253906 115.246094 102.617188 C 115.921875 100.980469 116.640625 99.359375 117.398438 97.757812 C 118.15625 96.15625 118.953125 94.574219 119.785156 93.011719 C 120.621094 91.449219 121.496094 89.910156 122.40625 88.390625 C 123.316406 86.871094 124.261719 85.375 125.246094 83.902344 C 126.230469 82.429688 127.25 80.980469 128.308594 79.558594 C 129.363281 78.136719 130.453125 76.738281 131.574219 75.371094 C 132.699219 74 133.855469 72.660156 135.046875 71.347656 C 136.234375 70.035156 137.457031 68.75 138.707031 67.5 C 139.960938 66.246094 141.242188 65.023438 142.554688 63.835938 C 143.867188 62.644531 145.210938 61.488281 146.578125 60.363281 C 147.949219 59.242188 149.34375 58.152344 150.765625 57.097656 C 152.191406 56.039062 153.636719 55.019531 155.109375 54.035156 C 156.582031 53.050781 158.078125 52.105469 159.597656 51.195312 C 161.117188 50.285156 162.660156 49.410156 164.222656 48.574219 C 165.785156 47.738281 167.367188 46.945312 168.96875 46.1875 C 170.570312 45.429688 172.1875 44.710938 173.824219 44.03125 C 175.460938 43.355469 177.113281 42.71875 178.78125 42.121094 C 180.449219 41.523438 182.128906 40.96875 183.824219 40.453125 C 185.519531 39.941406 187.226562 39.46875 188.945312 39.035156 C 190.664062 38.605469 192.390625 38.21875 194.128906 37.871094 C 195.867188 37.527344 197.613281 37.222656 199.363281 36.964844 C 201.117188 36.703125 202.875 36.488281 204.636719 36.3125 C 206.398438 36.140625 208.167969 36.007812 209.9375 35.921875 C 211.703125 35.835938 213.476562 35.792969 215.246094 35.789062 Z M 104.761719 190.179688 C 107.121094 195.730469 109.84375 201.101562 112.933594 206.28125 C 117.65625 213.519531 114.527344 221.742188 105.726562 226.253906 L 87.691406 235.449219 C 79.085938 239.738281 62.78125 237.824219 59.699219 226.285156 C 58.476562 222.589844 57.492188 218.835938 56.75 215.015625 L 30.957031 222.242188 C 30.351562 212.90625 30.269531 211.28125 30.820312 203.335938 Z M 96.910156 204.097656 L 72.074219 210.832031 C 72.355469 212.863281 72.800781 214.859375 73.414062 216.816406 C 75.210938 222.804688 78.003906 222.675781 84.992188 220.125 L 94.074219 216.730469 C 97.710938 215.105469 101.347656 213.472656 99.433594 209.320312 C 98.191406 207.074219 96.910156 203.96875 96.910156 204.082031 Z M 128.339844 226.660156 C 131.175781 229.652344 134.683594 232.945312 138.144531 235.886719 L 68.957031 328.121094 C 64.355469 322.042969 60.117188 315.722656 56.234375 309.164062 L 75.578125 288.257812 C 71.304688 281.824219 67.527344 276.359375 64.03125 268.160156 L 41.628906 278.027344 C 39.285156 271.933594 37.410156 265.695312 35.992188 259.320312 L 128.308594 226.660156 Z M 113.089844 247.417969 L 78.046875 262.039062 C 80.511719 266.921875 83.40625 271.535156 86.726562 275.882812 L 113.089844 247.445312 Z M 71.492188 331.226562 L 149.875 244.648438 C 149.578125 244.574219 156.960938 249.136719 160.515625 250.933594 L 99.964844 331.234375 C 106.296875 337.519531 108.695312 339.507812 116.425781 345.308594 L 105.449219 363.957031 C 93.925781 355.679688 78.824219 340.960938 71.46875 331.1875 Z M 110.164062 367.351562 L 170.910156 255.707031 C 174.585938 257.183594 178.328125 258.46875 182.136719 259.570312 L 175.476562 317.074219 C 177.285156 312.914062 198.019531 263.199219 198.019531 262.996094 C 201.1875 263.503906 207.210938 264.050781 209.851562 264.164062 L 201.671875 399.835938 C 194.714844 399.640625 183.992188 398.03125 176.402344 396.238281 L 187.992188 327.753906 L 158.847656 374.535156 L 158.101562 317.664062 C 155.691406 324.878906 131.59375 380.042969 131.59375 380.246094 C 124.132812 376.449219 116.976562 372.148438 110.125 367.335938 Z M 238.308594 262.074219 C 230.457031 263.601562 222.527344 264.320312 214.527344 264.238281 L 211.765625 400.335938 C 222.128906 400.589844 232.433594 399.960938 242.6875 398.453125 C 252.941406 396.949219 262.992188 394.582031 272.84375 391.359375 L 266.757812 368.363281 C 256.972656 371.503906 247.417969 373.832031 237.90625 374.695312 L 232.511719 328.222656 C 242.351562 327.167969 247.714844 325.980469 254.742188 323.695312 L 250.074219 306.390625 C 243.625 308.175781 237.074219 309.402344 230.414062 310.0625 L 226.621094 277.21875 C 231.773438 277.019531 236.847656 276.269531 241.839844 274.976562 L 238.339844 262.121094 Z M 242.304688 261.257812 C 246.414062 260.285156 249.105469 259.554688 252.984375 258.265625 L 305.699219 376.96875 C 297.722656 381.390625 289.472656 385.234375 280.953125 388.5 Z M 313.671875 372.171875 L 257.203125 256.753906 C 264.003906 254.261719 270.515625 251.160156 276.734375 247.445312 C 284.5 242.449219 290.953125 247.511719 297.507812 253.539062 L 314.007812 268.882812 C 329.644531 283.429688 326.808594 294.289062 323.34375 297.777344 L 364.417969 324.761719 C 360.230469 330.640625 355.640625 336.191406 350.652344 341.410156 L 310.542969 309.046875 L 305.871094 312.210938 L 335.757812 355.933594 C 328.8125 361.929688 321.441406 367.347656 313.648438 372.1875 Z M 297.207031 298.433594 C 304.976562 293.390625 309.683594 289.417969 300.089844 278.1875 L 289.386719 264.679688 C 282.863281 255.757812 279.046875 260.578125 274.160156 262.832031 Z M 304.203125 225.003906 C 301.441406 227.902344 298.597656 230.917969 295.3125 233.757812 L 366.027344 322.515625 C 370.472656 316.328125 374.550781 309.90625 378.261719 303.253906 L 358.933594 283.957031 C 363.085938 277.21875 364.921875 273.351562 368.304688 265.457031 L 390.296875 275.042969 C 392.683594 269.066406 394.589844 262.941406 396.003906 256.664062 L 304.234375 225.003906 Z M 321.65625 245.84375 L 354.191406 259.1875 C 352.109375 263.65625 349.695312 267.941406 346.945312 272.035156 Z M 342.15625 205.226562 C 343.773438 201.738281 345.195312 198.109375 346.578125 194.339844 L 336.816406 192.617188 C 329.683594 191.472656 324.984375 193.824219 322.664062 196.949219 C 320.390625 200.144531 318.59375 203.585938 317.277344 207.277344 C 315.59375 211.550781 315.699219 219.363281 327.753906 224.726562 C 338.230469 229.5625 346.09375 234.386719 362.722656 220.199219 C 372.449219 212.351562 376.191406 215.007812 379.738281 215.75 C 384.839844 217.460938 385.371094 219.527344 384.367188 224.878906 C 383.03125 231.492188 375.554688 227.984375 371.960938 226.570312 C 370.609375 231.679688 368.894531 236.667969 366.820312 241.535156 C 368.992188 242.449219 371.699219 243.683594 374.148438 244.707031 C 385.230469 249.144531 397.734375 246.734375 400.628906 233.324219 C 402.371094 224.308594 401.839844 219.921875 401.839844 218.359375 C 401.683594 210.023438 395.546875 202.644531 384.9375 200.707031 C 374.582031 198.628906 367.667969 198.058594 353.1875 208.9375 C 345.757812 214.453125 344.523438 216.527344 337.789062 213.855469 C 334.203125 212.492188 330.761719 211.289062 332.765625 207.082031 C 334.308594 203.84375 335.910156 203.296875 342.246094 205.167969 Z M 112.617188 67.183594 L 110.203125 72.792969 L 114.324219 77.285156 L 108.269531 76.707031 L 105.277344 82.042969 L 103.960938 76.058594 L 97.972656 74.859375 L 103.210938 71.753906 L 102.515625 65.691406 L 107.082031 69.742188 L 112.597656 67.183594 Z M 94.832031 87.109375 L 93.15625 94.457031 L 99.140625 98.945312 L 91.660156 99.613281 L 89.25 106.75 L 86.308594 99.816406 L 78.824219 99.71875 L 84.476562 94.765625 L 82.230469 87.566406 L 88.664062 91.441406 L 94.785156 87.085938 Z M 79.605469 112.640625 L 79.5 122.367188 L 88.296875 126.386719 L 79.074219 129.289062 L 77.980469 138.949219 L 72.390625 131.027344 L 62.917969 132.972656 L 68.6875 125.167969 L 63.925781 116.734375 L 73.085938 119.839844 L 79.605469 112.671875 Z M 68.707031 145.3125 L 71.648438 157.382812 L 83.816406 159.550781 L 73.332031 166.121094 L 75.046875 178.429688 L 65.589844 170.371094 L 54.476562 175.804688 L 59.117188 164.296875 L 50.539062 155.316406 L 62.863281 156.230469 L 68.679688 145.28125 Z M 361.761719 145.3125 L 358.820312 157.382812 L 346.65625 159.550781 L 357.132812 166.089844 L 355.441406 178.402344 L 364.875 170.371094 L 375.988281 175.804688 L 371.320312 164.296875 L 379.894531 155.316406 L 367.570312 156.230469 L 361.746094 145.28125 Z M 350.859375 112.640625 L 350.964844 122.367188 L 342.164062 126.394531 L 351.390625 129.296875 L 352.484375 138.957031 L 358.082031 131.035156 L 367.554688 132.980469 L 361.785156 125.175781 L 366.550781 116.734375 L 357.394531 119.839844 L 350.859375 112.671875 Z M 335.632812 87.109375 L 337.308594 94.457031 L 331.324219 98.945312 L 338.804688 99.613281 L 341.214844 106.75 L 344.15625 99.816406 L 351.636719 99.71875 L 345.988281 94.765625 L 348.234375 87.566406 L 341.796875 91.441406 L 335.675781 87.085938 Z M 317.84375 67.183594 L 320.269531 72.792969 L 316.140625 77.285156 L 322.191406 76.707031 L 325.1875 82.042969 L 326.511719 76.058594 L 332.496094 74.859375 L 327.257812 71.753906 L 327.96875 65.679688 L 323.414062 69.726562 L 317.882812 67.167969 Z M 317.84375 67.183594 " fill-opacity="1" fill-rule="evenodd"/><path fill="#006437" d="M 215.238281 41.335938 C 216.921875 41.335938 218.601562 41.378906 220.28125 41.460938 C 221.957031 41.542969 223.632812 41.664062 225.308594 41.832031 C 226.980469 41.996094 228.648438 42.199219 230.308594 42.449219 C 231.972656 42.695312 233.628906 42.980469 235.277344 43.308594 C 236.925781 43.636719 238.566406 44.003906 240.195312 44.414062 C 241.828125 44.824219 243.445312 45.269531 245.054688 45.757812 C 246.664062 46.246094 248.257812 46.773438 249.84375 47.339844 C 251.425781 47.90625 252.992188 48.511719 254.546875 49.15625 C 256.097656 49.796875 257.636719 50.480469 259.15625 51.199219 C 260.675781 51.917969 262.175781 52.671875 263.65625 53.464844 C 265.140625 54.257812 266.601562 55.085938 268.042969 55.949219 C 269.484375 56.8125 270.90625 57.710938 272.304688 58.644531 C 273.699219 59.582031 275.074219 60.546875 276.425781 61.550781 C 277.773438 62.550781 279.101562 63.585938 280.398438 64.652344 C 281.699219 65.71875 282.972656 66.816406 284.214844 67.945312 C 285.460938 69.074219 286.679688 70.230469 287.867188 71.421875 C 289.054688 72.609375 290.214844 73.824219 291.34375 75.070312 C 292.472656 76.316406 293.570312 77.589844 294.636719 78.890625 C 295.703125 80.1875 296.738281 81.511719 297.738281 82.863281 C 298.738281 84.214844 299.707031 85.585938 300.640625 86.984375 C 301.574219 88.382812 302.472656 89.800781 303.339844 91.246094 C 304.203125 92.6875 305.03125 94.148438 305.824219 95.628906 C 306.617188 97.113281 307.371094 98.613281 308.089844 100.132812 C 308.808594 101.652344 309.488281 103.191406 310.132812 104.742188 C 310.777344 106.296875 311.378906 107.863281 311.945312 109.445312 C 312.511719 111.027344 313.039062 112.625 313.527344 114.234375 C 314.015625 115.84375 314.464844 117.460938 314.871094 119.09375 C 315.28125 120.722656 315.648438 122.363281 315.976562 124.011719 C 316.304688 125.660156 316.59375 127.316406 316.839844 128.976562 C 317.085938 130.640625 317.292969 132.308594 317.457031 133.980469 C 317.621094 135.65625 317.746094 137.332031 317.828125 139.007812 C 317.910156 140.6875 317.949219 142.367188 317.949219 144.050781 C 317.949219 145.730469 317.910156 147.410156 317.828125 149.089844 C 317.742188 150.769531 317.621094 152.445312 317.457031 154.117188 C 317.289062 155.789062 317.085938 157.457031 316.839844 159.121094 C 316.589844 160.78125 316.304688 162.4375 315.976562 164.085938 C 315.648438 165.734375 315.28125 167.375 314.871094 169.007812 C 314.464844 170.636719 314.015625 172.257812 313.527344 173.863281 C 313.039062 175.472656 312.511719 177.070312 311.945312 178.652344 C 311.378906 180.234375 310.773438 181.800781 310.128906 183.355469 C 309.488281 184.910156 308.804688 186.445312 308.085938 187.964844 C 307.367188 189.484375 306.613281 190.984375 305.820312 192.46875 C 305.027344 193.949219 304.199219 195.410156 303.335938 196.855469 C 302.472656 198.296875 301.574219 199.714844 300.636719 201.113281 C 299.703125 202.511719 298.738281 203.882812 297.734375 205.234375 C 296.734375 206.585938 295.699219 207.910156 294.632812 209.207031 C 293.566406 210.507812 292.46875 211.78125 291.339844 213.027344 C 290.210938 214.269531 289.054688 215.488281 287.863281 216.675781 C 286.675781 217.867188 285.457031 219.023438 284.214844 220.152344 C 282.96875 221.28125 281.695312 222.378906 280.394531 223.445312 C 279.097656 224.511719 277.769531 225.546875 276.421875 226.546875 C 275.070312 227.546875 273.695312 228.515625 272.300781 229.449219 C 270.902344 230.382812 269.480469 231.28125 268.039062 232.148438 C 266.597656 233.011719 265.136719 233.839844 263.652344 234.632812 C 262.171875 235.425781 260.667969 236.179688 259.148438 236.898438 C 257.628906 237.617188 256.09375 238.296875 254.542969 238.941406 C 252.988281 239.585938 251.421875 240.1875 249.835938 240.753906 C 248.253906 241.320312 246.660156 241.847656 245.050781 242.335938 C 243.441406 242.824219 241.824219 243.273438 240.191406 243.679688 C 238.5625 244.089844 236.921875 244.457031 235.273438 244.785156 C 233.625 245.113281 231.96875 245.398438 230.304688 245.648438 C 228.644531 245.894531 226.976562 246.097656 225.300781 246.261719 C 223.628906 246.429688 221.953125 246.550781 220.273438 246.632812 C 218.59375 246.714844 216.914062 246.757812 215.234375 246.757812 C 213.554688 246.757812 211.875 246.714844 210.195312 246.632812 C 208.515625 246.550781 206.839844 246.425781 205.167969 246.261719 C 203.492188 246.097656 201.828125 245.890625 200.164062 245.644531 C 198.5 245.398438 196.84375 245.109375 195.195312 244.78125 C 193.546875 244.453125 191.90625 244.085938 190.277344 243.679688 C 188.648438 243.269531 187.027344 242.820312 185.417969 242.332031 C 183.808594 241.84375 182.214844 241.316406 180.632812 240.75 C 179.050781 240.183594 177.480469 239.582031 175.929688 238.9375 C 174.375 238.292969 172.839844 237.613281 171.320312 236.894531 C 169.800781 236.175781 168.300781 235.417969 166.816406 234.625 C 165.335938 233.835938 163.871094 233.007812 162.429688 232.140625 C 160.988281 231.277344 159.570312 230.378906 158.171875 229.445312 C 156.773438 228.511719 155.398438 227.542969 154.050781 226.542969 C 152.699219 225.539062 151.375 224.507812 150.074219 223.4375 C 148.777344 222.371094 147.503906 221.273438 146.257812 220.144531 C 145.011719 219.015625 143.796875 217.859375 142.609375 216.667969 C 141.417969 215.480469 140.261719 214.265625 139.132812 213.019531 C 138.003906 211.773438 136.90625 210.5 135.839844 209.199219 C 134.773438 207.902344 133.738281 206.578125 132.738281 205.226562 C 131.734375 203.875 130.769531 202.503906 129.835938 201.105469 C 128.902344 199.707031 128.003906 198.285156 127.136719 196.84375 C 126.273438 195.402344 125.445312 193.941406 124.652344 192.457031 C 123.859375 190.976562 123.105469 189.476562 122.386719 187.957031 C 121.667969 186.433594 120.988281 184.898438 120.34375 183.347656 C 119.699219 181.792969 119.097656 180.226562 118.53125 178.640625 C 117.964844 177.058594 117.4375 175.464844 116.949219 173.855469 C 116.460938 172.246094 116.011719 170.628906 115.605469 168.996094 C 115.195312 167.367188 114.828125 165.726562 114.5 164.078125 C 114.171875 162.429688 113.886719 160.773438 113.640625 159.109375 C 113.394531 157.449219 113.1875 155.78125 113.023438 154.105469 C 112.859375 152.433594 112.734375 150.757812 112.652344 149.078125 C 112.570312 147.398438 112.527344 145.71875 112.527344 144.039062 C 112.527344 142.359375 112.570312 140.679688 112.652344 139 C 112.734375 137.320312 112.859375 135.644531 113.023438 133.972656 C 113.1875 132.300781 113.394531 130.632812 113.640625 128.96875 C 113.886719 127.304688 114.175781 125.652344 114.503906 124.003906 C 114.832031 122.355469 115.199219 120.714844 115.609375 119.082031 C 116.015625 117.453125 116.464844 115.832031 116.953125 114.226562 C 117.441406 112.617188 117.96875 111.023438 118.535156 109.4375 C 119.101562 107.855469 119.707031 106.289062 120.347656 104.734375 C 120.992188 103.183594 121.671875 101.648438 122.390625 100.128906 C 123.109375 98.609375 123.867188 97.105469 124.660156 95.625 C 125.453125 94.140625 126.28125 92.679688 127.144531 91.238281 C 128.007812 89.796875 128.90625 88.378906 129.839844 86.980469 C 130.773438 85.582031 131.742188 84.207031 132.742188 82.859375 C 133.746094 81.507812 134.777344 80.183594 135.84375 78.882812 C 136.910156 77.585938 138.007812 76.3125 139.136719 75.066406 C 140.265625 73.820312 141.425781 72.605469 142.613281 71.417969 C 143.804688 70.226562 145.019531 69.070312 146.265625 67.941406 C 147.511719 66.8125 148.785156 65.714844 150.082031 64.648438 C 151.382812 63.582031 152.707031 62.546875 154.058594 61.546875 C 155.40625 60.546875 156.78125 59.578125 158.179688 58.644531 C 159.578125 57.710938 160.996094 56.8125 162.4375 55.949219 C 163.878906 55.082031 165.339844 54.253906 166.824219 53.460938 C 168.304688 52.671875 169.808594 51.914062 171.328125 51.195312 C 172.847656 50.476562 174.382812 49.796875 175.933594 49.152344 C 177.488281 48.511719 179.054688 47.90625 180.640625 47.339844 C 182.222656 46.773438 183.816406 46.246094 185.425781 45.757812 C 187.035156 45.269531 188.652344 44.820312 190.285156 44.414062 C 191.914062 44.003906 193.554688 43.636719 195.203125 43.308594 C 196.851562 42.980469 198.507812 42.695312 200.167969 42.449219 C 201.832031 42.199219 203.5 41.996094 205.171875 41.832031 C 206.84375 41.664062 208.519531 41.542969 210.199219 41.460938 C 211.878906 41.378906 213.558594 41.335938 215.238281 41.335938 Z M 297.363281 86.660156 C 298.824219 146.90625 269.058594 208.632812 217.003906 244.550781 C 219.269531 244.511719 221.527344 244.394531 223.78125 244.199219 C 226.035156 244.007812 228.28125 243.738281 230.515625 243.394531 C 232.753906 243.046875 234.976562 242.628906 237.183594 242.132812 C 239.390625 241.636719 241.578125 241.070312 243.75 240.425781 C 245.917969 239.78125 248.0625 239.066406 250.183594 238.277344 C 252.304688 237.488281 254.398438 236.628906 256.460938 235.699219 C 258.523438 234.769531 260.550781 233.769531 262.546875 232.703125 C 264.542969 231.636719 266.5 230.503906 268.417969 229.304688 C 270.335938 228.101562 272.210938 226.839844 274.042969 225.511719 C 275.875 224.1875 277.664062 222.800781 279.402344 221.351562 C 281.140625 219.90625 282.828125 218.398438 284.464844 216.839844 C 286.105469 215.277344 287.6875 213.660156 289.214844 211.992188 C 290.742188 210.324219 292.210938 208.605469 293.625 206.835938 C 295.035156 205.066406 296.386719 203.253906 297.675781 201.394531 C 298.964844 199.535156 300.1875 197.632812 301.347656 195.691406 C 302.507812 193.746094 303.601562 191.769531 304.628906 189.75 C 305.65625 187.734375 306.613281 185.6875 307.5 183.605469 C 308.386719 181.523438 309.203125 179.414062 309.949219 177.277344 C 310.695312 175.140625 311.367188 172.980469 311.964844 170.800781 C 312.5625 168.617188 313.089844 166.417969 313.539062 164.199219 C 313.988281 161.984375 314.363281 159.753906 314.660156 157.511719 C 314.960938 155.269531 315.183594 153.015625 315.332031 150.757812 C 315.476562 148.5 315.546875 146.242188 315.542969 143.976562 C 315.535156 141.714844 315.453125 139.457031 315.292969 137.199219 C 315.136719 134.941406 314.898438 132.691406 314.589844 130.449219 C 314.277344 128.210938 313.890625 125.980469 313.429688 123.765625 C 312.964844 121.550781 312.429688 119.355469 311.820312 117.175781 C 311.210938 114.996094 310.527344 112.839844 309.769531 110.710938 C 309.011719 108.578125 308.183594 106.472656 307.285156 104.394531 C 306.386719 102.320312 305.417969 100.273438 304.382812 98.265625 C 303.34375 96.253906 302.238281 94.28125 301.070312 92.34375 C 299.898438 90.40625 298.664062 88.511719 297.363281 86.660156 Z M 213.554688 244.550781 C 162.65625 209.148438 131.78125 146.449219 133.195312 86.554688 C 131.894531 88.40625 130.65625 90.300781 129.480469 92.238281 C 128.304688 94.175781 127.195312 96.148438 126.15625 98.160156 C 125.113281 100.171875 124.144531 102.21875 123.238281 104.292969 C 122.335938 106.371094 121.507812 108.476562 120.746094 110.609375 C 119.984375 112.746094 119.300781 114.902344 118.683594 117.082031 C 118.070312 119.261719 117.53125 121.460938 117.066406 123.675781 C 116.601562 125.894531 116.210938 128.125 115.898438 130.367188 C 115.585938 132.609375 115.347656 134.863281 115.1875 137.121094 C 115.023438 139.378906 114.9375 141.640625 114.929688 143.90625 C 114.921875 146.171875 114.992188 148.433594 115.136719 150.695312 C 115.28125 152.957031 115.503906 155.207031 115.800781 157.453125 C 116.097656 159.699219 116.472656 161.933594 116.921875 164.152344 C 117.371094 166.371094 117.894531 168.574219 118.492188 170.757812 C 119.089844 172.945312 119.761719 175.105469 120.503906 177.246094 C 121.25 179.382812 122.066406 181.496094 122.953125 183.578125 C 123.839844 185.664062 124.796875 187.714844 125.824219 189.734375 C 126.851562 191.753906 127.945312 193.734375 129.105469 195.679688 C 130.265625 197.625 131.492188 199.527344 132.78125 201.390625 C 134.070312 203.253906 135.421875 205.070312 136.835938 206.839844 C 138.246094 208.609375 139.71875 210.332031 141.246094 212 C 142.777344 213.671875 144.359375 215.289062 146 216.851562 C 147.636719 218.417969 149.328125 219.921875 151.070312 221.371094 C 152.808594 222.820312 154.597656 224.210938 156.433594 225.535156 C 158.265625 226.863281 160.144531 228.128906 162.066406 229.332031 C 163.984375 230.53125 165.945312 231.664062 167.941406 232.734375 C 169.941406 233.800781 171.96875 234.800781 174.035156 235.730469 C 176.101562 236.660156 178.195312 237.519531 180.316406 238.308594 C 182.441406 239.097656 184.589844 239.816406 186.761719 240.457031 C 188.933594 241.101562 191.125 241.667969 193.335938 242.164062 C 195.542969 242.660156 197.769531 243.078125 200.007812 243.421875 C 202.246094 243.765625 204.492188 244.035156 206.75 244.226562 C 209.007812 244.417969 211.269531 244.535156 213.535156 244.574219 Z M 134.476562 84.765625 C 141.796875 83.011719 148.988281 80.824219 156.046875 78.210938 C 163.109375 75.59375 169.988281 72.570312 176.6875 69.132812 C 183.386719 65.695312 189.859375 61.875 196.101562 57.664062 C 202.34375 53.457031 208.3125 48.890625 214.011719 43.96875 C 210.148438 44.015625 206.296875 44.28125 202.464844 44.769531 C 198.628906 45.261719 194.835938 45.972656 191.085938 46.898438 C 187.335938 47.828125 183.648438 48.972656 180.03125 50.328125 C 176.410156 51.683594 172.878906 53.242188 169.441406 55.003906 C 166.003906 56.769531 162.675781 58.726562 159.464844 60.875 C 156.25 63.023438 153.175781 65.351562 150.230469 67.855469 C 147.289062 70.359375 144.5 73.027344 141.863281 75.855469 C 139.230469 78.683594 136.765625 81.652344 134.476562 84.765625 Z M 216.4375 43.976562 C 242.140625 67.054688 271.519531 78.960938 295.980469 84.738281 C 293.6875 81.625 291.226562 78.65625 288.589844 75.828125 C 285.953125 73.003906 283.164062 70.335938 280.222656 67.832031 C 277.277344 65.328125 274.199219 63.003906 270.984375 60.855469 C 267.773438 58.707031 264.445312 56.753906 261.007812 54.992188 C 257.566406 53.230469 254.039062 51.671875 250.417969 50.316406 C 246.800781 48.964844 243.113281 47.824219 239.363281 46.894531 C 235.609375 45.96875 231.816406 45.261719 227.984375 44.773438 C 224.148438 44.285156 220.300781 44.019531 216.4375 43.976562 Z M 295.375 86.578125 C 248.433594 75.578125 219.746094 50.136719 215.261719 45.644531 C 210.882812 50.136719 181.273438 75.929688 135.285156 86.609375 C 134.371094 187.109375 208.714844 238.78125 215.261719 243.195312 C 221.78125 238.832031 296.023438 188.988281 295.375 86.578125 Z M 295.375 86.578125 " fill-opacity="1" fill-rule="evenodd"/><path fill="#006437" d="M 288.9375 90.304688 C 290.742188 145.738281 262.269531 203.484375 215.261719 236.027344 C 169.367188 204 139.863281 145.378906 141.601562 90.3125 C 162.917969 85.351562 191.113281 74.410156 215.253906 52.628906 C 238.453125 74.484375 266.929688 85.125 288.9375 90.304688 Z M 208.773438 60.835938 L 221.546875 60.835938 C 219.335938 59.125 217.230469 57.285156 215.238281 55.320312 C 213.207031 57.304688 211.054688 59.144531 208.773438 60.835938 Z M 222.59375 61.660156 L 207.703125 61.660156 C 205.398438 63.394531 202.628906 65.402344 199.421875 67.472656 L 230.699219 67.472656 C 227.550781 65.371094 224.847656 63.394531 222.609375 61.660156 Z M 231.972656 68.289062 L 198.171875 68.289062 C 195.246094 70.167969 191.984375 72.144531 188.441406 74.132812 L 209.589844 74.132812 C 209.050781 74.394531 208.511719 74.664062 207.980469 74.957031 L 186.925781 74.957031 C 183.332031 76.910156 179.441406 78.871094 175.304688 80.761719 L 199.699219 80.761719 C 199.390625 81.03125 199.089844 81.308594 198.800781 81.585938 L 173.46875 81.585938 C 168.800781 83.660156 163.808594 85.636719 158.503906 87.429688 L 177.90625 87.429688 C 177.644531 87.691406 177.390625 87.960938 177.160156 88.246094 L 156.050781 88.246094 C 152.03125 89.539062 147.855469 90.730469 143.53125 91.761719 C 143.53125 92.511719 143.53125 93.296875 143.53125 94.0625 L 184.753906 94.0625 C 184.980469 94.316406 185.183594 94.589844 185.359375 94.882812 L 143.554688 94.882812 C 143.582031 96.855469 143.644531 98.800781 143.738281 100.726562 L 186.128906 100.726562 L 186.128906 101.550781 L 143.785156 101.550781 C 143.890625 103.511719 144.023438 105.441406 144.1875 107.359375 L 186.128906 107.359375 L 186.128906 108.179688 L 144.226562 108.179688 C 144.40625 110.148438 144.617188 112.101562 144.847656 114.023438 L 186.101562 114.023438 L 186.101562 114.847656 L 144.945312 114.847656 C 145.199219 116.808594 145.476562 118.746094 145.789062 120.664062 L 186.09375 120.664062 L 186.09375 121.484375 L 145.960938 121.484375 C 146.300781 123.453125 146.660156 125.398438 147.054688 127.328125 L 186.714844 127.328125 L 185.882812 128.152344 L 147.226562 128.152344 C 147.632812 130.082031 148.058594 131.992188 148.523438 133.871094 L 183.789062 133.871094 L 184.65625 134.691406 L 148.738281 134.691406 C 149.238281 136.699219 149.777344 138.679688 150.339844 140.628906 L 186.144531 140.628906 L 186.144531 141.425781 L 150.5625 141.425781 C 151.148438 143.394531 151.757812 145.332031 152.390625 147.242188 L 186.128906 147.242188 L 186.128906 148.066406 L 152.652344 148.066406 C 153.324219 150.046875 154.019531 151.992188 154.753906 153.910156 L 186.117188 153.910156 L 186.117188 154.730469 L 155.078125 154.730469 C 155.839844 156.726562 156.628906 158.664062 157.449219 160.539062 L 186.125 160.539062 L 186.125 161.363281 L 157.800781 161.363281 C 158.667969 163.359375 159.558594 165.304688 160.472656 167.207031 L 186.125 167.207031 L 186.125 168.03125 L 160.882812 168.03125 C 161.851562 170.023438 162.847656 171.964844 163.875 173.84375 L 186.160156 173.84375 L 186.160156 174.660156 L 164.308594 174.660156 C 165.363281 176.605469 166.433594 178.5 167.519531 180.347656 L 186.152344 180.347656 C 186.152344 180.625 186.152344 180.898438 186.152344 181.167969 L 167.976562 181.167969 C 169.160156 183.160156 170.371094 185.097656 171.589844 186.976562 L 184.082031 186.976562 C 183.851562 187.269531 183.605469 187.539062 183.332031 187.792969 L 172.109375 187.792969 C 173.429688 189.789062 174.765625 191.734375 176.109375 193.636719 L 181.109375 193.636719 C 181.417969 193.929688 181.714844 194.203125 182.03125 194.460938 L 176.703125 194.460938 C 178.199219 196.472656 179.613281 198.410156 181.078125 200.265625 L 193.6875 200.265625 C 193.808594 200.542969 193.929688 200.820312 194.054688 201.089844 L 181.738281 201.089844 C 183.359375 203.132812 184.972656 205.082031 186.578125 206.933594 L 198.296875 206.933594 C 198.597656 207.21875 198.910156 207.496094 199.226562 207.757812 L 187.253906 207.757812 C 189.050781 209.8125 190.824219 211.753906 192.550781 213.5625 L 238.023438 213.5625 C 239.769531 211.753906 241.554688 209.816406 243.375 207.757812 L 214.117188 207.757812 C 213.773438 207.488281 213.4375 207.21875 213.113281 206.933594 L 244.136719 206.933594 C 245.75 205.082031 247.375 203.132812 249.011719 201.089844 L 208.421875 201.089844 C 208.273438 200.820312 208.136719 200.542969 207.996094 200.265625 L 249.652344 200.265625 C 251.121094 198.410156 252.585938 196.476562 254.054688 194.460938 L 205.953125 194.460938 C 205.886719 194.191406 205.824219 193.914062 205.765625 193.636719 L 254.652344 193.636719 C 255.992188 191.753906 257.332031 189.816406 258.671875 187.820312 L 204.949219 187.820312 C 204.949219 187.550781 204.90625 187.277344 204.890625 187.007812 L 259.210938 187.007812 C 260.425781 185.128906 261.632812 183.195312 262.824219 181.199219 L 204.703125 181.199219 C 204.703125 180.929688 204.703125 180.652344 204.703125 180.375 L 263.300781 180.375 C 264.394531 178.527344 265.464844 176.628906 266.511719 174.6875 L 204.71875 174.6875 L 204.71875 173.875 L 266.960938 173.875 C 267.960938 171.984375 268.945312 170.046875 269.917969 168.058594 L 204.71875 168.058594 L 204.71875 167.234375 L 270.3125 167.234375 C 271.226562 165.324219 272.113281 163.378906 272.976562 161.390625 L 204.71875 161.390625 L 204.71875 160.570312 L 273.328125 160.570312 C 274.144531 158.667969 274.921875 156.738281 275.679688 154.761719 L 236.242188 154.761719 L 237.605469 154.296875 C 237.914062 154.1875 238.203125 154.058594 238.496094 153.945312 L 275.992188 153.945312 C 276.742188 152.039062 277.414062 150.085938 278.082031 148.101562 L 247.773438 148.101562 C 248.066406 147.832031 248.367188 147.5625 248.644531 147.28125 L 278.367188 147.28125 C 278.992188 145.378906 279.601562 143.441406 280.167969 141.464844 L 253.402344 141.464844 L 253.941406 140.648438 L 280.386719 140.648438 C 280.941406 138.703125 281.472656 136.726562 281.964844 134.714844 L 257.015625 134.714844 C 257.128906 134.445312 257.234375 134.167969 257.347656 133.890625 L 282.167969 133.890625 C 282.625 132.015625 283.050781 130.109375 283.445312 128.175781 L 259.230469 128.175781 C 259.304688 127.90625 259.367188 127.628906 259.433594 127.351562 L 283.605469 127.351562 C 283.992188 125.429688 284.347656 123.484375 284.667969 121.507812 L 260.496094 121.507812 C 260.496094 121.230469 260.5625 120.960938 260.59375 120.683594 L 284.800781 120.683594 C 285.109375 118.769531 285.382812 116.839844 285.632812 114.871094 L 260.9375 114.871094 C 260.9375 114.601562 260.9375 114.324219 260.9375 114.046875 L 285.765625 114.046875 C 286 112.125 286.191406 110.179688 286.371094 108.203125 L 260.503906 108.203125 C 260.503906 107.933594 260.429688 107.65625 260.390625 107.378906 L 286.410156 107.378906 C 286.5625 105.464844 286.691406 103.527344 286.792969 101.574219 L 259.238281 101.574219 C 259.171875 101.296875 259.097656 101.027344 259.015625 100.75 L 286.835938 100.75 C 286.917969 98.828125 286.976562 96.875 287 94.90625 L 256.972656 94.90625 C 256.851562 94.628906 256.730469 94.359375 256.605469 94.082031 L 287.007812 94.082031 C 287.007812 93.335938 287.007812 92.585938 287.007812 91.785156 C 282.570312 90.746094 278.304688 89.539062 274.234375 88.269531 L 253.433594 88.269531 C 253.253906 87.992188 253.066406 87.722656 252.878906 87.453125 L 271.714844 87.453125 C 266.304688 85.648438 261.238281 83.710938 256.554688 81.609375 L 247.917969 81.609375 C 247.625 81.332031 247.320312 81.0625 247.019531 80.785156 L 254.71875 80.785156 C 250.527344 78.894531 246.652344 76.933594 243.082031 74.980469 L 238.160156 74.980469 C 237.539062 74.6875 236.886719 74.417969 236.242188 74.15625 L 241.609375 74.15625 C 238.03125 72.15625 234.808594 70.183594 231.941406 68.304688 Z M 209.589844 74.132812 L 211.835938 74.132812 C 211.242188 74.378906 210.667969 74.65625 210.089844 74.957031 L 207.949219 74.957031 C 208.476562 74.664062 209.011719 74.386719 209.558594 74.132812 Z M 199.726562 80.757812 L 202.039062 80.757812 C 201.738281 81.023438 201.457031 81.300781 201.15625 81.578125 L 198.777344 81.578125 L 199.675781 80.757812 Z M 177.960938 87.421875 L 179.3125 87.421875 C 179.066406 87.683594 178.828125 87.953125 178.566406 88.238281 L 177.171875 88.238281 C 177.421875 87.953125 177.675781 87.683594 177.921875 87.421875 Z M 184.796875 94.054688 L 186.558594 94.054688 C 186.636719 94.324219 186.691406 94.597656 186.722656 94.875 L 185.398438 94.875 C 185.226562 94.582031 185.027344 94.308594 184.796875 94.054688 Z M 186.152344 100.714844 L 186.746094 100.714844 L 186.746094 101.535156 L 186.152344 101.535156 Z M 186.152344 107.34375 L 186.738281 107.34375 L 186.738281 108.164062 L 186.160156 108.164062 L 186.160156 107.34375 Z M 186.152344 114.003906 L 186.722656 114.003906 L 186.722656 114.824219 L 186.160156 114.824219 L 186.160156 114.003906 Z M 186.152344 120.632812 L 186.707031 120.632812 L 186.707031 121.457031 L 186.152344 121.457031 Z M 183.8125 133.832031 L 185.015625 133.832031 L 185.765625 134.65625 L 184.703125 134.65625 L 183.832031 133.832031 Z M 186.152344 140.566406 L 186.722656 140.566406 L 186.722656 141.425781 L 186.152344 141.425781 Z M 186.152344 147.195312 L 186.707031 147.195312 L 186.707031 148.019531 L 186.152344 148.019531 Z M 186.152344 153.855469 L 186.699219 153.855469 L 186.699219 154.679688 L 186.152344 154.679688 Z M 186.152344 160.488281 L 186.691406 160.488281 L 186.691406 161.308594 L 186.152344 161.308594 Z M 186.152344 167.148438 L 186.675781 167.148438 L 186.675781 167.96875 L 186.152344 167.96875 Z M 186.152344 173.777344 L 186.667969 173.777344 L 186.667969 174.59375 L 186.152344 174.59375 Z M 186.152344 180.277344 L 186.65625 180.277344 L 186.65625 181.101562 L 186.125 181.101562 C 186.125 180.832031 186.125 180.5625 186.125 180.277344 Z M 184.082031 186.929688 L 186.484375 186.929688 C 186.445312 187.148438 186.398438 187.359375 186.355469 187.550781 L 186.21875 187.746094 L 183.300781 187.746094 C 183.574219 187.496094 183.824219 187.222656 184.050781 186.929688 Z M 181.148438 193.589844 L 182.957031 193.589844 C 183.378906 193.875 183.804688 194.152344 184.253906 194.414062 L 182.066406 194.414062 C 181.761719 194.160156 181.453125 193.882812 181.148438 193.589844 Z M 193.726562 200.222656 L 195.523438 200.222656 C 195.640625 200.492188 195.769531 200.765625 195.902344 201.042969 L 194.09375 201.042969 C 193.964844 200.773438 193.847656 200.496094 193.726562 200.222656 Z M 198.328125 206.882812 L 200.109375 206.882812 C 200.402344 207.15625 200.699219 207.433594 201.015625 207.703125 L 199.257812 207.703125 C 198.941406 207.441406 198.636719 207.171875 198.328125 206.882812 Z M 214.140625 207.703125 L 211.945312 207.703125 C 211.65625 207.441406 211.371094 207.164062 211.101562 206.882812 L 213.136719 206.882812 C 213.457031 207.164062 213.796875 207.433594 214.140625 207.703125 Z M 208.445312 201.042969 L 207.03125 201.042969 C 206.894531 200.773438 206.761719 200.496094 206.632812 200.222656 L 208.027344 200.222656 C 208.160156 200.496094 208.304688 200.773438 208.453125 201.042969 Z M 205.976562 194.414062 L 204.53125 194.414062 C 204.457031 194.136719 204.390625 193.867188 204.320312 193.589844 L 205.820312 193.589844 C 205.878906 193.867188 205.9375 194.136719 206.003906 194.414062 Z M 204.964844 187.746094 L 203.3125 187.746094 L 203.3125 186.929688 L 204.914062 186.929688 C 204.914062 187.207031 204.957031 187.476562 204.972656 187.746094 Z M 204.726562 181.125 L 203.3125 181.125 L 203.3125 180.339844 L 204.726562 180.339844 C 204.726562 180.617188 204.726562 180.886719 204.726562 181.160156 Z M 204.726562 174.621094 L 203.320312 174.621094 L 203.320312 173.804688 L 204.726562 173.804688 Z M 204.726562 167.992188 L 203.328125 167.992188 L 203.328125 167.167969 L 204.726562 167.167969 Z M 204.726562 161.324219 L 203.335938 161.324219 L 203.335938 160.5 L 204.71875 160.5 L 204.71875 161.324219 Z M 236.242188 154.703125 L 229.589844 154.703125 C 231.296875 154.582031 232.980469 154.308594 234.636719 153.878906 L 238.496094 153.878906 C 238.203125 154 237.90625 154.125 237.605469 154.230469 C 237.140625 154.402344 236.691406 154.550781 236.242188 154.703125 Z M 247.773438 148.035156 L 246.554688 148.035156 C 246.878906 147.773438 247.199219 147.496094 247.511719 147.210938 L 248.644531 147.210938 C 248.367188 147.496094 248.066406 147.773438 247.773438 148.035156 Z M 253.410156 141.40625 L 252.609375 141.40625 L 253.164062 140.589844 L 253.957031 140.589844 Z M 257.015625 134.671875 L 256.34375 134.671875 C 256.457031 134.402344 256.582031 134.125 256.703125 133.847656 L 257.347656 133.847656 C 257.242188 134.125 257.136719 134.402344 257.015625 134.671875 Z M 259.261719 128.128906 L 258.671875 128.128906 C 258.746094 127.855469 258.820312 127.585938 258.886719 127.308594 L 259.464844 127.308594 C 259.394531 127.585938 259.335938 127.859375 259.261719 128.128906 Z M 260.535156 121.46875 L 260.011719 121.46875 C 260.046875 121.195312 260.09375 120.925781 260.121094 120.648438 L 260.632812 120.648438 C 260.632812 120.925781 260.5625 121.195312 260.535156 121.46875 Z M 260.9375 114.839844 L 260.480469 114.839844 C 260.480469 114.570312 260.480469 114.292969 260.480469 114.019531 L 260.929688 114.019531 C 260.929688 114.292969 260.929688 114.5625 260.929688 114.839844 Z M 260.535156 108.179688 L 260.152344 108.179688 C 260.113281 107.910156 260.078125 107.632812 260.046875 107.359375 L 260.421875 107.359375 Z M 259.261719 101.550781 L 258.910156 101.550781 C 258.84375 101.273438 258.761719 101.003906 258.683594 100.726562 L 259 100.726562 C 259.074219 100.996094 259.15625 101.273438 259.222656 101.550781 Z M 257.015625 94.882812 L 256.753906 94.882812 C 256.636719 94.605469 256.507812 94.335938 256.386719 94.0625 L 256.648438 94.0625 C 256.769531 94.335938 256.890625 94.613281 257.015625 94.882812 Z M 253.46875 88.253906 L 253.214844 88.253906 C 253.035156 87.984375 252.863281 87.707031 252.667969 87.4375 L 252.917969 87.4375 C 253.101562 87.707031 253.289062 87.976562 253.46875 88.253906 Z M 247.953125 81.59375 L 247.566406 81.59375 C 247.265625 81.316406 246.960938 81.039062 246.644531 80.769531 L 247.058594 80.769531 C 247.355469 81.046875 247.664062 81.316406 247.953125 81.59375 Z M 238.191406 74.964844 L 236.851562 74.964844 C 236.101562 74.671875 235.300781 74.386719 234.492188 74.140625 L 236.265625 74.140625 C 236.917969 74.402344 237.5625 74.671875 238.191406 74.964844 Z M 203.425781 140.605469 L 204.785156 140.605469 L 204.785156 141.425781 L 203.425781 141.425781 Z M 204.777344 140.605469 L 207.890625 140.605469 C 207.9375 140.875 207.980469 141.152344 208.035156 141.421875 L 204.777344 141.421875 Z M 207.890625 140.605469 L 209.015625 140.605469 C 209.074219 140.875 209.148438 141.152344 209.230469 141.421875 L 208.035156 141.421875 C 207.980469 141.152344 207.9375 140.875 207.890625 140.605469 Z M 203.402344 147.234375 L 204.769531 147.234375 L 204.769531 148.058594 L 203.402344 148.058594 Z M 204.769531 147.234375 L 210.136719 147.234375 C 210.292969 147.511719 210.457031 147.789062 210.621094 148.058594 L 204.769531 148.058594 Z M 210.136719 147.234375 L 212.148438 147.234375 C 212.367188 147.511719 212.582031 147.789062 212.808594 148.058594 L 210.621094 148.058594 C 210.457031 147.78125 210.292969 147.511719 210.136719 147.234375 Z M 203.402344 153.894531 L 204.777344 153.894531 L 204.777344 154.71875 L 203.402344 154.71875 Z M 204.777344 153.894531 L 216.660156 153.894531 C 217.179688 154.195312 217.714844 154.46875 218.261719 154.71875 L 204.792969 154.71875 L 204.792969 153.894531 Z M 216.652344 153.894531 L 221.785156 153.894531 C 223.28125 154.339844 224.804688 154.613281 226.359375 154.71875 L 218.195312 154.71875 C 217.648438 154.464844 217.117188 154.1875 216.601562 153.894531 Z M 209.492188 87.4375 L 210.839844 87.4375 C 210.570312 87.699219 210.316406 87.976562 210.089844 88.253906 L 208.757812 88.253906 C 209.007812 87.976562 209.253906 87.707031 209.507812 87.4375 Z M 210.839844 87.4375 L 234.539062 87.4375 C 234.816406 87.699219 235.089844 87.976562 235.355469 88.253906 L 210.03125 88.253906 C 210.269531 87.976562 210.519531 87.699219 210.78125 87.4375 Z M 234.539062 87.4375 L 236.421875 87.4375 C 236.65625 87.707031 236.878906 87.976562 237.097656 88.253906 L 235.355469 88.253906 C 235.089844 87.976562 234.816406 87.699219 234.539062 87.4375 Z M 205.152344 94.066406 L 206.527344 94.066406 C 206.417969 94.335938 206.3125 94.613281 206.207031 94.890625 L 204.800781 94.890625 L 205.136719 94.066406 Z M 206.542969 94.066406 L 239.238281 94.066406 C 239.363281 94.335938 239.484375 94.613281 239.597656 94.890625 L 206.222656 94.890625 C 206.328125 94.613281 206.441406 94.335938 206.542969 94.066406 Z M 239.238281 94.066406 L 240.496094 94.066406 C 240.605469 94.335938 240.71875 94.613281 240.824219 94.890625 L 239.605469 94.890625 C 239.492188 94.613281 239.363281 94.335938 239.238281 94.066406 Z M 203.527344 100.726562 L 204.882812 100.726562 C 204.882812 101.003906 204.839844 101.273438 204.824219 101.550781 L 203.5 101.550781 C 203.5 101.273438 203.5 101.003906 203.5 100.726562 Z M 204.882812 100.726562 L 241.109375 100.726562 C 241.109375 100.996094 241.167969 101.273438 241.183594 101.550781 L 204.816406 101.550781 C 204.816406 101.273438 204.851562 101.003906 204.882812 100.726562 Z M 241.109375 100.726562 L 242.273438 100.726562 C 242.273438 100.996094 242.335938 101.273438 242.359375 101.550781 L 241.183594 101.550781 C 241.183594 101.273438 241.136719 100.996094 241.109375 100.726562 Z M 203.484375 107.359375 L 204.777344 107.359375 L 204.777344 108.179688 L 203.476562 108.179688 L 203.476562 107.359375 Z M 204.777344 107.359375 L 240.695312 107.359375 C 240.621094 107.632812 240.539062 107.902344 240.457031 108.179688 L 204.726562 108.179688 L 204.726562 107.359375 Z M 240.695312 107.359375 L 242.007812 107.359375 C 241.945312 107.632812 241.878906 107.910156 241.796875 108.179688 L 240.457031 108.179688 C 240.539062 107.902344 240.621094 107.632812 240.695312 107.359375 Z M 203.5 114.019531 L 204.808594 114.019531 L 204.808594 114.839844 L 203.5 114.839844 Z M 204.808594 114.019531 L 236.984375 114.019531 L 236.820312 114.191406 C 236.949219 114.40625 237.058594 114.625 237.179688 114.839844 L 204.726562 114.839844 L 204.726562 114.019531 Z M 236.984375 114.019531 L 238.652344 114.019531 L 238.429688 114.273438 C 238.527344 114.460938 238.609375 114.644531 238.699219 114.832031 L 237.203125 114.832031 C 237.09375 114.613281 236.972656 114.398438 236.84375 114.183594 L 237 114.019531 Z M 203.476562 120.648438 L 204.800781 120.648438 L 204.800781 121.46875 L 203.476562 121.46875 Z M 204.792969 120.648438 L 239.761719 120.648438 L 240.03125 121.46875 L 204.734375 121.46875 L 204.734375 120.648438 Z M 239.761719 120.648438 L 240.972656 120.648438 C 241.054688 120.917969 241.136719 121.195312 241.210938 121.46875 L 240.03125 121.46875 Z M 203.460938 127.316406 L 204.792969 127.316406 L 204.792969 128.136719 L 203.460938 128.136719 Z M 204.792969 127.316406 L 212.195312 127.316406 C 211.871094 127.566406 211.570312 127.84375 211.289062 128.136719 L 204.792969 128.136719 Z M 212.203125 127.316406 L 215.195312 127.316406 C 214.59375 127.535156 214.015625 127.8125 213.464844 128.136719 L 211.320312 128.136719 C 211.597656 127.839844 211.902344 127.566406 212.222656 127.316406 Z M 222.355469 127.316406 L 225.460938 127.316406 C 225.746094 127.570312 226.007812 127.84375 226.253906 128.136719 L 223.664062 128.136719 C 223.234375 127.8125 222.777344 127.539062 222.289062 127.316406 Z M 225.460938 127.316406 L 241.128906 127.316406 C 241.128906 127.589844 241.167969 127.859375 241.175781 128.136719 L 226.1875 128.136719 C 225.949219 127.839844 225.683594 127.566406 225.394531 127.316406 Z M 241.128906 127.316406 L 242.28125 127.316406 C 242.28125 127.589844 242.320312 127.859375 242.335938 128.136719 L 241.175781 128.136719 C 241.175781 127.859375 241.175781 127.585938 241.128906 127.316406 Z M 203.453125 133.847656 L 204.792969 133.847656 L 204.792969 134.691406 L 203.445312 134.691406 L 203.445312 133.871094 Z M 204.792969 133.847656 L 208.199219 133.847656 C 208.128906 134.117188 208.070312 134.394531 208.019531 134.671875 L 204.800781 134.671875 L 204.800781 133.847656 Z M 208.199219 133.847656 L 209.082031 133.847656 C 209 134.117188 208.929688 134.390625 208.878906 134.671875 L 207.949219 134.671875 C 208.003906 134.394531 208.0625 134.125 208.128906 133.847656 Z M 227.332031 133.847656 L 228.425781 133.847656 C 228.425781 134.125 228.425781 134.394531 228.425781 134.671875 L 227.445312 134.671875 C 227.445312 134.402344 227.371094 134.125 227.316406 133.847656 Z M 228.425781 133.847656 L 240.585938 133.847656 C 240.515625 134.125 240.433594 134.402344 240.359375 134.671875 L 228.371094 134.671875 C 228.371094 134.402344 228.371094 134.125 228.371094 133.847656 Z M 240.585938 133.847656 L 242.027344 133.847656 C 241.984375 134.125 241.929688 134.402344 241.863281 134.671875 L 240.367188 134.671875 C 240.449219 134.402344 240.53125 134.125 240.597656 133.847656 Z M 225.707031 140.582031 L 226.5625 140.582031 C 226.34375 140.871094 226.105469 141.144531 225.851562 141.398438 L 224.308594 141.398438 C 224.832031 141.222656 225.300781 140.953125 225.707031 140.582031 Z M 226.5625 140.582031 L 237.210938 140.582031 C 236.984375 140.859375 236.761719 141.136719 236.527344 141.398438 L 225.777344 141.398438 C 226.046875 141.144531 226.292969 140.871094 226.523438 140.582031 Z M 237.308594 140.582031 L 239.648438 140.582031 C 239.492188 140.859375 239.328125 141.136719 239.164062 141.398438 L 236.625 141.398438 C 236.859375 141.136719 237.082031 140.859375 237.308594 140.582031 Z M 237.351562 214.328125 L 193.382812 214.328125 C 195.371094 216.382812 197.296875 218.285156 199.121094 220.019531 L 231.484375 220.019531 C 233.332031 218.292969 235.277344 216.390625 237.285156 214.328125 Z M 230.667969 220.835938 L 200.0625 220.835938 C 202.449219 223.082031 204.667969 225.011719 206.632812 226.644531 L 224.046875 226.644531 C 226.023438 225.011719 228.261719 223.066406 230.667969 220.835938 Z M 222.992188 227.480469 L 207.554688 227.480469 C 210.027344 229.554688 212.605469 231.488281 215.292969 233.28125 C 216.28125 232.605469 219.035156 230.675781 222.984375 227.480469 Z M 178.730469 89.449219 C 182.582031 89.316406 188.113281 92.09375 188.113281 97.726562 L 188.113281 125.90625 L 183.234375 130.703125 L 188.113281 135.195312 L 188.113281 180.71875 C 188.113281 183.910156 187.367188 188.90625 181.730469 191.078125 C 185.847656 196.054688 189.722656 195.148438 194.175781 192.6875 C 195.117188 206.402344 206.058594 210.929688 213.285156 209.378906 C 203.820312 202.429688 202.808594 191.421875 202.734375 181.851562 L 202.734375 102.398438 C 202.734375 94.5625 208.136719 80.695312 223.015625 80.695312 C 239.632812 80.695312 248.835938 102.539062 239.085938 114.152344 C 256.074219 145.582031 215.515625 161.355469 214.296875 137.648438 C 227.496094 148.949219 230.59375 127.839844 219.675781 126.949219 C 201.890625 125.453125 207.328125 164.25 237.671875 152.097656 C 269.101562 139.234375 267.648438 74.335938 221.285156 73.125 C 210.609375 72.847656 200.84375 81.300781 194.460938 89.585938 C 189.519531 84.675781 184.363281 83.433594 178.746094 89.4375 Z M 186.125 125.160156 L 186.125 97.742188 C 186.125 92.390625 179.941406 90.957031 174.898438 91.253906 C 179.835938 83.382812 187.164062 80.777344 194.183594 86.710938 C 198.890625 80.105469 210.429688 71 221.253906 71.3125 C 269.8125 72.0625 271.914062 141.75 237.570312 154.230469 C 204.328125 166.308594 199.179688 123.632812 219.960938 125.09375 C 233.503906 126.265625 229.246094 148.875 217.066406 141.773438 C 221.816406 155.636719 252.234375 141.449219 236.722656 114.175781 C 247.011719 103.699219 238.078125 82.746094 222.945312 82.566406 C 210.121094 82.386719 204.75 94.417969 204.695312 102.578125 L 204.695312 179.761719 C 204.539062 193.425781 206.476562 204.082031 217.753906 210.03125 C 206.363281 215.367188 194.503906 207.621094 192.417969 195.925781 C 187.515625 197.992188 182.351562 196.5625 178.199219 189.941406 C 182.417969 189.386719 186.109375 186.609375 186.0625 180.085938 L 186.0625 136.039062 L 180.398438 130.703125 L 186.0625 125.160156 Z M 186.125 125.160156 " fill-opacity="1" fill-rule="nonzero"/></svg>