<svg xmlns="http://www.w3.org/2000/svg" xmlns:xlink="http://www.w3.org/1999/xlink" width="176" zoomAndPan="magnify" viewBox="0 0 132 131.999998" height="176" preserveAspectRatio="xMidYMid meet" version="1.0"><path fill="#2762a6" d="M 0.0742188 132 Z M 66.074219 131.851562 C 102.339844 131.851562 131.925781 102.191406 131.925781 65.925781 C 131.925781 29.660156 102.339844 0 66.074219 0 C 29.734375 0 0.148438 29.660156 0.148438 65.925781 C 0.148438 102.265625 29.808594 131.851562 66.074219 131.851562 Z M 66.074219 131.851562 " fill-opacity="1" fill-rule="nonzero"/><path fill="#ffffff" d="M 4.957031 66 C 4.957031 99.714844 32.4375 127.195312 66.226562 127.195312 C 99.9375 127.195312 127.417969 99.714844 127.417969 66 C 127.417969 32.210938 99.9375 4.730469 66.226562 4.730469 C 32.4375 4.730469 4.957031 32.210938 4.957031 66 Z M 8.785156 66 C 8.785156 34.3125 34.539062 8.558594 66.226562 8.558594 C 97.835938 8.558594 123.589844 34.3125 123.589844 66 C 123.589844 97.609375 97.835938 123.363281 66.226562 123.363281 C 34.539062 123.441406 8.785156 97.6875 8.785156 66 Z M 8.785156 66 " fill-opacity="1" fill-rule="nonzero"/><path fill="#ffffff" d="M 66.226562 100.238281 C 47.378906 100.238281 32.0625 84.921875 32.0625 66.148438 C 32.0625 47.378906 47.378906 32.0625 66.226562 32.0625 C 84.921875 32.0625 100.3125 47.378906 100.3125 66.148438 C 100.3125 84.921875 84.921875 100.238281 66.226562 100.238281 Z M 66.226562 100.238281 " fill-opacity="1" fill-rule="nonzero"/><path fill="#ffffff" d="M 25.453125 66.148438 C 25.453125 88.527344 43.699219 106.769531 66.074219 106.769531 C 88.449219 106.769531 106.621094 88.527344 106.621094 66.148438 C 106.621094 43.773438 88.375 25.527344 66.074219 25.527344 C 43.699219 25.527344 25.453125 43.773438 25.453125 66.148438 Z M 29.207031 66.148438 C 29.207031 45.800781 45.726562 29.285156 66.074219 29.285156 C 86.347656 29.285156 102.867188 45.800781 102.867188 66.148438 C 102.867188 86.5 86.347656 103.015625 66.074219 103.015625 C 45.800781 103.015625 29.207031 86.5 29.207031 66.148438 Z M 29.207031 66.148438 " fill-opacity="1" fill-rule="nonzero"/><path fill="#cd3529" d="M 41.824219 39.570312 C 54.738281 33.488281 60.96875 39.71875 70.429688 40.769531 C 79.140625 44 87.398438 40.246094 95.285156 39.121094 C 89.050781 64.421875 97.988281 75.835938 99.488281 94.15625 C 81.992188 93.332031 67.878906 81.84375 47.152344 91.980469 C 49.554688 74.410156 47.605469 56.765625 41.824219 39.570312 Z M 41.824219 39.570312 " fill-opacity="1" fill-rule="nonzero"/><path fill="#ffffff" d="M 69.378906 40.394531 L 69.378906 52.710938 L 93.40625 52.710938 L 95.433594 39.042969 C 85.371094 41.371094 77.261719 42.949219 69.378906 40.394531 Z M 69.378906 40.394531 " fill-opacity="1" fill-rule="nonzero"/><path fill="#ffffff" d="M 120.886719 73.808594 L 121.261719 71.480469 L 114.429688 70.429688 L 109.925781 69.753906 L 109.625 69.679688 L 109.324219 72.007812 L 109.925781 72.15625 L 114.355469 72.832031 L 113.679688 77.414062 L 109.925781 76.8125 L 108.574219 76.585938 L 108.199219 78.914062 L 109.925781 79.214844 L 114.429688 79.964844 L 119.835938 80.792969 L 120.210938 78.464844 L 115.632812 77.714844 L 116.308594 73.132812 Z M 120.886719 73.808594 " fill-opacity="1" fill-rule="nonzero"/><path fill="#ffffff" d="M 109.925781 81.992188 L 107.070312 81.015625 L 106.320312 83.195312 L 109.925781 84.472656 L 114.429688 86.046875 L 117.433594 87.023438 L 118.183594 84.847656 L 114.429688 83.570312 Z M 109.925781 81.992188 " fill-opacity="1" fill-rule="nonzero"/><path fill="#ffffff" d="M 109.925781 57.140625 L 109.175781 56.914062 L 109.25 59.390625 L 109.925781 59.617188 L 111.953125 60.292969 L 112.101562 64.949219 L 109.925781 65.851562 L 109.550781 66.074219 L 109.625 68.628906 L 109.925781 68.476562 L 114.429688 66.449219 L 121.113281 63.523438 L 121.039062 61.042969 L 114.429688 58.714844 Z M 118.410156 62.320312 L 114.503906 63.898438 L 114.128906 64.121094 L 113.980469 60.894531 L 114.503906 61.121094 Z M 118.410156 62.320312 " fill-opacity="1" fill-rule="nonzero"/><path fill="#ffffff" d="M 106.09375 84.394531 L 104.820312 86.574219 L 106.621094 88.75 L 104.21875 92.730469 L 101.441406 92.28125 L 100.089844 94.457031 L 110 96.109375 L 112.554688 96.484375 L 113.828125 94.308594 L 109.925781 89.351562 Z M 110.824219 94.007812 L 109.925781 93.78125 L 106.246094 93.105469 L 107.898438 90.402344 L 109.925781 92.878906 Z M 110.824219 94.007812 " fill-opacity="1" fill-rule="nonzero"/><path fill="#ffffff" d="M 103.390625 39.644531 L 99.039062 34.765625 L 101.363281 32.664062 L 105.269531 37.015625 L 106.769531 35.742188 L 102.792969 31.3125 L 104.742188 29.582031 L 109.023438 34.238281 L 109.925781 33.414062 L 110.449219 32.960938 L 109.925781 32.363281 L 104.667969 26.503906 L 97.535156 32.886719 L 95.960938 34.3125 L 97.535156 36.117188 L 101.890625 40.996094 Z M 103.390625 39.644531 " fill-opacity="1" fill-rule="nonzero"/><path fill="#ffffff" d="M 105.121094 47.003906 L 106.546875 50.757812 C 107.070312 52.183594 107.445312 53.085938 107.671875 53.460938 C 107.972656 53.988281 108.347656 54.4375 108.722656 54.738281 C 109.023438 54.960938 109.472656 55.113281 109.925781 55.1875 C 110 55.1875 110.148438 55.1875 110.226562 55.1875 C 110.75 55.261719 111.277344 55.1875 111.800781 55.039062 C 112.476562 54.738281 112.929688 54.363281 113.230469 53.835938 C 113.527344 53.308594 113.679688 52.636719 113.679688 51.960938 C 113.90625 52.183594 114.128906 52.335938 114.429688 52.484375 C 114.65625 52.558594 114.878906 52.636719 115.105469 52.636719 C 115.632812 52.785156 116.15625 52.710938 116.609375 52.558594 C 117.058594 52.410156 117.507812 52.109375 117.808594 51.734375 C 118.109375 51.359375 118.335938 50.90625 118.410156 50.53125 C 118.484375 50.082031 118.484375 49.707031 118.410156 49.257812 C 118.335938 48.804688 118.109375 48.128906 117.734375 47.304688 L 116.082031 42.949219 L 114.429688 43.550781 L 109.925781 45.277344 Z M 114.429688 45.953125 L 115.105469 45.726562 L 115.632812 47.003906 C 116.007812 48.054688 116.230469 48.65625 116.308594 48.878906 C 116.382812 49.332031 116.382812 49.632812 116.230469 49.855469 C 116.082031 50.15625 115.855469 50.308594 115.554688 50.457031 C 115.179688 50.609375 114.878906 50.609375 114.582031 50.457031 C 114.582031 50.457031 114.582031 50.457031 114.503906 50.457031 C 114.28125 50.308594 114.054688 50.007812 113.828125 49.707031 C 113.753906 49.554688 113.527344 49.03125 113.152344 48.128906 L 112.628906 46.703125 Z M 110.824219 47.378906 L 111.5 49.179688 C 111.878906 50.230469 112.027344 50.832031 112.027344 51.207031 C 112.101562 51.582031 111.953125 51.808594 111.800781 52.109375 C 111.652344 52.335938 111.425781 52.484375 111.050781 52.636719 C 110.675781 52.785156 110.375 52.785156 110 52.710938 C 110 52.710938 110 52.636719 109.925781 52.636719 C 109.625 52.484375 109.472656 52.335938 109.25 52.035156 C 109.097656 51.882812 108.875 51.359375 108.574219 50.53125 L 107.824219 48.503906 L 109.925781 47.679688 Z M 110.824219 47.378906 " fill-opacity="1" fill-rule="nonzero"/><path fill="#ffffff" d="M 96.484375 29.808594 C 96.785156 29.207031 96.933594 28.609375 96.859375 28.007812 C 96.785156 27.332031 96.484375 26.804688 95.960938 26.203125 C 96.484375 26.203125 97.011719 26.128906 97.460938 25.980469 L 97.535156 25.90625 C 97.988281 25.679688 98.4375 25.304688 98.738281 24.851562 C 98.960938 24.476562 99.113281 23.953125 99.113281 23.5 C 99.113281 23.050781 99.039062 22.601562 98.886719 22.226562 C 98.664062 21.851562 98.4375 21.472656 98.0625 21.175781 C 97.910156 21.023438 97.761719 20.875 97.535156 20.796875 C 97.234375 20.574219 96.859375 20.347656 96.335938 19.972656 L 94.382812 18.769531 L 92.355469 17.570312 L 87.023438 26.429688 L 86.273438 27.632812 L 87.023438 28.082031 L 89.726562 29.734375 C 91.003906 30.484375 91.828125 30.933594 92.203125 31.160156 C 92.804688 31.386719 93.40625 31.535156 93.855469 31.460938 C 94.007812 31.460938 94.15625 31.386719 94.382812 31.386719 C 94.683594 31.3125 95.058594 31.160156 95.359375 30.933594 C 95.808594 30.710938 96.183594 30.257812 96.484375 29.808594 Z M 94.457031 28.457031 C 94.457031 28.53125 94.457031 28.53125 94.457031 28.457031 C 94.230469 28.832031 94.007812 29.058594 93.707031 29.132812 C 93.40625 29.207031 93.03125 29.207031 92.730469 29.058594 C 92.503906 29.058594 92.054688 28.757812 91.304688 28.308594 L 89.425781 27.179688 L 91.078125 24.554688 L 92.730469 25.527344 C 93.632812 26.054688 94.230469 26.429688 94.457031 26.730469 C 94.457031 26.730469 94.53125 26.730469 94.53125 26.804688 C 94.683594 27.03125 94.832031 27.332031 94.832031 27.554688 C 94.757812 27.855469 94.609375 28.15625 94.457031 28.457031 Z M 94.832031 24.476562 C 94.757812 24.402344 94.609375 24.402344 94.457031 24.328125 C 94.230469 24.101562 93.855469 23.953125 93.40625 23.652344 L 92.054688 22.824219 L 93.480469 20.5 L 94.53125 21.097656 L 94.683594 21.175781 C 95.660156 21.699219 96.257812 22.074219 96.410156 22.226562 C 96.710938 22.449219 96.933594 22.75 96.933594 22.976562 C 96.933594 23.277344 96.933594 23.578125 96.710938 23.878906 C 96.484375 24.175781 96.257812 24.402344 95.882812 24.476562 C 95.507812 24.703125 95.207031 24.628906 94.832031 24.476562 Z M 94.832031 24.476562 " fill-opacity="1" fill-rule="nonzero"/><path fill="#ffffff" d="M 87.773438 15.46875 L 87.097656 15.242188 L 85.523438 14.714844 L 83.34375 20.796875 C 83.042969 21.699219 82.820312 22.300781 82.59375 22.675781 C 82.367188 23.050781 82.066406 23.277344 81.691406 23.425781 C 81.316406 23.652344 80.792969 23.578125 80.117188 23.351562 C 79.441406 23.203125 79.066406 22.824219 78.765625 22.449219 C 78.464844 22.074219 78.390625 21.625 78.464844 21.175781 C 78.464844 20.875 78.613281 20.273438 78.988281 19.296875 L 81.09375 13.289062 L 78.839844 12.539062 L 76.8125 18.472656 C 76.4375 19.746094 76.136719 20.648438 76.0625 21.324219 C 76.0625 21.773438 76.0625 22.226562 76.285156 22.75 C 76.4375 23.277344 76.8125 23.726562 77.1875 24.175781 C 77.636719 24.554688 78.390625 25.003906 79.441406 25.378906 C 80.339844 25.679688 81.09375 25.828125 81.769531 25.753906 C 82.367188 25.753906 82.894531 25.605469 83.34375 25.378906 C 83.796875 25.078125 84.171875 24.703125 84.546875 24.253906 C 84.847656 23.726562 85.222656 22.824219 85.671875 21.472656 L 86.949219 17.71875 Z M 87.773438 15.46875 " fill-opacity="1" fill-rule="nonzero"/><path fill="#ffffff" d="M 40.847656 28.757812 L 39.269531 26.054688 L 44.226562 22.976562 L 43.25 21.324219 L 38.21875 24.328125 L 36.867188 22.074219 L 42.273438 18.847656 L 41.296875 17.195312 L 34.914062 20.949219 L 33.863281 21.625 L 34.914062 23.5 L 39.796875 31.6875 L 47.453125 27.105469 L 46.476562 25.378906 Z M 40.847656 28.757812 " fill-opacity="1" fill-rule="nonzero"/><path fill="#ffffff" d="M 59.617188 21.023438 C 59.242188 21.472656 58.714844 21.773438 58.117188 21.851562 C 57.289062 22 56.539062 21.773438 55.863281 21.25 C 55.261719 20.722656 54.8125 19.671875 54.585938 18.246094 C 54.363281 16.820312 54.4375 15.84375 54.886719 15.09375 C 55.261719 14.417969 55.9375 13.964844 56.839844 13.816406 C 57.441406 13.742188 58.039062 13.816406 58.492188 14.117188 C 59.015625 14.417969 59.390625 14.792969 59.617188 15.390625 L 61.796875 14.492188 C 61.417969 13.589844 60.894531 12.988281 60.292969 12.539062 C 59.242188 11.863281 58.039062 11.636719 56.613281 11.789062 C 54.960938 12.089844 53.761719 12.839844 52.933594 14.039062 C 52.109375 15.242188 51.882812 16.820312 52.183594 18.769531 C 52.484375 20.574219 53.160156 21.925781 54.363281 22.824219 C 55.5625 23.726562 56.839844 24.027344 58.417969 23.800781 C 59.691406 23.578125 60.667969 23.125 61.34375 22.375 C 62.019531 21.625 62.472656 20.574219 62.621094 19.296875 L 60.21875 18.921875 C 60.21875 19.898438 59.992188 20.5 59.617188 21.023438 Z M 59.617188 21.023438 " fill-opacity="1" fill-rule="nonzero"/><path fill="#ffffff" d="M 68.027344 11.414062 L 65.699219 11.414062 L 65.25 22.976562 L 73.507812 23.277344 L 73.582031 21.324219 L 67.652344 21.097656 Z M 68.027344 11.414062 " fill-opacity="1" fill-rule="nonzero"/><path fill="#ffffff" d="M 28.609375 28.683594 L 30.859375 26.054688 L 29.285156 24.703125 L 27.632812 26.730469 L 23.351562 31.835938 L 24.851562 33.1875 L 27.105469 30.484375 L 27.632812 30.933594 L 34.613281 36.714844 L 34.914062 36.265625 L 36.039062 34.914062 L 34.914062 33.9375 Z M 28.609375 28.683594 " fill-opacity="1" fill-rule="nonzero"/><path fill="#ffffff" d="M 27.632812 39.796875 C 27.332031 39.871094 27.03125 39.871094 26.878906 39.945312 C 26.429688 40.09375 25.90625 40.246094 25.378906 40.621094 C 25.753906 39.644531 25.753906 38.820312 25.527344 38.066406 C 25.304688 37.316406 24.777344 36.792969 23.953125 36.339844 C 23.351562 35.964844 22.75 35.816406 22.074219 35.890625 C 21.851562 35.890625 21.625 35.964844 21.398438 36.039062 C 21.097656 36.117188 20.722656 36.339844 20.5 36.566406 C 20.046875 36.941406 19.445312 37.691406 18.847656 38.820312 L 16.519531 43.175781 L 21.472656 45.878906 L 26.804688 48.804688 L 27.632812 47.230469 L 27.933594 46.703125 L 27.632812 46.554688 L 23.652344 44.300781 L 23.878906 43.851562 C 24.101562 43.398438 24.328125 43.097656 24.554688 42.875 C 24.777344 42.648438 25.003906 42.574219 25.304688 42.5 C 25.605469 42.421875 26.355469 42.273438 27.40625 42.199219 L 27.632812 42.199219 L 30.484375 41.972656 L 31.910156 39.496094 L 29.207031 39.644531 C 28.53125 39.71875 28.007812 39.796875 27.632812 39.796875 Z M 23.726562 39.945312 C 23.652344 40.246094 23.351562 40.921875 22.824219 41.898438 L 21.925781 43.472656 L 21.398438 43.175781 L 19.296875 42.046875 L 20.199219 40.394531 C 20.648438 39.570312 20.949219 39.042969 21.023438 38.894531 C 21.175781 38.742188 21.25 38.667969 21.324219 38.59375 C 21.550781 38.519531 21.699219 38.445312 21.851562 38.367188 C 22.148438 38.367188 22.527344 38.367188 22.902344 38.59375 C 23.203125 38.742188 23.425781 38.96875 23.578125 39.269531 C 23.726562 39.417969 23.800781 39.644531 23.726562 39.945312 Z M 23.726562 39.945312 " fill-opacity="1" fill-rule="nonzero"/><path fill="#ffffff" d="M 27.257812 84.695312 L 25.527344 85.746094 L 27.632812 89.277344 L 28.90625 91.304688 L 27.632812 92.128906 L 26.128906 93.03125 L 23.125 87.925781 L 21.472656 88.976562 L 21.398438 88.976562 L 21.472656 89.050781 L 24.402344 94.007812 L 22.226562 95.359375 L 21.472656 94.082031 L 18.996094 89.953125 L 17.269531 90.929688 L 21.472656 97.988281 L 21.699219 98.4375 L 27.632812 94.832031 L 31.761719 92.355469 L 27.632812 85.371094 Z M 27.257812 84.695312 " fill-opacity="1" fill-rule="nonzero"/><path fill="#ffffff" d="M 21.472656 72.53125 L 23.425781 72.382812 L 23.277344 70.054688 L 21.472656 70.203125 L 18.847656 70.355469 L 18.769531 68.777344 C 18.695312 67.726562 18.621094 66.902344 18.472656 66.300781 C 18.320312 65.925781 18.09375 65.472656 17.796875 65.097656 C 17.496094 64.722656 17.042969 64.421875 16.59375 64.199219 C 16.144531 64.046875 15.691406 63.898438 15.167969 63.898438 C 15.015625 63.898438 14.867188 63.898438 14.792969 63.898438 C 13.890625 63.972656 13.140625 64.273438 12.539062 64.722656 C 12.011719 65.175781 11.636719 65.773438 11.488281 66.449219 C 11.414062 66.902344 11.414062 67.878906 11.488281 69.304688 L 11.714844 73.058594 L 15.09375 72.832031 Z M 13.515625 70.730469 L 13.441406 69.527344 C 13.363281 68.703125 13.363281 68.101562 13.441406 67.878906 C 13.441406 67.5 13.589844 67.125 13.816406 66.824219 C 14.117188 66.601562 14.417969 66.449219 14.867188 66.449219 C 14.941406 66.449219 15.09375 66.449219 15.09375 66.449219 C 15.390625 66.449219 15.617188 66.527344 15.769531 66.601562 C 16.066406 66.75 16.292969 66.976562 16.445312 67.277344 C 16.59375 67.578125 16.667969 68.175781 16.742188 69.152344 L 16.742188 70.429688 L 15.015625 70.503906 Z M 13.515625 70.730469 " fill-opacity="1" fill-rule="nonzero"/><path fill="#ffffff" d="M 18.246094 85.445312 C 19.148438 85.148438 19.824219 84.546875 20.199219 83.71875 C 20.5 83.121094 20.574219 82.144531 20.5 80.792969 C 20.5 79.742188 20.421875 79.140625 20.421875 78.839844 C 20.421875 78.464844 20.5 78.089844 20.648438 77.863281 C 20.796875 77.636719 20.949219 77.488281 21.25 77.414062 C 21.324219 77.414062 21.398438 77.339844 21.550781 77.339844 C 21.925781 77.339844 22.226562 77.414062 22.527344 77.636719 C 22.902344 77.9375 23.277344 78.390625 23.5 79.140625 C 23.726562 79.816406 23.726562 80.417969 23.5 80.941406 C 23.277344 81.46875 22.824219 81.84375 22.148438 82.21875 L 23.050781 84.394531 C 24.253906 83.796875 25.078125 83.121094 25.453125 82.070312 C 25.828125 81.09375 25.828125 79.890625 25.378906 78.464844 C 25.078125 77.488281 24.703125 76.738281 24.175781 76.210938 C 23.726562 75.609375 23.125 75.3125 22.449219 75.085938 C 22.148438 75.085938 21.851562 75.011719 21.550781 75.011719 C 21.25 75.011719 20.875 75.085938 20.5 75.160156 C 19.824219 75.386719 19.222656 75.761719 18.847656 76.210938 C 18.472656 76.664062 18.171875 77.1875 18.09375 77.863281 C 18.019531 78.464844 18.019531 79.367188 18.09375 80.492188 C 18.171875 81.691406 18.09375 82.445312 18.019531 82.820312 C 17.945312 83.121094 17.71875 83.269531 17.496094 83.34375 C 17.195312 83.421875 16.96875 83.421875 16.667969 83.195312 C 16.292969 82.894531 15.992188 82.445312 15.769531 81.769531 C 15.617188 81.09375 15.542969 80.566406 15.691406 80.191406 C 15.84375 79.742188 16.21875 79.441406 16.742188 79.140625 L 15.917969 76.886719 C 15.617188 76.960938 15.390625 77.113281 15.167969 77.1875 C 14.566406 77.5625 14.117188 78.089844 13.816406 78.765625 C 13.363281 79.664062 13.441406 80.792969 13.890625 82.292969 C 14.191406 83.121094 14.566406 83.871094 15.015625 84.320312 C 15.09375 84.320312 15.09375 84.472656 15.167969 84.472656 C 15.617188 84.921875 16.066406 85.148438 16.59375 85.296875 C 17.042969 85.597656 17.644531 85.597656 18.246094 85.445312 Z M 18.246094 85.445312 " fill-opacity="1" fill-rule="nonzero"/><path fill="#ffffff" d="M 13.214844 57.289062 C 13.515625 57.890625 13.964844 58.339844 14.417969 58.792969 C 14.640625 59.015625 14.867188 59.09375 15.015625 59.242188 C 15.617188 59.617188 16.292969 59.917969 17.195312 60.144531 C 18.847656 60.59375 20.199219 60.59375 21.398438 60.066406 C 21.550781 59.992188 21.699219 59.917969 21.851562 59.84375 C 23.125 59.167969 24.027344 57.964844 24.554688 56.3125 C 25.003906 54.664062 24.851562 53.234375 24.101562 51.882812 C 23.578125 50.90625 22.675781 50.15625 21.398438 49.632812 C 21.097656 49.480469 20.648438 49.332031 20.199219 49.257812 C 18.394531 48.730469 16.820312 48.804688 15.542969 49.554688 C 15.316406 49.632812 15.242188 49.78125 15.015625 49.855469 C 13.964844 50.609375 13.214844 51.660156 12.839844 53.085938 C 12.613281 53.988281 12.539062 54.886719 12.613281 55.636719 C 12.6875 56.164062 12.914062 56.765625 13.214844 57.289062 Z M 14.792969 53.535156 C 14.867188 53.3125 14.941406 53.160156 15.015625 52.933594 C 15.316406 52.335938 15.769531 51.882812 16.367188 51.582031 C 17.195312 51.207031 18.246094 51.207031 19.523438 51.582031 C 20.273438 51.808594 20.949219 52.109375 21.398438 52.484375 C 21.773438 52.710938 22 53.011719 22.226562 53.3125 C 22.675781 54.0625 22.75 54.960938 22.527344 55.789062 C 22.375 56.464844 21.925781 57.066406 21.324219 57.441406 C 21.175781 57.515625 21.023438 57.589844 20.875 57.742188 C 20.046875 58.191406 18.996094 58.191406 17.71875 57.816406 C 16.445312 57.441406 15.542969 56.914062 15.015625 56.164062 C 15.015625 56.164062 15.015625 56.089844 14.941406 56.011719 C 14.640625 55.261719 14.566406 54.4375 14.792969 53.535156 Z M 14.792969 53.535156 " fill-opacity="1" fill-rule="nonzero"/><path fill="#ffffff" d="M 78.6875 107.371094 L 76.960938 107.824219 C 76.960938 108.648438 76.585938 109.324219 76.136719 110 C 75.6875 110.675781 75.234375 111.125 74.710938 111.425781 C 74.636719 111.5 74.636719 111.5 74.558594 111.5 L 74.710938 112.027344 L 75.085938 113.453125 C 76.0625 112.777344 76.8125 112.027344 77.414062 111.050781 L 79.589844 119.234375 L 81.691406 118.710938 Z M 78.6875 107.371094 " fill-opacity="1" fill-rule="nonzero"/><path fill="#ffffff" d="M 74.109375 115.332031 C 73.660156 114.878906 73.132812 114.582031 72.457031 114.429688 C 73.582031 113.753906 74.109375 112.929688 74.035156 111.878906 C 74.035156 111.125 73.660156 110.449219 73.132812 110 C 72.457031 109.324219 71.480469 109.023438 70.429688 109.097656 C 69.753906 109.097656 69.230469 109.25 68.703125 109.550781 C 68.253906 109.851562 67.800781 110.148438 67.578125 110.601562 C 67.277344 110.976562 67.125 111.578125 67.050781 112.328125 L 69.078125 112.554688 C 69.078125 112.027344 69.230469 111.652344 69.527344 111.351562 C 69.753906 111.050781 70.054688 110.976562 70.429688 110.976562 C 70.804688 110.902344 71.179688 110.976562 71.40625 111.277344 C 71.632812 111.5 71.78125 111.878906 71.855469 112.175781 C 71.855469 112.628906 71.707031 113.003906 71.40625 113.378906 C 71.105469 113.679688 70.65625 113.828125 70.054688 113.828125 L 69.90625 115.632812 C 70.28125 115.480469 70.65625 115.40625 70.957031 115.40625 C 71.332031 115.40625 71.78125 115.554688 72.082031 115.855469 C 72.382812 116.15625 72.609375 116.609375 72.609375 117.132812 C 72.609375 117.734375 72.53125 118.183594 72.230469 118.558594 C 71.933594 118.933594 71.554688 119.085938 71.03125 119.160156 C 70.582031 119.160156 70.28125 119.085938 69.90625 118.785156 C 69.605469 118.484375 69.378906 118.109375 69.304688 117.507812 L 67.125 117.882812 C 67.351562 118.859375 67.726562 119.6875 68.476562 120.210938 C 69.230469 120.738281 70.054688 121.039062 71.179688 120.960938 C 72.308594 120.886719 73.132812 120.511719 73.960938 119.6875 C 74.335938 119.234375 74.636719 118.785156 74.785156 118.257812 C 74.859375 117.808594 74.933594 117.433594 74.933594 116.984375 C 74.933594 116.605469 74.859375 116.382812 74.785156 116.15625 C 74.558594 115.933594 74.410156 115.632812 74.109375 115.332031 Z M 74.109375 115.332031 " fill-opacity="1" fill-rule="nonzero"/><path fill="#ffffff" d="M 62.394531 109.097656 C 62.320312 109.097656 62.246094 109.097656 62.171875 109.097656 C 61.195312 109.097656 60.367188 109.398438 59.691406 110.074219 C 58.941406 110.75 58.492188 111.726562 58.492188 112.851562 C 58.492188 113.980469 58.714844 114.957031 59.316406 115.707031 C 59.992188 116.457031 60.742188 116.832031 61.644531 116.90625 C 61.871094 116.984375 62.09375 116.90625 62.171875 116.90625 C 62.769531 116.832031 63.371094 116.53125 63.824219 116.082031 C 63.671875 117.359375 63.445312 118.257812 63.070312 118.710938 C 62.847656 119.011719 62.546875 119.160156 62.246094 119.234375 C 62.171875 119.234375 62.019531 119.234375 61.871094 119.234375 C 61.496094 119.234375 61.195312 119.085938 61.042969 118.859375 C 60.820312 118.636719 60.742188 118.257812 60.667969 117.882812 L 58.492188 118.035156 C 58.566406 119.011719 58.867188 119.761719 59.46875 120.285156 C 59.992188 120.8125 60.742188 121.039062 61.644531 121.113281 C 61.796875 121.113281 62.019531 121.113281 62.246094 121.113281 C 63.296875 121.039062 64.121094 120.585938 64.796875 119.835938 C 65.625 118.933594 66.074219 117.433594 66.226562 115.257812 C 66.300781 113.152344 66.074219 111.652344 65.324219 110.675781 C 64.574219 109.625 63.597656 109.097656 62.394531 109.097656 Z M 63.222656 114.804688 C 62.921875 115.105469 62.621094 115.179688 62.171875 115.179688 C 62.171875 115.179688 62.171875 115.179688 62.09375 115.179688 C 61.71875 115.179688 61.34375 115.03125 61.042969 114.65625 C 60.742188 114.28125 60.667969 113.753906 60.667969 113.003906 C 60.667969 112.253906 60.894531 111.726562 61.195312 111.351562 C 61.496094 111.050781 61.871094 110.902344 62.246094 110.902344 C 62.320312 110.902344 62.320312 110.902344 62.320312 110.902344 C 62.695312 110.976562 63.070312 111.125 63.445312 111.578125 C 63.746094 111.953125 63.898438 112.554688 63.898438 113.304688 C 63.746094 113.980469 63.523438 114.503906 63.222656 114.804688 Z M 63.222656 114.804688 " fill-opacity="1" fill-rule="nonzero"/><path fill="#ffffff" d="M 54.0625 109.625 C 53.234375 109.925781 52.484375 110.148438 51.882812 110.148438 L 51.359375 112.101562 C 52.558594 112.101562 53.609375 111.800781 54.585938 111.203125 L 52.335938 119.386719 L 54.511719 119.988281 L 57.589844 108.648438 L 55.789062 108.199219 C 55.488281 108.722656 54.886719 109.25 54.0625 109.625 Z M 54.0625 109.625 " fill-opacity="1" fill-rule="nonzero"/><path fill="#ffffff" d="M 93.632812 108.273438 C 95.433594 108.273438 96.859375 106.847656 96.859375 105.042969 C 96.859375 103.242188 95.433594 101.816406 93.632812 101.816406 C 91.90625 101.816406 90.476562 103.242188 90.476562 105.042969 C 90.476562 106.847656 91.90625 108.273438 93.632812 108.273438 Z M 93.632812 108.273438 " fill-opacity="1" fill-rule="nonzero"/><path fill="#ffffff" d="M 37.992188 109.472656 C 39.71875 109.472656 41.148438 108.046875 41.148438 106.246094 C 41.148438 104.445312 39.71875 103.015625 37.992188 103.015625 C 36.191406 103.015625 34.765625 104.445312 34.765625 106.246094 C 34.839844 107.972656 36.265625 109.472656 37.992188 109.472656 Z M 37.992188 109.472656 " fill-opacity="1" fill-rule="nonzero"/><path fill="#ffffff" d="M 40.921875 37.09375 L 35.515625 37.769531 L 43.773438 109.472656 L 49.78125 108.796875 L 41.523438 37.015625 Z M 40.921875 37.09375 " fill-opacity="1" fill-rule="nonzero"/><path fill="#2762a6" d="M 100.011719 94.082031 C 99.488281 88 98.136719 82.667969 96.933594 77.414062 C 94.308594 66.902344 91.679688 56.011719 95.808594 39.195312 L 95.960938 38.519531 L 95.285156 38.59375 C 93.179688 38.894531 91.078125 39.417969 88.976562 39.871094 C 83.042969 41.222656 76.960938 42.648438 70.65625 40.320312 L 70.503906 40.320312 C 67.726562 40.019531 65.175781 39.195312 62.695312 38.445312 C 56.839844 36.640625 50.832031 34.839844 41.671875 39.195312 L 41.296875 39.34375 L 41.445312 39.71875 C 47.304688 57.289062 49.105469 74.785156 46.777344 91.90625 L 46.703125 92.730469 L 47.527344 92.355469 C 61.269531 85.671875 71.78125 88.449219 82.96875 91.453125 C 88.300781 92.878906 93.855469 94.308594 99.714844 94.609375 L 100.238281 94.609375 Z M 83.042969 90.554688 C 72.382812 87.699219 61.417969 84.847656 47.753906 91.230469 C 48.355469 86.648438 48.65625 81.992188 48.65625 77.414062 C 48.65625 77.113281 48.65625 76.738281 48.65625 76.4375 C 48.65625 73.132812 48.429688 69.828125 48.128906 66.449219 C 54.960938 63.824219 62.09375 62.921875 69.753906 64.199219 L 69.605469 41.148438 C 69.828125 41.148438 70.128906 41.222656 70.355469 41.222656 C 76.886719 43.625 83.121094 42.199219 89.203125 40.847656 C 91.152344 40.394531 92.957031 40.019531 94.757812 39.71875 C 93.332031 45.878906 92.730469 51.207031 92.730469 56.011719 C 92.730469 59.542969 93.03125 62.769531 93.480469 65.925781 C 94.082031 69.980469 94.984375 73.734375 95.882812 77.414062 C 95.882812 77.488281 95.960938 77.636719 95.960938 77.789062 C 97.160156 82.820312 98.4375 88 99.039062 93.78125 C 93.480469 93.257812 88.226562 91.90625 83.042969 90.554688 Z M 83.042969 90.554688 " fill-opacity="1" fill-rule="nonzero"/><path fill="#2762a6" d="M 36.265625 38.292969 L 44.375 108.722656 L 49.105469 108.199219 L 40.996094 37.769531 Z M 36.265625 38.292969 " fill-opacity="1" fill-rule="nonzero"/><path fill="#ffffff" d="M 95.882812 77.261719 C 94.984375 73.582031 94.082031 69.828125 93.480469 65.773438 C 85.445312 66.148438 69.753906 64.121094 69.753906 64.121094 C 62.09375 62.769531 54.960938 63.746094 48.128906 66.375 C 48.429688 69.679688 48.65625 73.058594 48.65625 76.363281 C 65.550781 72.082031 79.515625 78.089844 95.882812 77.261719 Z M 95.882812 77.261719 " fill-opacity="1" fill-rule="nonzero"/><path fill="#ffffff" d="M 56.613281 61.796875 C 51.660156 61.796875 47.679688 56.988281 47.679688 51.132812 C 47.679688 45.203125 51.660156 40.394531 56.613281 40.394531 C 61.496094 40.394531 65.550781 45.203125 65.550781 51.132812 C 65.550781 56.988281 61.570312 61.796875 56.613281 61.796875 Z M 56.613281 61.796875 " fill-opacity="1" fill-rule="nonzero"/><path fill="#cd3529" d="M 51.734375 45.351562 C 54.285156 44.148438 55.5625 45.351562 57.441406 45.578125 C 59.167969 46.253906 60.820312 45.5 62.394531 45.203125 C 61.195312 50.230469 62.921875 52.558594 63.222656 56.238281 C 59.691406 56.089844 56.914062 53.761719 52.710938 55.789062 C 53.3125 52.335938 52.933594 48.804688 51.734375 45.351562 Z M 51.734375 45.351562 " fill-opacity="1" fill-rule="nonzero"/><path fill="#ffffff" d="M 57.289062 45.5 L 57.289062 47.980469 L 62.09375 47.980469 L 62.472656 45.277344 C 60.445312 45.726562 58.867188 46.027344 57.289062 45.5 Z M 57.289062 45.5 " fill-opacity="1" fill-rule="nonzero"/><path fill="#ffffff" d="M 51.582031 44.824219 L 50.53125 44.976562 L 52.183594 59.316406 L 53.386719 59.167969 L 51.734375 44.824219 Z M 51.582031 44.824219 " fill-opacity="1" fill-rule="nonzero"/><path fill="#2762a6" d="M 63.371094 56.238281 C 63.296875 55.039062 62.996094 53.910156 62.769531 52.933594 C 62.246094 50.832031 61.71875 48.65625 62.546875 45.277344 L 62.546875 45.125 L 62.394531 45.125 C 61.945312 45.203125 61.570312 45.277344 61.121094 45.351562 C 59.917969 45.652344 58.714844 45.878906 57.441406 45.425781 C 56.914062 45.351562 56.390625 45.203125 55.863281 45.050781 C 54.660156 44.675781 53.535156 44.300781 51.660156 45.203125 L 51.582031 45.203125 L 51.582031 45.277344 C 52.785156 48.804688 53.085938 52.335938 52.636719 55.714844 L 52.636719 55.863281 L 52.785156 55.789062 C 55.488281 54.4375 57.664062 55.039062 59.84375 55.636719 C 60.894531 55.9375 62.019531 56.238281 63.148438 56.238281 Z M 59.992188 55.5625 C 57.890625 55.039062 55.636719 54.4375 52.933594 55.714844 C 53.011719 54.8125 53.085938 53.910156 53.085938 52.933594 C 53.085938 52.859375 53.085938 52.785156 53.085938 52.710938 C 53.085938 52.035156 53.011719 51.359375 53.011719 50.683594 C 54.363281 50.15625 55.789062 49.933594 57.289062 50.230469 L 57.289062 45.652344 C 57.363281 45.652344 57.363281 45.652344 57.441406 45.652344 C 58.714844 46.101562 59.992188 45.878906 61.195312 45.578125 C 61.570312 45.5 61.945312 45.425781 62.320312 45.351562 C 62.019531 46.554688 61.945312 47.679688 61.945312 48.582031 C 61.945312 49.332031 62.019531 49.933594 62.09375 50.53125 C 62.246094 51.359375 62.394531 52.109375 62.546875 52.859375 L 62.546875 52.933594 C 62.769531 53.910156 63.070312 54.960938 63.148438 56.089844 C 62.09375 56.089844 61.042969 55.789062 59.992188 55.5625 Z M 59.992188 55.5625 " fill-opacity="1" fill-rule="nonzero"/><path fill="#2762a6" d="M 50.683594 45.125 L 52.257812 59.167969 L 53.234375 59.09375 L 51.582031 44.976562 Z M 50.683594 45.125 " fill-opacity="1" fill-rule="nonzero"/><path fill="#ffffff" d="M 62.546875 52.859375 C 62.394531 52.109375 62.171875 51.359375 62.09375 50.53125 C 60.519531 50.609375 57.363281 50.15625 57.363281 50.15625 C 55.863281 49.855469 54.4375 50.082031 53.085938 50.609375 C 53.160156 51.285156 53.160156 51.960938 53.160156 52.636719 C 56.539062 51.882812 59.316406 53.085938 62.546875 52.859375 Z M 62.546875 52.859375 " fill-opacity="1" fill-rule="nonzero"/><path fill="#ffffff" d="M 54.738281 49.78125 C 53.761719 49.78125 52.933594 48.804688 52.933594 47.679688 C 52.933594 46.476562 53.761719 45.5 54.738281 45.5 C 55.714844 45.5 56.539062 46.476562 56.539062 47.679688 C 56.539062 48.804688 55.714844 49.78125 54.738281 49.78125 Z M 54.738281 49.78125 " fill-opacity="1" fill-rule="nonzero"/></svg>