<svg xmlns="http://www.w3.org/2000/svg" xmlns:xlink="http://www.w3.org/1999/xlink" width="500" zoomAndPan="magnify" viewBox="0 0 375 374.999991" height="500" preserveAspectRatio="xMidYMid meet" version="1.0"><path fill="#010101" d="M 317.25 94.988281 C 317.25 95.460938 317.289062 95.933594 317.289062 96.40625 C 317.289062 131.550781 317.289062 166.699219 317.289062 201.847656 C 317.308594 202.773438 317.019531 203.589844 316.425781 204.300781 C 273.609375 258.730469 230.804688 313.167969 188.011719 367.613281 C 187.867188 367.800781 187.710938 367.972656 187.476562 368.25 L 181.875 361.125 C 140.746094 308.820312 99.621094 256.519531 58.5 204.226562 C 58.28125 203.941406 58.175781 203.476562 57.703125 203.476562 L 57.703125 95.054688 C 58.109375 95.054688 58.335938 95.347656 58.613281 95.550781 C 61.003906 97.273438 63.398438 99.015625 65.789062 100.746094 C 65.789062 101.257812 65.863281 101.765625 65.863281 102.246094 C 65.863281 134.558594 65.863281 166.867188 65.863281 199.175781 C 65.828125 199.945312 66.050781 200.628906 66.539062 201.226562 C 74.714844 211.589844 82.886719 221.964844 91.050781 232.351562 C 91.246094 232.597656 91.378906 232.941406 91.84375 233.023438 L 91.84375 120 C 92.347656 120 92.59375 120.359375 92.894531 120.578125 C 100.089844 125.828125 107.285156 131.078125 114.480469 136.328125 C 114.84375 136.550781 115.125 136.851562 115.320312 137.234375 C 115.515625 137.613281 115.597656 138.015625 115.566406 138.441406 C 115.523438 179.648438 115.5 220.871094 115.5 262.117188 C 115.476562 263.082031 115.769531 263.9375 116.386719 264.683594 C 124.230469 274.613281 132.058594 284.550781 139.875 294.503906 C 140.339844 295.101562 140.828125 295.6875 141.488281 296.496094 L 141.488281 157.65625 C 141.488281 157.140625 141.488281 156.628906 141.53125 156.121094 L 142.492188 156.789062 L 149.617188 161.878906 C 149.617188 162.390625 149.671875 162.898438 149.671875 163.378906 C 149.671875 210.804688 149.671875 258.226562 149.671875 305.640625 C 149.648438 306.527344 149.921875 307.3125 150.496094 307.996094 C 160.324219 320.464844 170.144531 332.949219 179.953125 345.449219 L 187.5 355.09375 C 187.628906 354.90625 187.695312 354.808594 187.769531 354.71875 C 200.125 339.003906 212.484375 323.296875 224.84375 307.597656 C 225.167969 307.1875 225.320312 306.71875 225.300781 306.195312 C 225.300781 266.03125 225.300781 225.867188 225.300781 185.707031 C 225.300781 185.46875 225.457031 185.144531 225.050781 184.957031 L 224.300781 185.519531 C 216.300781 191.988281 208.300781 198.453125 200.300781 204.90625 C 199.96875 205.144531 199.714844 205.449219 199.539062 205.816406 C 199.363281 206.1875 199.292969 206.578125 199.320312 206.984375 C 199.320312 225.414062 199.320312 243.839844 199.320312 262.261719 L 199.320312 317.527344 C 199.421875 318.09375 199.304688 318.609375 198.976562 319.078125 C 195.140625 323.535156 191.339844 328.003906 187.492188 332.511719 C 187.183594 332.183594 186.921875 331.898438 186.675781 331.605469 C 183.269531 327.613281 179.886719 323.609375 176.453125 319.640625 C 175.847656 318.988281 175.558594 318.214844 175.582031 317.324219 C 175.582031 272.324219 175.582031 227.351562 175.582031 182.398438 C 175.582031 181.964844 175.582031 181.53125 175.582031 181.09375 C 175.921875 181.296875 176.273438 181.46875 176.585938 181.695312 C 179.902344 184.101562 183.21875 186.503906 186.503906 188.953125 C 186.621094 189.078125 186.761719 189.171875 186.917969 189.238281 C 187.078125 189.304688 187.242188 189.339844 187.414062 189.339844 C 187.585938 189.339844 187.75 189.304688 187.90625 189.238281 C 188.066406 189.171875 188.203125 189.078125 188.324219 188.953125 C 196.324219 183.074219 204.324219 177.21875 212.324219 171.382812 C 219.324219 166.273438 226.324219 161.171875 233.324219 156.082031 C 233.324219 156.59375 233.371094 157.101562 233.371094 157.582031 C 233.371094 203.382812 233.371094 249.183594 233.371094 294.984375 C 233.277344 295.445312 233.328125 295.894531 233.527344 296.324219 C 233.804688 295.980469 234.03125 295.710938 234.277344 295.433594 C 258.832031 264.199219 283.394531 232.96875 307.964844 201.75 C 308.730469 200.8125 309.09375 199.742188 309.050781 198.53125 C 309.023438 166.425781 309.023438 134.320312 309.050781 102.210938 C 309.050781 101.699219 309.105469 101.191406 309.128906 100.710938 Z M 317.25 94.988281 " fill-opacity="1" fill-rule="nonzero"/><path fill="#dc1212" d="M 317.25 94.988281 L 309.203125 100.746094 C 309.203125 97.515625 309.136719 94.28125 309.121094 91.058594 C 309.105469 87.832031 309.121094 84.59375 309.121094 81.359375 C 309.121094 80.511719 308.910156 80.371094 308.21875 80.859375 C 307.53125 81.34375 307.027344 81.609375 306.425781 81.996094 L 272.023438 103.613281 C 271.582031 103.890625 271.109375 104.078125 271.117188 104.8125 C 271.164062 112.703125 271.171875 120.5625 271.183594 128.46875 L 259.5 136.988281 C 259.5 136.71875 259.433594 136.441406 259.433594 136.171875 C 259.433594 106.414062 259.433594 76.664062 259.433594 46.921875 C 259.410156 46.757812 259.417969 46.601562 259.457031 46.441406 C 259.492188 46.285156 259.558594 46.140625 259.65625 46.007812 C 259.75 45.875 259.863281 45.765625 260 45.679688 C 260.136719 45.589844 260.285156 45.53125 260.445312 45.503906 C 267.609375 42.890625 274.761719 40.253906 281.917969 37.589844 C 283.164062 37.132812 283.171875 37.132812 283.171875 38.460938 L 283.171875 78.398438 C 283.550781 78.210938 283.734375 78.136719 283.921875 78.046875 C 292.066406 73.585938 300.214844 69.128906 308.371094 64.679688 C 309.121094 64.265625 309.121094 63.71875 309.121094 63.039062 C 309.121094 48.277344 309.121094 33.527344 309.121094 18.789062 C 309.121094 17.332031 309.121094 17.324219 307.785156 17.675781 C 283.460938 24.175781 259.136719 30.675781 234.808594 37.175781 C 233.738281 37.460938 233.429688 37.867188 233.429688 38.976562 C 233.46875 77.5625 233.46875 116.148438 233.429688 154.734375 C 233.429688 155.203125 233.429688 155.675781 233.386719 156.148438 C 226.386719 161.25 219.386719 166.351562 212.386719 171.449219 C 204.386719 177.296875 196.386719 183.152344 188.386719 189.023438 C 188.265625 189.144531 188.125 189.238281 187.96875 189.304688 C 187.808594 189.371094 187.644531 189.40625 187.472656 189.40625 C 187.300781 189.40625 187.136719 189.371094 186.980469 189.304688 C 186.820312 189.238281 186.683594 189.144531 186.5625 189.023438 C 183.277344 186.570312 179.960938 184.171875 176.648438 181.761719 C 176.332031 181.539062 175.980469 181.363281 175.640625 181.171875 C 175.640625 180.816406 175.640625 180.457031 175.640625 180.105469 C 175.640625 150.28125 175.640625 120.453125 175.640625 90.621094 C 175.640625 83.484375 175.640625 76.371094 175.640625 69.195312 C 175.640625 68.339844 175.761719 68.101562 176.671875 68.445312 C 179.414062 69.511719 182.25 70.378906 184.921875 71.535156 C 185.734375 71.917969 186.59375 72.113281 187.496094 72.113281 C 188.398438 72.113281 189.257812 71.917969 190.074219 71.535156 C 193.074219 70.265625 196.15625 69.285156 199.371094 68.078125 L 199.371094 124.433594 C 199.523438 124.386719 199.671875 124.335938 199.816406 124.273438 C 208.101562 119.730469 216.386719 115.191406 224.675781 110.664062 C 225.308594 110.316406 225.300781 109.851562 225.300781 109.296875 C 225.300781 86.527344 225.300781 63.761719 225.300781 41.003906 C 225.300781 40.09375 225.210938 39.765625 224.152344 40.050781 C 212.363281 43.214844 200.535156 46.351562 188.722656 49.5 C 187.878906 49.738281 187.039062 49.738281 186.195312 49.5 C 174.535156 46.359375 162.871094 43.238281 151.199219 40.132812 C 149.699219 39.726562 149.699219 39.734375 149.699219 41.273438 L 149.699219 160.34375 C 149.699219 160.851562 149.699219 161.371094 149.648438 161.878906 L 142.523438 156.789062 L 141.5625 156.121094 C 141.5625 155.648438 141.515625 155.175781 141.515625 154.703125 C 141.515625 116.113281 141.515625 77.527344 141.515625 38.949219 C 141.515625 37.921875 141.308594 37.5 140.226562 37.214844 C 115.898438 30.714844 91.574219 24.214844 67.261719 17.714844 C 65.863281 17.339844 65.863281 17.339844 65.863281 18.757812 L 65.863281 99.335938 C 65.863281 99.808594 65.8125 100.273438 65.78125 100.746094 C 63.390625 99.015625 60.996094 97.273438 58.605469 95.550781 C 58.328125 95.347656 58.101562 95.023438 57.699219 95.054688 L 57.699219 6.75 C 60.878906 7.558594 64.066406 8.347656 67.238281 9.195312 C 90.789062 15.480469 114.332031 21.773438 137.871094 28.074219 C 154.15625 32.421875 170.449219 36.777344 186.75 41.136719 C 187.28125 41.289062 187.808594 41.289062 188.339844 41.136719 C 217.511719 33.328125 246.683594 25.527344 275.859375 17.738281 C 289.359375 14.136719 302.859375 10.539062 316.359375 6.945312 C 317.210938 6.710938 317.332031 6.855469 317.332031 7.695312 C 317.332031 36.695312 317.332031 65.695312 317.332031 94.695312 C 317.308594 94.792969 317.28125 94.890625 317.25 94.988281 Z M 317.25 94.988281 " fill-opacity="1" fill-rule="nonzero"/><path fill="#fefefe" d="M 149.625 161.878906 C 149.625 161.371094 149.675781 160.851562 149.675781 160.34375 L 149.675781 41.25 C 149.675781 39.710938 149.675781 39.703125 151.175781 40.109375 C 162.859375 43.246094 174.53125 46.375 186.195312 49.5 C 187.039062 49.738281 187.878906 49.738281 188.722656 49.5 C 200.535156 46.320312 212.363281 43.183594 224.175781 39.984375 C 225.234375 39.699219 225.324219 40.027344 225.324219 40.933594 C 225.324219 63.699219 225.324219 86.464844 225.324219 109.230469 C 225.324219 109.785156 225.324219 110.25 224.699219 110.59375 C 216.40625 115.09375 208.117188 119.632812 199.835938 124.207031 C 199.691406 124.265625 199.546875 124.320312 199.394531 124.363281 L 199.394531 68.039062 C 196.175781 69.21875 193.078125 70.230469 190.09375 71.496094 C 189.277344 71.882812 188.421875 72.074219 187.519531 72.074219 C 186.617188 72.074219 185.757812 71.882812 184.941406 71.496094 C 182.234375 70.34375 179.398438 69.472656 176.691406 68.40625 C 175.785156 68.054688 175.664062 68.296875 175.664062 69.15625 C 175.664062 76.304688 175.664062 83.445312 175.664062 90.585938 C 175.664062 120.414062 175.664062 150.242188 175.664062 180.066406 C 175.664062 180.421875 175.664062 180.78125 175.664062 181.132812 C 175.664062 181.484375 175.664062 181.996094 175.664062 182.429688 C 175.664062 227.398438 175.664062 272.375 175.664062 317.355469 C 175.640625 318.246094 175.929688 319.019531 176.535156 319.671875 C 179.96875 323.640625 183.351562 327.644531 186.757812 331.636719 C 187.003906 331.925781 187.265625 332.210938 187.574219 332.542969 C 191.421875 328.042969 195.226562 323.542969 199.058594 319.109375 C 199.390625 318.640625 199.503906 318.121094 199.402344 317.558594 L 199.402344 262.289062 C 199.402344 243.859375 199.402344 225.433594 199.402344 207.015625 C 199.375 206.605469 199.445312 206.21875 199.621094 205.847656 C 199.796875 205.476562 200.050781 205.175781 200.386719 204.9375 C 208.386719 198.496094 216.386719 192.035156 224.386719 185.550781 L 225.136719 184.988281 C 225.539062 185.144531 225.382812 185.46875 225.382812 185.738281 C 225.382812 225.902344 225.382812 266.066406 225.382812 306.226562 C 225.402344 306.75 225.25 307.214844 224.925781 307.628906 C 212.515625 323.3125 200.136719 339.019531 187.785156 354.75 C 187.710938 354.839844 187.640625 354.9375 187.515625 355.125 L 179.949219 345.511719 C 170.132812 333.011719 160.3125 320.523438 150.488281 308.054688 C 149.917969 307.375 149.640625 306.589844 149.664062 305.699219 C 149.664062 258.285156 149.664062 210.863281 149.664062 163.441406 C 149.675781 162.898438 149.640625 162.390625 149.625 161.878906 Z M 149.625 161.878906 " fill-opacity="1" fill-rule="nonzero"/><path fill="#fefefe" d="M 65.78125 100.746094 C 65.78125 100.273438 65.863281 99.808594 65.863281 99.335938 L 65.863281 18.75 C 65.863281 17.332031 65.863281 17.332031 67.261719 17.707031 C 91.578125 24.207031 115.902344 30.707031 140.226562 37.207031 C 141.308594 37.492188 141.515625 37.914062 141.515625 38.941406 C 141.488281 77.523438 141.488281 116.109375 141.515625 154.695312 C 141.515625 155.167969 141.515625 155.640625 141.5625 156.113281 C 141.609375 156.585938 141.515625 157.132812 141.515625 157.648438 L 141.515625 296.496094 C 140.859375 295.6875 140.371094 295.101562 139.90625 294.503906 C 132.074219 284.558594 124.246094 274.617188 116.414062 264.683594 C 115.800781 263.9375 115.503906 263.082031 115.53125 262.117188 C 115.53125 220.886719 115.546875 179.660156 115.574219 138.433594 C 115.605469 138.007812 115.523438 137.605469 115.328125 137.226562 C 115.132812 136.84375 114.851562 136.542969 114.488281 136.320312 C 107.273438 131.101562 100.078125 125.851562 92.902344 120.570312 C 92.601562 120.351562 92.355469 120.007812 91.851562 119.992188 L 91.851562 233.054688 C 91.386719 232.972656 91.253906 232.628906 91.058594 232.378906 C 82.851562 222.011719 74.675781 211.636719 66.523438 201.253906 C 66.039062 200.660156 65.8125 199.976562 65.851562 199.207031 C 65.851562 166.898438 65.851562 134.585938 65.851562 102.277344 C 65.859375 101.765625 65.8125 101.25 65.78125 100.746094 Z M 115.5 111.472656 C 115.5 111.03125 115.546875 110.796875 115.546875 110.558594 C 115.546875 89.332031 115.546875 68.105469 115.546875 46.875 C 115.5625 46.722656 115.550781 46.574219 115.511719 46.425781 C 115.472656 46.28125 115.410156 46.144531 115.320312 46.023438 C 115.226562 45.898438 115.117188 45.796875 114.988281 45.71875 C 114.859375 45.636719 114.71875 45.582031 114.570312 45.554688 C 107.332031 42.914062 100.101562 40.230469 92.863281 37.574219 C 92.558594 37.460938 92.242188 37.183594 91.835938 37.394531 C 91.835938 37.582031 91.835938 37.777344 91.835938 37.972656 C 91.835938 57.222656 91.835938 76.472656 91.835938 95.722656 C 91.828125 96.011719 91.894531 96.285156 92.042969 96.535156 C 92.191406 96.785156 92.394531 96.976562 92.65625 97.109375 C 97.65625 100.214844 102.628906 103.332031 107.574219 106.460938 Z M 115.5 111.472656 " fill-opacity="1" fill-rule="nonzero"/><path fill="#fefefe" d="M 271.191406 128.46875 C 271.191406 120.585938 271.191406 112.71875 271.125 104.8125 C 271.125 104.0625 271.589844 103.890625 272.03125 103.613281 L 306.433594 81.996094 C 307.035156 81.621094 307.648438 81.246094 308.226562 80.859375 C 308.804688 80.46875 309.136719 80.511719 309.128906 81.359375 C 309.128906 84.59375 309.128906 87.828125 309.128906 91.058594 C 309.128906 94.28125 309.179688 97.515625 309.210938 100.746094 C 309.210938 101.257812 309.136719 101.765625 309.136719 102.246094 C 309.136719 134.359375 309.136719 166.464844 309.136719 198.570312 C 309.175781 199.777344 308.8125 200.851562 308.046875 201.789062 C 283.472656 233.023438 258.914062 264.261719 234.375 295.5 C 234.15625 295.777344 233.933594 296.046875 233.625 296.390625 C 233.425781 295.960938 233.375 295.515625 233.46875 295.050781 C 233.46875 249.246094 233.46875 203.445312 233.46875 157.648438 C 233.46875 157.140625 233.46875 156.628906 233.421875 156.148438 C 233.378906 155.671875 233.46875 155.203125 233.46875 154.734375 C 233.46875 116.152344 233.46875 77.566406 233.46875 38.976562 C 233.46875 37.867188 233.773438 37.476562 234.847656 37.175781 C 259.175781 30.710938 283.503906 24.210938 307.824219 17.675781 C 309.15625 17.324219 309.164062 17.332031 309.15625 18.789062 C 309.15625 33.542969 309.15625 48.292969 309.15625 63.039062 C 309.15625 63.71875 309.15625 64.265625 308.40625 64.679688 C 300.246094 69.109375 292.097656 73.566406 283.957031 78.046875 C 283.792969 78.136719 283.613281 78.210938 283.207031 78.398438 L 283.207031 38.46875 C 283.207031 37.140625 283.207031 37.140625 281.953125 37.597656 C 274.800781 40.246094 267.644531 42.898438 260.484375 45.511719 C 260.324219 45.539062 260.175781 45.597656 260.039062 45.6875 C 259.902344 45.773438 259.785156 45.882812 259.691406 46.015625 C 259.597656 46.148438 259.53125 46.292969 259.492188 46.449219 C 259.453125 46.609375 259.445312 46.765625 259.46875 46.925781 C 259.46875 76.671875 259.46875 106.421875 259.46875 136.175781 C 259.46875 136.449219 259.515625 136.726562 259.539062 136.996094 C 259.5 137.269531 259.476562 137.542969 259.46875 137.820312 C 259.46875 174.28125 259.46875 210.734375 259.46875 247.183594 C 259.46875 247.460938 259.296875 247.824219 259.710938 248.03125 C 259.996094 247.710938 260.28125 247.394531 260.558594 247.066406 C 267.726562 238.671875 274.90625 230.28125 282.089844 221.894531 C 282.878906 221.027344 283.25 220.007812 283.199219 218.835938 C 283.199219 186.335938 283.199219 153.835938 283.199219 121.335938 L 283.199219 119.902344 C 282.75 120.203125 282.449219 120.40625 282.128906 120.652344 Z M 271.191406 128.46875 " fill-opacity="1" fill-rule="nonzero"/><path fill="#010101" d="M 271.191406 128.46875 L 282.105469 120.585938 C 282.40625 120.367188 282.726562 120.164062 283.175781 119.835938 L 283.175781 121.265625 C 283.175781 153.765625 283.175781 186.265625 283.175781 218.765625 C 283.226562 219.941406 282.859375 220.960938 282.066406 221.828125 C 274.859375 230.1875 267.679688 238.578125 260.535156 246.996094 C 260.257812 247.328125 259.972656 247.640625 259.6875 247.964844 C 259.273438 247.753906 259.449219 247.394531 259.449219 247.117188 C 259.449219 210.65625 259.449219 174.203125 259.449219 137.753906 C 259.453125 137.476562 259.476562 137.203125 259.515625 136.925781 Z M 271.191406 128.46875 " fill-opacity="1" fill-rule="nonzero"/><path fill="#dc1212" d="M 115.5 111.472656 L 107.527344 106.5 C 102.5625 103.378906 97.589844 100.261719 92.609375 97.148438 C 92.351562 97.015625 92.148438 96.824219 92 96.574219 C 91.851562 96.320312 91.78125 96.050781 91.792969 95.761719 C 91.792969 76.5 91.792969 57.25 91.792969 38.011719 C 91.792969 37.816406 91.792969 37.621094 91.792969 37.433594 C 92.199219 37.222656 92.542969 37.5 92.820312 37.613281 C 100.058594 40.265625 107.289062 42.953125 114.523438 45.59375 C 114.675781 45.621094 114.8125 45.675781 114.945312 45.753906 C 115.074219 45.835938 115.183594 45.9375 115.273438 46.058594 C 115.363281 46.183594 115.429688 46.316406 115.46875 46.464844 C 115.507812 46.613281 115.519531 46.761719 115.5 46.914062 C 115.5 68.148438 115.5 89.375 115.5 110.59375 C 115.5 110.796875 115.5 111 115.5 111.472656 Z M 115.5 111.472656 " fill-opacity="1" fill-rule="nonzero"/></svg>